<svg width="300" height="300" viewBox="0 0 300 300" fill="none" xmlns="http://www.w3.org/2000/svg">
<circle cx="134.5" cy="34.5" r="4.5" fill="#61402D"/>
<circle cx="144.5" cy="34.5" r="4.5" fill="#61402D"/>
<circle cx="154.5" cy="34.5" r="4.5" fill="#61402D"/>
<circle cx="224.5" cy="34.5" r="4.5" fill="#61402D"/>
<circle cx="234.5" cy="34.5" r="4.5" fill="#61402D"/>
<circle cx="134.5" cy="44.5" r="4.5" fill="#61402D"/>
<circle cx="144.5" cy="44.5" r="4.5" fill="#61402D"/>
<circle cx="154.5" cy="44.5" r="4.5" fill="#61402D"/>
<circle cx="164.5" cy="44.5" r="4.5" fill="#61402D"/>
<circle cx="174.5" cy="44.5" r="4.5" fill="#61402D"/>
<circle cx="184.5" cy="44.5" r="4.5" fill="#61402D"/>
<circle cx="194.5" cy="44.5" r="4.5" fill="#61402D"/>
<circle cx="204.5" cy="44.5" r="4.5" fill="#61402D"/>
<circle cx="214.5" cy="44.5" r="4.5" fill="#61402D"/>
<circle cx="224.5" cy="44.5" r="4.5" fill="#61402D"/>
<circle cx="234.5" cy="44.5" r="4.5" fill="#61402D"/>
<circle cx="244.5" cy="44.5" r="4.5" fill="#61402D"/>
<circle cx="134.5" cy="54.5" r="4.5" fill="#61402D"/>
<circle cx="144.5" cy="54.5" r="4.5" fill="#61402D"/>
<circle cx="164.5" cy="54.5" r="4.5" fill="#61402D"/>
<circle cx="174.5" cy="54.5" r="4.5" fill="#CE954C"/>
<circle cx="184.5" cy="54.5" r="4.5" fill="#CE954C"/>
<circle cx="194.5" cy="54.5" r="4.5" fill="#CE954C"/>
<circle cx="204.5" cy="54.5" r="4.5" fill="#CE954C"/>
<circle cx="214.5" cy="54.5" r="4.5" fill="#CE954C"/>
<circle cx="224.5" cy="54.5" r="4.5" fill="#CE954C"/>
<circle cx="234.5" cy="54.5" r="4.5" fill="#CE954C"/>
<circle cx="244.5" cy="54.5" r="4.5" fill="#CE954C"/>
<circle cx="254.5" cy="54.5" r="4.5" fill="#61402D"/>
<circle cx="144.5" cy="64.5" r="4.5" fill="#61402D"/>
<circle cx="154.5" cy="64.5" r="4.5" fill="#CE954C"/>
<circle cx="164.5" cy="64.5" r="4.5" fill="#CE954C"/>
<circle cx="174.5" cy="64.5" r="4.5" fill="#CE954C"/>
<circle cx="184.5" cy="64.5" r="4.5" fill="#CE954C"/>
<circle cx="194.5" cy="64.5" r="4.5" fill="#CE954C"/>
<circle cx="204.5" cy="64.5" r="4.5" fill="#CE954C"/>
<circle cx="214.5" cy="64.5" r="4.5" fill="#CE954C"/>
<circle cx="224.5" cy="64.5" r="4.5" fill="#CE954C"/>
<circle cx="234.5" cy="64.5" r="4.5" fill="#CE954C"/>
<circle cx="244.5" cy="64.5" r="4.5" fill="#CE954C"/>
<circle cx="254.5" cy="64.5" r="4.5" fill="#61402D"/>
<circle cx="264.5" cy="64.5" r="4.5" fill="#61402D"/>
<circle cx="274.5" cy="64.5" r="4.5" fill="#61402D"/>
<circle cx="144.5" cy="74.5" r="4.5" fill="#61402D"/>
<circle cx="154.5" cy="74.5" r="4.5" fill="#CE954C"/>
<circle cx="164.5" cy="74.5" r="4.5" fill="#CE954C"/>
<circle cx="174.5" cy="74.5" r="4.5" fill="#CE954C"/>
<circle cx="184.5" cy="74.5" r="4.5" fill="#61402D"/>
<circle cx="194.5" cy="74.5" r="4.5" fill="#61402D"/>
<circle cx="204.5" cy="74.5" r="4.5" fill="#CE954C"/>
<circle cx="214.5" cy="74.5" r="4.5" fill="#CE954C"/>
<circle cx="224.5" cy="74.5" r="4.5" fill="#CE954C"/>
<circle cx="234.5" cy="74.5" r="4.5" fill="#CE954C"/>
<circle cx="244.5" cy="74.5" r="4.5" fill="#CE954C"/>
<circle cx="254.5" cy="74.5" r="4.5" fill="#CE954C"/>
<circle cx="264.5" cy="74.5" r="4.5" fill="#CE954C"/>
<circle cx="274.5" cy="74.5" r="4.5" fill="#CE954C"/>
<circle cx="284.5" cy="74.5" r="4.5" fill="#61402D"/>
<circle cx="134.5" cy="84.5" r="4.5" fill="#61402D"/>
<circle cx="144.5" cy="84.5" r="4.5" fill="#CE954C"/>
<circle cx="154.5" cy="84.5" r="4.5" fill="#CE954C"/>
<circle cx="164.5" cy="84.5" r="4.5" fill="#CE954C"/>
<circle cx="174.5" cy="84.5" r="4.5" fill="#CE954C"/>
<circle cx="184.5" cy="84.5" r="4.5" fill="#61402D"/>
<circle cx="194.5" cy="84.5" r="4.5" fill="#61402D"/>
<circle cx="204.5" cy="84.5" r="4.5" fill="#CE954C"/>
<circle cx="214.5" cy="84.5" r="4.5" fill="#CE954C"/>
<circle cx="224.5" cy="84.5" r="4.5" fill="#CE954C"/>
<circle cx="234.5" cy="84.5" r="4.5" fill="#CE954C"/>
<circle cx="244.5" cy="84.5" r="4.5" fill="#CE954C"/>
<circle cx="254.5" cy="84.5" r="4.5" fill="#CE954C"/>
<circle cx="264.5" cy="84.5" r="4.5" fill="#CE954C"/>
<circle cx="274.5" cy="84.5" r="4.5" fill="#CE954C"/>
<circle cx="284.5" cy="84.5" r="4.5" fill="#CE954C"/>
<circle cx="294.5" cy="84.5" r="4.5" fill="#61402D"/>
<circle cx="134.5" cy="94.5" r="4.5" fill="#61402D"/>
<circle cx="144.5" cy="94.5" r="4.5" fill="#CE954C"/>
<circle cx="154.5" cy="94.5" r="4.5" fill="#CE954C"/>
<circle cx="164.5" cy="94.5" r="4.5" fill="#CE954C"/>
<circle cx="174.5" cy="94.5" r="4.5" fill="#CE954C"/>
<circle cx="184.5" cy="94.5" r="4.5" fill="#CE954C"/>
<circle cx="194.5" cy="94.5" r="4.5" fill="#CE954C"/>
<circle cx="204.5" cy="94.5" r="4.5" fill="#CE954C"/>
<circle cx="214.5" cy="94.5" r="4.5" fill="#CE954C"/>
<circle cx="224.5" cy="94.5" r="4.5" fill="#CE954C"/>
<circle cx="234.5" cy="94.5" r="4.5" fill="#CE954C"/>
<circle cx="244.5" cy="94.5" r="4.5" fill="#CE954C"/>
<circle cx="254.5" cy="94.5" r="4.5" fill="#61402D"/>
<circle cx="264.5" cy="94.5" r="4.5" fill="#61402D"/>
<circle cx="274.5" cy="94.5" r="4.5" fill="#61402D"/>
<circle cx="284.5" cy="94.5" r="4.5" fill="#61402D"/>
<circle cx="294.5" cy="94.5" r="4.5" fill="#61402D"/>
<circle cx="54.5" cy="104.5" r="4.5" fill="#61402D"/>
<circle cx="64.5" cy="104.5" r="4.5" fill="#61402D"/>
<circle cx="74.5" cy="104.5" r="4.5" fill="#61402D"/>
<circle cx="84.5" cy="104.5" r="4.5" fill="#61402D"/>
<circle cx="94.5" cy="104.5" r="4.5" fill="#61402D"/>
<circle cx="104.5" cy="104.5" r="4.5" fill="#61402D"/>
<circle cx="114.5" cy="104.5" r="4.5" fill="#61402D"/>
<circle cx="124.5" cy="104.5" r="4.5" fill="#61402D"/>
<circle cx="134.5" cy="104.5" r="4.5" fill="#61402D"/>
<circle cx="144.5" cy="104.5" r="4.5" fill="#CE954C"/>
<circle cx="154.5" cy="104.5" r="4.5" fill="#CE954C"/>
<circle cx="164.5" cy="104.5" r="4.5" fill="#CE954C"/>
<circle cx="174.5" cy="104.5" r="4.5" fill="#CE954C"/>
<circle cx="184.5" cy="104.5" r="4.5" fill="#CE954C"/>
<circle cx="194.5" cy="104.5" r="4.5" fill="#CE954C"/>
<circle cx="204.5" cy="104.5" r="4.5" fill="#CE954C"/>
<circle cx="214.5" cy="104.5" r="4.5" fill="#CE954C"/>
<circle cx="224.5" cy="104.5" r="4.5" fill="#CE954C"/>
<circle cx="234.5" cy="104.5" r="4.5" fill="#CE954C"/>
<circle cx="244.5" cy="104.5" r="4.5" fill="#CE954C"/>
<circle cx="254.5" cy="104.5" r="4.5" fill="#CE954C"/>
<circle cx="264.5" cy="104.5" r="4.5" fill="#61402D"/>
<circle cx="274.5" cy="104.5" r="4.5" fill="#61402D"/>
<circle cx="284.5" cy="104.5" r="4.5" fill="#CE954C"/>
<circle cx="294.5" cy="104.5" r="4.5" fill="#61402D"/>
<circle cx="34.5" cy="114.5" r="4.5" fill="#61402D"/>
<circle cx="44.5" cy="114.5" r="4.5" fill="#61402D"/>
<circle cx="54.5" cy="114.5" r="4.5" fill="#61402D"/>
<circle cx="64.5" cy="114.5" r="4.5" fill="#CE954C"/>
<circle cx="74.5" cy="114.5" r="4.5" fill="#CE954C"/>
<circle cx="84.5" cy="114.5" r="4.5" fill="#CE954C"/>
<circle cx="94.5" cy="114.5" r="4.5" fill="#CE954C"/>
<circle cx="104.5" cy="114.5" r="4.5" fill="#CE954C"/>
<circle cx="114.5" cy="114.5" r="4.5" fill="#CE954C"/>
<circle cx="124.5" cy="114.5" r="4.5" fill="#61402D"/>
<circle cx="134.5" cy="114.5" r="4.5" fill="#61402D"/>
<circle cx="144.5" cy="114.5" r="4.5" fill="#CE954C"/>
<circle cx="154.5" cy="114.5" r="4.5" fill="#CE954C"/>
<circle cx="164.5" cy="114.5" r="4.5" fill="#CE954C"/>
<circle cx="174.5" cy="114.5" r="4.5" fill="#CE954C"/>
<circle cx="184.5" cy="114.5" r="4.5" fill="#CE954C"/>
<circle cx="194.5" cy="114.5" r="4.5" fill="#CE954C"/>
<circle cx="204.5" cy="114.5" r="4.5" fill="#CE954C"/>
<circle cx="214.5" cy="114.5" r="4.5" fill="#CE954C"/>
<circle cx="224.5" cy="114.5" r="4.5" fill="#CE954C"/>
<circle cx="234.5" cy="114.5" r="4.5" fill="#CE954C"/>
<circle cx="244.5" cy="114.5" r="4.5" fill="#CE954C"/>
<circle cx="254.5" cy="114.5" r="4.5" fill="#CE954C"/>
<circle cx="264.5" cy="114.5" r="4.5" fill="#61402D"/>
<circle cx="274.5" cy="114.5" r="4.5" fill="#61402D"/>
<circle cx="284.5" cy="114.5" r="4.5" fill="#CE954C"/>
<circle cx="294.5" cy="114.5" r="4.5" fill="#61402D"/>
<circle cx="24.5" cy="124.5" r="4.5" fill="#61402D"/>
<circle cx="34.5" cy="124.5" r="4.5" fill="#61402D"/>
<circle cx="44.5" cy="124.5" r="4.5" fill="#CE954C"/>
<circle cx="54.5" cy="124.5" r="4.5" fill="#CE954C"/>
<circle cx="64.5" cy="124.5" r="4.5" fill="#CE954C"/>
<circle cx="74.5" cy="124.5" r="4.5" fill="#CE954C"/>
<circle cx="84.5" cy="124.5" r="4.5" fill="#CE954C"/>
<circle cx="94.5" cy="124.5" r="4.5" fill="#CE954C"/>
<circle cx="104.5" cy="124.5" r="4.5" fill="#CE954C"/>
<circle cx="114.5" cy="124.5" r="4.5" fill="#CE954C"/>
<circle cx="124.5" cy="124.5" r="4.5" fill="#61402D"/>
<circle cx="144.5" cy="124.5" r="4.5" fill="#61402D"/>
<circle cx="154.5" cy="124.5" r="4.5" fill="#CE954C"/>
<circle cx="164.5" cy="124.5" r="4.5" fill="#CE954C"/>
<circle cx="174.5" cy="124.5" r="4.5" fill="#CE954C"/>
<circle cx="184.5" cy="124.5" r="4.5" fill="#CE954C"/>
<circle cx="194.5" cy="124.5" r="4.5" fill="#CE954C"/>
<circle cx="204.5" cy="124.5" r="4.5" fill="#CE954C"/>
<circle cx="214.5" cy="124.5" r="4.5" fill="#CE954C"/>
<circle cx="224.5" cy="124.5" r="4.5" fill="#CE954C"/>
<circle cx="234.5" cy="124.5" r="4.5" fill="#CE954C"/>
<circle cx="244.5" cy="124.5" r="4.5" fill="#CE954C"/>
<circle cx="254.5" cy="124.5" r="4.5" fill="#CE954C"/>
<circle cx="264.5" cy="124.5" r="4.5" fill="#61402D"/>
<circle cx="274.5" cy="124.5" r="4.5" fill="#61402D"/>
<circle cx="284.5" cy="124.5" r="4.5" fill="#CE954C"/>
<circle cx="294.5" cy="124.5" r="4.5" fill="#61402D"/>
<circle cx="14.5" cy="134.5" r="4.5" fill="#61402D"/>
<circle cx="24.5" cy="134.5" r="4.5" fill="#61402D"/>
<circle cx="34.5" cy="134.5" r="4.5" fill="#CE954C"/>
<circle cx="44.5" cy="134.5" r="4.5" fill="#CE954C"/>
<circle cx="54.5" cy="134.5" r="4.5" fill="#CE954C"/>
<circle cx="64.5" cy="134.5" r="4.5" fill="#CE954C"/>
<circle cx="74.5" cy="134.5" r="4.5" fill="#CE954C"/>
<circle cx="84.5" cy="134.5" r="4.5" fill="#CE954C"/>
<circle cx="94.5" cy="134.5" r="4.5" fill="#CE954C"/>
<circle cx="104.5" cy="134.5" r="4.5" fill="#CE954C"/>
<circle cx="114.5" cy="134.5" r="4.5" fill="#CE954C"/>
<circle cx="124.5" cy="134.5" r="4.5" fill="#CE954C"/>
<circle cx="134.5" cy="134.5" r="4.5" fill="#61402D"/>
<circle cx="154.5" cy="134.5" r="4.5" fill="#61402D"/>
<circle cx="164.5" cy="134.5" r="4.5" fill="#CE954C"/>
<circle cx="174.5" cy="134.5" r="4.5" fill="#CE954C"/>
<circle cx="184.5" cy="134.5" r="4.5" fill="#CE954C"/>
<circle cx="194.5" cy="134.5" r="4.5" fill="#CE954C"/>
<circle cx="204.5" cy="134.5" r="4.5" fill="#CE954C"/>
<circle cx="214.5" cy="134.5" r="4.5" fill="#CE954C"/>
<circle cx="224.5" cy="134.5" r="4.5" fill="#CE954C"/>
<circle cx="234.5" cy="134.5" r="4.5" fill="#CE954C"/>
<circle cx="244.5" cy="134.5" r="4.5" fill="#CE954C"/>
<circle cx="254.5" cy="134.5" r="4.5" fill="#CE954C"/>
<circle cx="264.5" cy="134.5" r="4.5" fill="#61402D"/>
<circle cx="274.5" cy="134.5" r="4.5" fill="#61402D"/>
<circle cx="284.5" cy="134.5" r="4.5" fill="#61402D"/>
<circle cx="14.5" cy="144.5" r="4.5" fill="#61402D"/>
<circle cx="24.5" cy="144.5" r="4.5" fill="#CE954C"/>
<circle cx="34.5" cy="144.5" r="4.5" fill="#CE954C"/>
<circle cx="44.5" cy="144.5" r="4.5" fill="#CE954C"/>
<circle cx="54.5" cy="144.5" r="4.5" fill="#CE954C"/>
<circle cx="64.5" cy="144.5" r="4.5" fill="#CE954C"/>
<circle cx="74.5" cy="144.5" r="4.5" fill="#CE954C"/>
<circle cx="84.5" cy="144.5" r="4.5" fill="#CE954C"/>
<circle cx="94.5" cy="144.5" r="4.5" fill="#CE954C"/>
<circle cx="104.5" cy="144.5" r="4.5" fill="#CE954C"/>
<circle cx="114.5" cy="144.5" r="4.5" fill="#CE954C"/>
<circle cx="124.5" cy="144.5" r="4.5" fill="#CE954C"/>
<circle cx="134.5" cy="144.5" r="4.5" fill="#CE954C"/>
<circle cx="144.5" cy="144.5" r="4.5" fill="#61402D"/>
<circle cx="164.5" cy="144.5" r="4.5" fill="#61402D"/>
<circle cx="174.5" cy="144.5" r="4.5" fill="#CE954C"/>
<circle cx="184.5" cy="144.5" r="4.5" fill="#CE954C"/>
<circle cx="194.5" cy="144.5" r="4.5" fill="#CE954C"/>
<circle cx="204.5" cy="144.5" r="4.5" fill="#CE954C"/>
<circle cx="214.5" cy="144.5" r="4.5" fill="#CE954C"/>
<circle cx="224.5" cy="144.5" r="4.5" fill="#CE954C"/>
<circle cx="234.5" cy="144.5" r="4.5" fill="#CE954C"/>
<circle cx="244.5" cy="144.5" r="4.5" fill="#61402D"/>
<circle cx="254.5" cy="144.5" r="4.5" fill="#61402D"/>
<circle cx="4.5" cy="154.5" r="4.5" fill="#61402D"/>
<circle cx="14.5" cy="154.5" r="4.5" fill="#61402D"/>
<circle cx="24.5" cy="154.5" r="4.5" fill="#CE954C"/>
<circle cx="34.5" cy="154.5" r="4.5" fill="#CE954C"/>
<circle cx="44.5" cy="154.5" r="4.5" fill="#CE954C"/>
<circle cx="54.5" cy="154.5" r="4.5" fill="#CE954C"/>
<circle cx="64.5" cy="154.5" r="4.5" fill="#CE954C"/>
<circle cx="74.5" cy="154.5" r="4.5" fill="#CE954C"/>
<circle cx="84.5" cy="154.5" r="4.5" fill="#CE954C"/>
<circle cx="94.5" cy="154.5" r="4.5" fill="#CE954C"/>
<circle cx="104.5" cy="154.5" r="4.5" fill="#CE954C"/>
<circle cx="114.5" cy="154.5" r="4.5" fill="#CE954C"/>
<circle cx="124.5" cy="154.5" r="4.5" fill="#CE954C"/>
<circle cx="134.5" cy="154.5" r="4.5" fill="#CE954C"/>
<circle cx="144.5" cy="154.5" r="4.5" fill="#CE954C"/>
<circle cx="154.5" cy="154.5" r="4.5" fill="#61402D"/>
<circle cx="174.5" cy="154.5" r="4.5" fill="#61402D"/>
<circle cx="184.5" cy="154.5" r="4.5" fill="#CE954C"/>
<circle cx="194.5" cy="154.5" r="4.5" fill="#CE954C"/>
<circle cx="204.5" cy="154.5" r="4.5" fill="#CE954C"/>
<circle cx="214.5" cy="154.5" r="4.5" fill="#CE954C"/>
<circle cx="224.5" cy="154.5" r="4.5" fill="#CE954C"/>
<circle cx="234.5" cy="154.5" r="4.5" fill="#61402D"/>
<circle cx="254.5" cy="154.5" r="4.5" fill="#61402D"/>
<circle cx="4.5" cy="164.5" r="4.5" fill="#61402D"/>
<circle cx="14.5" cy="164.5" r="4.5" fill="#CE954C"/>
<circle cx="24.5" cy="164.5" r="4.5" fill="#CE954C"/>
<circle cx="34.5" cy="164.5" r="4.5" fill="#CE954C"/>
<circle cx="44.5" cy="164.5" r="4.5" fill="#CE954C"/>
<circle cx="54.5" cy="164.5" r="4.5" fill="#CE954C"/>
<circle cx="64.5" cy="164.5" r="4.5" fill="#CE954C"/>
<circle cx="74.5" cy="164.5" r="4.5" fill="#CE954C"/>
<circle cx="84.5" cy="164.5" r="4.5" fill="#CE954C"/>
<circle cx="94.5" cy="164.5" r="4.5" fill="#CE954C"/>
<circle cx="104.5" cy="164.5" r="4.5" fill="#CE954C"/>
<circle cx="114.5" cy="164.5" r="4.5" fill="#CE954C"/>
<circle cx="124.5" cy="164.5" r="4.5" fill="#CE954C"/>
<circle cx="134.5" cy="164.5" r="4.5" fill="#CE954C"/>
<circle cx="144.5" cy="164.5" r="4.5" fill="#CE954C"/>
<circle cx="154.5" cy="164.5" r="4.5" fill="#CE954C"/>
<circle cx="164.5" cy="164.5" r="4.5" fill="#61402D"/>
<circle cx="174.5" cy="164.5" r="4.5" fill="#61402D"/>
<circle cx="184.5" cy="164.5" r="4.5" fill="#61402D"/>
<circle cx="194.5" cy="164.5" r="4.5" fill="#61402D"/>
<circle cx="204.5" cy="164.5" r="4.5" fill="#61402D"/>
<circle cx="214.5" cy="164.5" r="4.5" fill="#61402D"/>
<circle cx="224.5" cy="164.5" r="4.5" fill="#61402D"/>
<circle cx="234.5" cy="164.5" r="4.5" fill="#61402D"/>
<circle cx="244.5" cy="164.5" r="4.5" fill="#61402D"/>
<circle cx="254.5" cy="164.5" r="4.5" fill="#61402D"/>
<circle cx="264.5" cy="164.5" r="4.5" fill="#61402D"/>
<circle cx="274.5" cy="164.5" r="4.5" fill="#61402D"/>
<circle cx="4.5" cy="174.5" r="4.5" fill="#61402D"/>
<circle cx="14.5" cy="174.5" r="4.5" fill="#CE954C"/>
<circle cx="24.5" cy="174.5" r="4.5" fill="#CE954C"/>
<circle cx="34.5" cy="174.5" r="4.5" fill="#CE954C"/>
<circle cx="44.5" cy="174.5" r="4.5" fill="#CE954C"/>
<circle cx="54.5" cy="174.5" r="4.5" fill="#CE954C"/>
<circle cx="64.5" cy="174.5" r="4.5" fill="#CE954C"/>
<circle cx="74.5" cy="174.5" r="4.5" fill="#CE954C"/>
<circle cx="84.5" cy="174.5" r="4.5" fill="#CE954C"/>
<circle cx="94.5" cy="174.5" r="4.5" fill="#CE954C"/>
<circle cx="104.5" cy="174.5" r="4.5" fill="#CE954C"/>
<circle cx="114.5" cy="174.5" r="4.5" fill="#CE954C"/>
<circle cx="124.5" cy="174.5" r="4.5" fill="#CE954C"/>
<circle cx="134.5" cy="174.5" r="4.5" fill="#CE954C"/>
<circle cx="144.5" cy="174.5" r="4.5" fill="#CE954C"/>
<circle cx="154.5" cy="174.5" r="4.5" fill="#CE954C"/>
<circle cx="164.5" cy="174.5" r="4.5" fill="#61402D"/>
<circle cx="274.5" cy="174.5" r="4.5" fill="#61402D"/>
<circle cx="4.5" cy="184.5" r="4.5" fill="#61402D"/>
<circle cx="14.5" cy="184.5" r="4.5" fill="#CE954C"/>
<circle cx="24.5" cy="184.5" r="4.5" fill="#CE954C"/>
<circle cx="34.5" cy="184.5" r="4.5" fill="#CE954C"/>
<circle cx="44.5" cy="184.5" r="4.5" fill="#CE954C"/>
<circle cx="54.5" cy="184.5" r="4.5" fill="#CE954C"/>
<circle cx="64.5" cy="184.5" r="4.5" fill="#CE954C"/>
<circle cx="74.5" cy="184.5" r="4.5" fill="#CE954C"/>
<circle cx="84.5" cy="184.5" r="4.5" fill="#CE954C"/>
<circle cx="94.5" cy="184.5" r="4.5" fill="#CE954C"/>
<circle cx="104.5" cy="184.5" r="4.5" fill="#CE954C"/>
<circle cx="114.5" cy="184.5" r="4.5" fill="#CE954C"/>
<circle cx="124.5" cy="184.5" r="4.5" fill="#CE954C"/>
<circle cx="134.5" cy="184.5" r="4.5" fill="#CE954C"/>
<circle cx="144.5" cy="184.5" r="4.5" fill="#CE954C"/>
<circle cx="154.5" cy="184.5" r="4.5" fill="#CE954C"/>
<circle cx="164.5" cy="184.5" r="4.5" fill="#61402D"/>
<circle cx="274.5" cy="184.5" r="4.5" fill="#61402D"/>
<circle cx="4.5" cy="194.5" r="4.5" fill="#61402D"/>
<circle cx="14.5" cy="194.5" r="4.5" fill="#61402D"/>
<circle cx="24.5" cy="194.5" r="4.5" fill="#CE954C"/>
<circle cx="34.5" cy="194.5" r="4.5" fill="#CE954C"/>
<circle cx="44.5" cy="194.5" r="4.5" fill="#CE954C"/>
<circle cx="54.5" cy="194.5" r="4.5" fill="#CE954C"/>
<circle cx="64.5" cy="194.5" r="4.5" fill="#61402D"/>
<circle cx="74.5" cy="194.5" r="4.5" fill="#CE954C"/>
<circle cx="84.5" cy="194.5" r="4.5" fill="#CE954C"/>
<circle cx="94.5" cy="194.5" r="4.5" fill="#CE954C"/>
<circle cx="104.5" cy="194.5" r="4.5" fill="#CE954C"/>
<circle cx="114.5" cy="194.5" r="4.5" fill="#CE954C"/>
<circle cx="124.5" cy="194.5" r="4.5" fill="#CE954C"/>
<circle cx="134.5" cy="194.5" r="4.5" fill="#CE954C"/>
<circle cx="144.5" cy="194.5" r="4.5" fill="#CE954C"/>
<circle cx="154.5" cy="194.5" r="4.5" fill="#CE954C"/>
<circle cx="164.5" cy="194.5" r="4.5" fill="#61402D"/>
<circle cx="274.5" cy="194.5" r="4.5" fill="#61402D"/>
<circle cx="14.5" cy="204.5" r="4.5" fill="#61402D"/>
<circle cx="24.5" cy="204.5" r="4.5" fill="#CE954C"/>
<circle cx="34.5" cy="204.5" r="4.5" fill="#CE954C"/>
<circle cx="44.5" cy="204.5" r="4.5" fill="#CE954C"/>
<circle cx="54.5" cy="204.5" r="4.5" fill="#CE954C"/>
<circle cx="64.5" cy="204.5" r="4.5" fill="#61402D"/>
<circle cx="74.5" cy="204.5" r="4.5" fill="#CE954C"/>
<circle cx="84.5" cy="204.5" r="4.5" fill="#CE954C"/>
<circle cx="94.5" cy="204.5" r="4.5" fill="#CE954C"/>
<circle cx="104.5" cy="204.5" r="4.5" fill="#CE954C"/>
<circle cx="114.5" cy="204.5" r="4.5" fill="#61402D"/>
<circle cx="124.5" cy="204.5" r="4.5" fill="#CE954C"/>
<circle cx="134.5" cy="204.5" r="4.5" fill="#CE954C"/>
<circle cx="144.5" cy="204.5" r="4.5" fill="#CE954C"/>
<circle cx="154.5" cy="204.5" r="4.5" fill="#CE954C"/>
<circle cx="164.5" cy="204.5" r="4.5" fill="#61402D"/>
<circle cx="175.5" cy="183.5" r="2.5" fill="#A7C7A2"/>
<circle cx="171.5" cy="189.5" r="2.5" fill="#A7C7A2"/>
<circle cx="175.5" cy="195.5" r="2.5" fill="#A7C7A2"/>
<circle cx="2.5" cy="2.5" r="2.5" transform="matrix(-1 0 0 1 265 181)" fill="#A7C7A2"/>
<circle cx="2.5" cy="2.5" r="2.5" transform="matrix(-1 0 0 1 269 187)" fill="#A7C7A2"/>
<circle cx="2.5" cy="2.5" r="2.5" transform="matrix(-1 0 0 1 265 193)" fill="#A7C7A2"/>
<circle cx="274.5" cy="204.5" r="4.5" fill="#61402D"/>
<circle cx="14.5" cy="214.5" r="4.5" fill="#61402D"/>
<circle cx="24.5" cy="214.5" r="4.5" fill="#CE954C"/>
<circle cx="34.5" cy="214.5" r="4.5" fill="#CE954C"/>
<circle cx="44.5" cy="214.5" r="4.5" fill="#CE954C"/>
<circle cx="54.5" cy="214.5" r="4.5" fill="#CE954C"/>
<circle cx="64.5" cy="214.5" r="4.5" fill="#61402D"/>
<circle cx="74.5" cy="214.5" r="4.5" fill="#CE954C"/>
<circle cx="84.5" cy="214.5" r="4.5" fill="#CE954C"/>
<circle cx="94.5" cy="214.5" r="4.5" fill="#CE954C"/>
<circle cx="104.5" cy="214.5" r="4.5" fill="#CE954C"/>
<circle cx="114.5" cy="214.5" r="4.5" fill="#61402D"/>
<circle cx="124.5" cy="214.5" r="4.5" fill="#CE954C"/>
<circle cx="134.5" cy="214.5" r="4.5" fill="#CE954C"/>
<circle cx="144.5" cy="214.5" r="4.5" fill="#CE954C"/>
<circle cx="154.5" cy="214.5" r="4.5" fill="#CE954C"/>
<circle cx="164.5" cy="214.5" r="4.5" fill="#61402D"/>
<circle cx="174.5" cy="214.5" r="4.5" fill="#61402D"/>
<circle cx="184.5" cy="214.5" r="4.5" fill="#61402D"/>
<circle cx="194.5" cy="214.5" r="4.5" fill="#61402D"/>
<circle cx="204.5" cy="214.5" r="4.5" fill="#61402D"/>
<circle cx="214.5" cy="214.5" r="4.5" fill="#61402D"/>
<circle cx="224.5" cy="214.5" r="4.5" fill="#61402D"/>
<circle cx="234.5" cy="214.5" r="4.5" fill="#61402D"/>
<circle cx="244.5" cy="214.5" r="4.5" fill="#61402D"/>
<circle cx="254.5" cy="214.5" r="4.5" fill="#61402D"/>
<circle cx="264.5" cy="214.5" r="4.5" fill="#61402D"/>
<circle cx="274.5" cy="214.5" r="4.5" fill="#61402D"/>
<circle cx="24.5" cy="224.5" r="4.5" fill="#61402D"/>
<circle cx="34.5" cy="224.5" r="4.5" fill="#CE954C"/>
<circle cx="44.5" cy="224.5" r="4.5" fill="#CE954C"/>
<circle cx="54.5" cy="224.5" r="4.5" fill="#CE954C"/>
<circle cx="64.5" cy="224.5" r="4.5" fill="#61402D"/>
<circle cx="74.5" cy="224.5" r="4.5" fill="#CE954C"/>
<circle cx="84.5" cy="224.5" r="4.5" fill="#CE954C"/>
<circle cx="94.5" cy="224.5" r="4.5" fill="#CE954C"/>
<circle cx="104.5" cy="224.5" r="4.5" fill="#CE954C"/>
<circle cx="114.5" cy="224.5" r="4.5" fill="#61402D"/>
<circle cx="124.5" cy="224.5" r="4.5" fill="#61402D"/>
<circle cx="134.5" cy="224.5" r="4.5" fill="#CE954C"/>
<circle cx="144.5" cy="224.5" r="4.5" fill="#CE954C"/>
<circle cx="154.5" cy="224.5" r="4.5" fill="#CE954C"/>
<circle cx="164.5" cy="224.5" r="4.5" fill="#CE954C"/>
<circle cx="174.5" cy="224.5" r="4.5" fill="#CE954C"/>
<circle cx="184.5" cy="224.5" r="4.5" fill="#CE954C"/>
<circle cx="194.5" cy="224.5" r="4.5" fill="#CE954C"/>
<circle cx="204.5" cy="224.5" r="4.5" fill="#CE954C"/>
<circle cx="214.5" cy="224.5" r="4.5" fill="#CE954C"/>
<circle cx="224.5" cy="224.5" r="4.5" fill="#61402D"/>
<circle cx="234.5" cy="224.5" r="4.5" fill="#61402D"/>
<circle cx="24.5" cy="234.5" r="4.5" fill="#61402D"/>
<circle cx="34.5" cy="234.5" r="4.5" fill="#CE954C"/>
<circle cx="44.5" cy="234.5" r="4.5" fill="#CE954C"/>
<circle cx="54.5" cy="234.5" r="4.5" fill="#61402D"/>
<circle cx="64.5" cy="234.5" r="4.5" fill="#61402D"/>
<circle cx="74.5" cy="234.5" r="4.5" fill="#CE954C"/>
<circle cx="84.5" cy="234.5" r="4.5" fill="#CE954C"/>
<circle cx="94.5" cy="234.5" r="4.5" fill="#CE954C"/>
<circle cx="104.5" cy="234.5" r="4.5" fill="#CE954C"/>
<circle cx="114.5" cy="234.5" r="4.5" fill="#CE954C"/>
<circle cx="124.5" cy="234.5" r="4.5" fill="#61402D"/>
<circle cx="134.5" cy="234.5" r="4.5" fill="#CE954C"/>
<circle cx="144.5" cy="234.5" r="4.5" fill="#CE954C"/>
<circle cx="154.5" cy="234.5" r="4.5" fill="#CE954C"/>
<circle cx="164.5" cy="234.5" r="4.5" fill="#61402D"/>
<circle cx="174.5" cy="234.5" r="4.5" fill="#CE954C"/>
<circle cx="184.5" cy="234.5" r="4.5" fill="#CE954C"/>
<circle cx="194.5" cy="234.5" r="4.5" fill="#CE954C"/>
<circle cx="204.5" cy="234.5" r="4.5" fill="#CE954C"/>
<circle cx="214.5" cy="234.5" r="4.5" fill="#61402D"/>
<circle cx="224.5" cy="234.5" r="4.5" fill="#61402D"/>
<circle cx="24.5" cy="244.5" r="4.5" fill="#61402D"/>
<circle cx="34.5" cy="244.5" r="4.5" fill="#CE954C"/>
<circle cx="44.5" cy="244.5" r="4.5" fill="#61402D"/>
<circle cx="54.5" cy="244.5" r="4.5" fill="#61402D"/>
<circle cx="64.5" cy="244.5" r="4.5" fill="#61402D"/>
<circle cx="74.5" cy="244.5" r="4.5" fill="#61402D"/>
<circle cx="84.5" cy="244.5" r="4.5" fill="#61402D"/>
<circle cx="94.5" cy="244.5" r="4.5" fill="#61402D"/>
<circle cx="104.5" cy="244.5" r="4.5" fill="#61402D"/>
<circle cx="114.5" cy="244.5" r="4.5" fill="#61402D"/>
<circle cx="124.5" cy="244.5" r="4.5" fill="#61402D"/>
<circle cx="134.5" cy="244.5" r="4.5" fill="#CE954C"/>
<circle cx="144.5" cy="244.5" r="4.5" fill="#CE954C"/>
<circle cx="154.5" cy="244.5" r="4.5" fill="#CE954C"/>
<circle cx="164.5" cy="244.5" r="4.5" fill="#61402D"/>
<circle cx="174.5" cy="244.5" r="4.5" fill="#61402D"/>
<circle cx="184.5" cy="244.5" r="4.5" fill="#61402D"/>
<circle cx="194.5" cy="244.5" r="4.5" fill="#CE954C"/>
<circle cx="204.5" cy="244.5" r="4.5" fill="#CE954C"/>
<circle cx="214.5" cy="244.5" r="4.5" fill="#61402D"/>
<circle cx="24.5" cy="254.5" r="4.5" fill="#61402D"/>
<circle cx="34.5" cy="254.5" r="4.5" fill="#CE954C"/>
<circle cx="44.5" cy="254.5" r="4.5" fill="#61402D"/>
<circle cx="74.5" cy="254.5" r="4.5" fill="#61402D"/>
<circle cx="84.5" cy="254.5" r="4.5" fill="#CE954C"/>
<circle cx="94.5" cy="254.5" r="4.5" fill="#61402D"/>
<circle cx="124.5" cy="254.5" r="4.5" fill="#61402D"/>
<circle cx="134.5" cy="254.5" r="4.5" fill="#CE954C"/>
<circle cx="144.5" cy="254.5" r="4.5" fill="#CE954C"/>
<circle cx="154.5" cy="254.5" r="4.5" fill="#CE954C"/>
<circle cx="164.5" cy="254.5" r="4.5" fill="#61402D"/>
<circle cx="184.5" cy="254.5" r="4.5" fill="#61402D"/>
<circle cx="194.5" cy="254.5" r="4.5" fill="#CE954C"/>
<circle cx="204.5" cy="254.5" r="4.5" fill="#CE954C"/>
<circle cx="214.5" cy="254.5" r="4.5" fill="#61402D"/>
<circle cx="24.5" cy="264.5" r="4.5" fill="#61402D"/>
<circle cx="34.5" cy="264.5" r="4.5" fill="#61402D"/>
<circle cx="44.5" cy="264.5" r="4.5" fill="#61402D"/>
<circle cx="54.5" cy="264.5" r="4.5" fill="#61402D"/>
<circle cx="74.5" cy="264.5" r="4.5" fill="#61402D"/>
<circle cx="84.5" cy="264.5" r="4.5" fill="#61402D"/>
<circle cx="94.5" cy="264.5" r="4.5" fill="#61402D"/>
<circle cx="104.5" cy="264.5" r="4.5" fill="#61402D"/>
<circle cx="124.5" cy="264.5" r="4.5" fill="#61402D"/>
<circle cx="134.5" cy="264.5" r="4.5" fill="#61402D"/>
<circle cx="144.5" cy="264.5" r="4.5" fill="#61402D"/>
<circle cx="154.5" cy="264.5" r="4.5" fill="#61402D"/>
<circle cx="164.5" cy="264.5" r="4.5" fill="#61402D"/>
<circle cx="184.5" cy="264.5" r="4.5" fill="#61402D"/>
<circle cx="194.5" cy="264.5" r="4.5" fill="#61402D"/>
<circle cx="204.5" cy="264.5" r="4.5" fill="#61402D"/>
<circle cx="214.5" cy="264.5" r="4.5" fill="#61402D"/>
<circle cx="224.5" cy="264.5" r="4.5" fill="#61402D"/>
<circle cx="24.5" cy="274.5" r="4.5" fill="#61402D"/>
<circle cx="34.5" cy="274.5" r="4.5" fill="#61402D"/>
<circle cx="44.5" cy="274.5" r="4.5" fill="#61402D"/>
<circle cx="54.5" cy="274.5" r="4.5" fill="#61402D"/>
<circle cx="64.5" cy="274.5" r="4.5" fill="#61402D"/>
<circle cx="74.5" cy="274.5" r="4.5" fill="#61402D"/>
<circle cx="84.5" cy="274.5" r="4.5" fill="#61402D"/>
<circle cx="94.5" cy="274.5" r="4.5" fill="#61402D"/>
<circle cx="104.5" cy="274.5" r="4.5" fill="#61402D"/>
<circle cx="124.5" cy="274.5" r="4.5" fill="#61402D"/>
<circle cx="134.5" cy="274.5" r="4.5" fill="#61402D"/>
<circle cx="144.5" cy="274.5" r="4.5" fill="#61402D"/>
<circle cx="154.5" cy="274.5" r="4.5" fill="#61402D"/>
<circle cx="164.5" cy="274.5" r="4.5" fill="#61402D"/>
<circle cx="184.5" cy="274.5" r="4.5" fill="#61402D"/>
<circle cx="194.5" cy="274.5" r="4.5" fill="#61402D"/>
<circle cx="204.5" cy="274.5" r="4.5" fill="#61402D"/>
<circle cx="214.5" cy="274.5" r="4.5" fill="#61402D"/>
<circle cx="224.5" cy="274.5" r="4.5" fill="#61402D"/>
<circle cx="234.5" cy="274.5" r="4.5" fill="#61402D"/>
<circle cx="4.5" cy="284.5" r="4.5" fill="#A7C7A2"/>
<circle cx="14.5" cy="284.5" r="4.5" fill="#A7C7A2"/>
<circle cx="24.5" cy="284.5" r="4.5" fill="#A7C7A2"/>
<circle cx="34.5" cy="284.5" r="4.5" fill="#A7C7A2"/>
<circle cx="44.5" cy="284.5" r="4.5" fill="#A7C7A2"/>
<circle cx="54.5" cy="284.5" r="4.5" fill="#A7C7A2"/>
<circle cx="64.5" cy="284.5" r="4.5" fill="#A7C7A2"/>
<circle cx="74.5" cy="284.5" r="4.5" fill="#A7C7A2"/>
<circle cx="84.5" cy="284.5" r="4.5" fill="#A7C7A2"/>
<circle cx="94.5" cy="284.5" r="4.5" fill="#A7C7A2"/>
<circle cx="104.5" cy="284.5" r="4.5" fill="#A7C7A2"/>
<circle cx="114.5" cy="284.5" r="4.5" fill="#A7C7A2"/>
<circle cx="124.5" cy="284.5" r="4.5" fill="#A7C7A2"/>
<circle cx="134.5" cy="284.5" r="4.5" fill="#A7C7A2"/>
<circle cx="144.5" cy="284.5" r="4.5" fill="#A7C7A2"/>
<circle cx="154.5" cy="284.5" r="4.5" fill="#A7C7A2"/>
<circle cx="164.5" cy="284.5" r="4.5" fill="#A7C7A2"/>
<circle cx="174.5" cy="284.5" r="4.5" fill="#A7C7A2"/>
<circle cx="184.5" cy="284.5" r="4.5" fill="#A7C7A2"/>
<circle cx="194.5" cy="284.5" r="4.5" fill="#A7C7A2"/>
<circle cx="204.5" cy="284.5" r="4.5" fill="#A7C7A2"/>
<circle cx="214.5" cy="284.5" r="4.5" fill="#A7C7A2"/>
<circle cx="224.5" cy="284.5" r="4.5" fill="#A7C7A2"/>
<circle cx="234.5" cy="284.5" r="4.5" fill="#A7C7A2"/>
<circle cx="244.5" cy="284.5" r="4.5" fill="#A7C7A2"/>
<circle cx="254.5" cy="284.5" r="4.5" fill="#A7C7A2"/>
<circle cx="264.5" cy="284.5" r="4.5" fill="#A7C7A2"/>
<path d="M181.165 199.964L181.129 200H181.093C180.877 200 180.673 199.976 180.481 199.928C180.313 199.856 180.157 199.772 180.013 199.676C179.869 199.556 179.737 199.424 179.617 199.28C179.521 199.136 179.437 198.98 179.365 198.812C179.317 198.62 179.293 198.416 179.293 198.2V198.164L179.329 198.128H181.165V199.964ZM181.021 199.964V198.128H182.857L182.893 198.164V198.2C182.893 198.416 182.857 198.62 182.785 198.812C182.737 198.98 182.653 199.136 182.533 199.28C182.437 199.424 182.317 199.556 182.173 199.676C182.029 199.772 181.861 199.856 181.669 199.928C181.501 199.976 181.309 200 181.093 200H181.057L181.021 199.964ZM181.021 196.436L181.057 196.4H181.093C181.309 196.4 181.501 196.436 181.669 196.508C181.861 196.556 182.029 196.64 182.173 196.76C182.317 196.856 182.437 196.976 182.533 197.12C182.653 197.264 182.737 197.432 182.785 197.624C182.857 197.792 182.893 197.984 182.893 198.2V198.236L182.857 198.272H181.021V196.436ZM181.165 196.436V198.272H179.329L179.293 198.236V198.2C179.293 197.984 179.317 197.792 179.365 197.624C179.437 197.432 179.521 197.264 179.617 197.12C179.737 196.976 179.869 196.856 180.013 196.76C180.157 196.64 180.313 196.556 180.481 196.508C180.673 196.436 180.877 196.4 181.093 196.4H181.129L181.165 196.436ZM181.165 196.364L181.129 196.4H181.093C180.877 196.4 180.673 196.376 180.481 196.328C180.313 196.256 180.157 196.172 180.013 196.076C179.869 195.956 179.737 195.824 179.617 195.68C179.521 195.536 179.437 195.38 179.365 195.212C179.317 195.02 179.293 194.816 179.293 194.6V194.564L179.329 194.528H181.165V196.364ZM181.021 196.364V194.528H182.857L182.893 194.564V194.6C182.893 194.816 182.857 195.02 182.785 195.212C182.737 195.38 182.653 195.536 182.533 195.68C182.437 195.824 182.317 195.956 182.173 196.076C182.029 196.172 181.861 196.256 181.669 196.328C181.501 196.376 181.309 196.4 181.093 196.4H181.057L181.021 196.364ZM181.021 192.836L181.057 192.8H181.093C181.309 192.8 181.501 192.836 181.669 192.908C181.861 192.956 182.029 193.04 182.173 193.16C182.317 193.256 182.437 193.376 182.533 193.52C182.653 193.664 182.737 193.832 182.785 194.024C182.857 194.192 182.893 194.384 182.893 194.6V194.636L182.857 194.672H181.021V192.836ZM181.165 192.836V194.672H179.329L179.293 194.636V194.6C179.293 194.384 179.317 194.192 179.365 194.024C179.437 193.832 179.521 193.664 179.617 193.52C179.737 193.376 179.869 193.256 180.013 193.16C180.157 193.04 180.313 192.956 180.481 192.908C180.673 192.836 180.877 192.8 181.093 192.8H181.129L181.165 192.836ZM181.165 192.764L181.129 192.8H181.093C180.877 192.8 180.673 192.776 180.481 192.728C180.313 192.656 180.157 192.572 180.013 192.476C179.869 192.356 179.737 192.224 179.617 192.08C179.521 191.936 179.437 191.78 179.365 191.612C179.317 191.42 179.293 191.216 179.293 191V190.964L179.329 190.928H181.165V192.764ZM181.021 192.764V190.928H182.857L182.893 190.964V191C182.893 191.216 182.857 191.42 182.785 191.612C182.737 191.78 182.653 191.936 182.533 192.08C182.437 192.224 182.317 192.356 182.173 192.476C182.029 192.572 181.861 192.656 181.669 192.728C181.501 192.776 181.309 192.8 181.093 192.8H181.057L181.021 192.764ZM181.021 189.236L181.057 189.2H181.093C181.309 189.2 181.501 189.236 181.669 189.308C181.861 189.356 182.029 189.44 182.173 189.56C182.317 189.656 182.437 189.776 182.533 189.92C182.653 190.064 182.737 190.232 182.785 190.424C182.857 190.592 182.893 190.784 182.893 191V191.036L182.857 191.072H181.021V189.236ZM181.165 189.236V191.072H179.329L179.293 191.036V191C179.293 190.784 179.317 190.592 179.365 190.424C179.437 190.232 179.521 190.064 179.617 189.92C179.737 189.776 179.869 189.656 180.013 189.56C180.157 189.44 180.313 189.356 180.481 189.308C180.673 189.236 180.877 189.2 181.093 189.2H181.129L181.165 189.236ZM181.165 189.164L181.129 189.2H181.093C180.877 189.2 180.673 189.176 180.481 189.128C180.313 189.056 180.157 188.972 180.013 188.876C179.869 188.756 179.737 188.624 179.617 188.48C179.521 188.336 179.437 188.18 179.365 188.012C179.317 187.82 179.293 187.616 179.293 187.4V187.364L179.329 187.328H181.165V189.164ZM181.021 189.164V187.328H182.857L182.893 187.364V187.4C182.893 187.616 182.857 187.82 182.785 188.012C182.737 188.18 182.653 188.336 182.533 188.48C182.437 188.624 182.317 188.756 182.173 188.876C182.029 188.972 181.861 189.056 181.669 189.128C181.501 189.176 181.309 189.2 181.093 189.2H181.057L181.021 189.164ZM181.021 185.636L181.057 185.6H181.093C181.309 185.6 181.501 185.636 181.669 185.708C181.861 185.756 182.029 185.84 182.173 185.96C182.317 186.056 182.437 186.176 182.533 186.32C182.653 186.464 182.737 186.632 182.785 186.824C182.857 186.992 182.893 187.184 182.893 187.4V187.436L182.857 187.472H181.021V185.636ZM181.165 185.636V187.472H179.329L179.293 187.436V187.4C179.293 187.184 179.317 186.992 179.365 186.824C179.437 186.632 179.521 186.464 179.617 186.32C179.737 186.176 179.869 186.056 180.013 185.96C180.157 185.84 180.313 185.756 180.481 185.708C180.673 185.636 180.877 185.6 181.093 185.6H181.129L181.165 185.636ZM181.165 185.564L181.129 185.6H181.093C180.877 185.6 180.673 185.576 180.481 185.528C180.313 185.456 180.157 185.372 180.013 185.276C179.869 185.156 179.737 185.024 179.617 184.88C179.521 184.736 179.437 184.58 179.365 184.412C179.317 184.22 179.293 184.016 179.293 183.8V183.764L179.329 183.728H181.165V185.564ZM181.021 185.564V183.728H182.857L182.893 183.764V183.8C182.893 184.016 182.857 184.22 182.785 184.412C182.737 184.58 182.653 184.736 182.533 184.88C182.437 185.024 182.317 185.156 182.173 185.276C182.029 185.372 181.861 185.456 181.669 185.528C181.501 185.576 181.309 185.6 181.093 185.6H181.057L181.021 185.564ZM181.021 182.036L181.057 182H181.093C181.309 182 181.501 182.036 181.669 182.108C181.861 182.156 182.029 182.24 182.173 182.36C182.317 182.456 182.437 182.576 182.533 182.72C182.653 182.864 182.737 183.032 182.785 183.224C182.857 183.392 182.893 183.584 182.893 183.8V183.836L182.857 183.872H181.021V182.036ZM181.165 182.036V183.872H179.329L179.293 183.836V183.8C179.293 183.584 179.317 183.392 179.365 183.224C179.437 183.032 179.521 182.864 179.617 182.72C179.737 182.576 179.869 182.456 180.013 182.36C180.157 182.24 180.313 182.156 180.481 182.108C180.673 182.036 180.877 182 181.093 182H181.129L181.165 182.036ZM181.165 181.964L181.129 182H181.093C180.877 182 180.673 181.976 180.481 181.928C180.313 181.856 180.157 181.772 180.013 181.676C179.869 181.556 179.737 181.424 179.617 181.28C179.521 181.136 179.437 180.98 179.365 180.812C179.317 180.62 179.293 180.416 179.293 180.2V180.164L179.329 180.128H181.165V181.964ZM181.021 181.964V180.128H182.857L182.893 180.164V180.2C182.893 180.416 182.857 180.62 182.785 180.812C182.737 180.98 182.653 181.136 182.533 181.28C182.437 181.424 182.317 181.556 182.173 181.676C182.029 181.772 181.861 181.856 181.669 181.928C181.501 181.976 181.309 182 181.093 182H181.057L181.021 181.964ZM181.021 178.436L181.057 178.4H181.093C181.309 178.4 181.501 178.436 181.669 178.508C181.861 178.556 182.029 178.64 182.173 178.76C182.317 178.856 182.437 178.976 182.533 179.12C182.653 179.264 182.737 179.432 182.785 179.624C182.857 179.792 182.893 179.984 182.893 180.2V180.236L182.857 180.272H181.021V178.436ZM181.165 178.436V180.272H179.329L179.293 180.236V180.2C179.293 179.984 179.317 179.792 179.365 179.624C179.437 179.432 179.521 179.264 179.617 179.12C179.737 178.976 179.869 178.856 180.013 178.76C180.157 178.64 180.313 178.556 180.481 178.508C180.673 178.436 180.877 178.4 181.093 178.4H181.129L181.165 178.436ZM184.765 199.964L184.729 200H184.693C184.477 200 184.273 199.976 184.081 199.928C183.913 199.856 183.757 199.772 183.613 199.676C183.469 199.556 183.337 199.424 183.217 199.28C183.121 199.136 183.037 198.98 182.965 198.812C182.917 198.62 182.893 198.416 182.893 198.2V198.164L182.929 198.128H184.765V199.964ZM184.621 199.964V198.128H186.457L186.493 198.164V198.2C186.493 198.416 186.457 198.62 186.385 198.812C186.337 198.98 186.253 199.136 186.133 199.28C186.037 199.424 185.917 199.556 185.773 199.676C185.629 199.772 185.461 199.856 185.269 199.928C185.101 199.976 184.909 200 184.693 200H184.657L184.621 199.964ZM184.621 196.436L184.657 196.4H184.693C184.909 196.4 185.101 196.436 185.269 196.508C185.461 196.556 185.629 196.64 185.773 196.76C185.917 196.856 186.037 196.976 186.133 197.12C186.253 197.264 186.337 197.432 186.385 197.624C186.457 197.792 186.493 197.984 186.493 198.2V198.236L186.457 198.272H184.621V196.436ZM184.765 196.436V198.272H182.929L182.893 198.236V198.2C182.893 197.984 182.917 197.792 182.965 197.624C183.037 197.432 183.121 197.264 183.217 197.12C183.337 196.976 183.469 196.856 183.613 196.76C183.757 196.64 183.913 196.556 184.081 196.508C184.273 196.436 184.477 196.4 184.693 196.4H184.729L184.765 196.436ZM184.765 181.964L184.729 182H184.693C184.477 182 184.273 181.976 184.081 181.928C183.913 181.856 183.757 181.772 183.613 181.676C183.469 181.556 183.337 181.424 183.217 181.28C183.121 181.136 183.037 180.98 182.965 180.812C182.917 180.62 182.893 180.416 182.893 180.2V180.164L182.929 180.128H184.765V181.964ZM184.621 181.964V180.128H186.457L186.493 180.164V180.2C186.493 180.416 186.457 180.62 186.385 180.812C186.337 180.98 186.253 181.136 186.133 181.28C186.037 181.424 185.917 181.556 185.773 181.676C185.629 181.772 185.461 181.856 185.269 181.928C185.101 181.976 184.909 182 184.693 182H184.657L184.621 181.964ZM184.621 178.436L184.657 178.4H184.693C184.909 178.4 185.101 178.436 185.269 178.508C185.461 178.556 185.629 178.64 185.773 178.76C185.917 178.856 186.037 178.976 186.133 179.12C186.253 179.264 186.337 179.432 186.385 179.624C186.457 179.792 186.493 179.984 186.493 180.2V180.236L186.457 180.272H184.621V178.436ZM184.765 178.436V180.272H182.929L182.893 180.236V180.2C182.893 179.984 182.917 179.792 182.965 179.624C183.037 179.432 183.121 179.264 183.217 179.12C183.337 178.976 183.469 178.856 183.613 178.76C183.757 178.64 183.913 178.556 184.081 178.508C184.273 178.436 184.477 178.4 184.693 178.4H184.729L184.765 178.436ZM188.365 199.964L188.329 200H188.293C188.077 200 187.873 199.976 187.681 199.928C187.513 199.856 187.357 199.772 187.213 199.676C187.069 199.556 186.937 199.424 186.817 199.28C186.721 199.136 186.637 198.98 186.565 198.812C186.517 198.62 186.493 198.416 186.493 198.2V198.164L186.529 198.128H188.365V199.964ZM188.221 199.964V198.128H190.057L190.093 198.164V198.2C190.093 198.416 190.057 198.62 189.985 198.812C189.937 198.98 189.853 199.136 189.733 199.28C189.637 199.424 189.517 199.556 189.373 199.676C189.229 199.772 189.061 199.856 188.869 199.928C188.701 199.976 188.509 200 188.293 200H188.257L188.221 199.964ZM188.221 196.436L188.257 196.4H188.293C188.509 196.4 188.701 196.436 188.869 196.508C189.061 196.556 189.229 196.64 189.373 196.76C189.517 196.856 189.637 196.976 189.733 197.12C189.853 197.264 189.937 197.432 189.985 197.624C190.057 197.792 190.093 197.984 190.093 198.2V198.236L190.057 198.272H188.221V196.436ZM188.365 196.436V198.272H186.529L186.493 198.236V198.2C186.493 197.984 186.517 197.792 186.565 197.624C186.637 197.432 186.721 197.264 186.817 197.12C186.937 196.976 187.069 196.856 187.213 196.76C187.357 196.64 187.513 196.556 187.681 196.508C187.873 196.436 188.077 196.4 188.293 196.4H188.329L188.365 196.436ZM188.365 181.964L188.329 182H188.293C188.077 182 187.873 181.976 187.681 181.928C187.513 181.856 187.357 181.772 187.213 181.676C187.069 181.556 186.937 181.424 186.817 181.28C186.721 181.136 186.637 180.98 186.565 180.812C186.517 180.62 186.493 180.416 186.493 180.2V180.164L186.529 180.128H188.365V181.964ZM188.221 181.964V180.128H190.057L190.093 180.164V180.2C190.093 180.416 190.057 180.62 189.985 180.812C189.937 180.98 189.853 181.136 189.733 181.28C189.637 181.424 189.517 181.556 189.373 181.676C189.229 181.772 189.061 181.856 188.869 181.928C188.701 181.976 188.509 182 188.293 182H188.257L188.221 181.964ZM188.221 178.436L188.257 178.4H188.293C188.509 178.4 188.701 178.436 188.869 178.508C189.061 178.556 189.229 178.64 189.373 178.76C189.517 178.856 189.637 178.976 189.733 179.12C189.853 179.264 189.937 179.432 189.985 179.624C190.057 179.792 190.093 179.984 190.093 180.2V180.236L190.057 180.272H188.221V178.436ZM188.365 178.436V180.272H186.529L186.493 180.236V180.2C186.493 179.984 186.517 179.792 186.565 179.624C186.637 179.432 186.721 179.264 186.817 179.12C186.937 178.976 187.069 178.856 187.213 178.76C187.357 178.64 187.513 178.556 187.681 178.508C187.873 178.436 188.077 178.4 188.293 178.4H188.329L188.365 178.436ZM191.965 199.964L191.929 200H191.893C191.677 200 191.473 199.976 191.281 199.928C191.113 199.856 190.957 199.772 190.813 199.676C190.669 199.556 190.537 199.424 190.417 199.28C190.321 199.136 190.237 198.98 190.165 198.812C190.117 198.62 190.093 198.416 190.093 198.2V198.164L190.129 198.128H191.965V199.964ZM191.821 199.964V198.128H193.657L193.693 198.164V198.2C193.693 198.416 193.657 198.62 193.585 198.812C193.537 198.98 193.453 199.136 193.333 199.28C193.237 199.424 193.117 199.556 192.973 199.676C192.829 199.772 192.661 199.856 192.469 199.928C192.301 199.976 192.109 200 191.893 200H191.857L191.821 199.964ZM191.821 196.436L191.857 196.4H191.893C192.109 196.4 192.301 196.436 192.469 196.508C192.661 196.556 192.829 196.64 192.973 196.76C193.117 196.856 193.237 196.976 193.333 197.12C193.453 197.264 193.537 197.432 193.585 197.624C193.657 197.792 193.693 197.984 193.693 198.2V198.236L193.657 198.272H191.821V196.436ZM191.965 196.436V198.272H190.129L190.093 198.236V198.2C190.093 197.984 190.117 197.792 190.165 197.624C190.237 197.432 190.321 197.264 190.417 197.12C190.537 196.976 190.669 196.856 190.813 196.76C190.957 196.64 191.113 196.556 191.281 196.508C191.473 196.436 191.677 196.4 191.893 196.4H191.929L191.965 196.436ZM191.965 181.964L191.929 182H191.893C191.677 182 191.473 181.976 191.281 181.928C191.113 181.856 190.957 181.772 190.813 181.676C190.669 181.556 190.537 181.424 190.417 181.28C190.321 181.136 190.237 180.98 190.165 180.812C190.117 180.62 190.093 180.416 190.093 180.2V180.164L190.129 180.128H191.965V181.964ZM191.821 181.964V180.128H193.657L193.693 180.164V180.2C193.693 180.416 193.657 180.62 193.585 180.812C193.537 180.98 193.453 181.136 193.333 181.28C193.237 181.424 193.117 181.556 192.973 181.676C192.829 181.772 192.661 181.856 192.469 181.928C192.301 181.976 192.109 182 191.893 182H191.857L191.821 181.964ZM191.821 178.436L191.857 178.4H191.893C192.109 178.4 192.301 178.436 192.469 178.508C192.661 178.556 192.829 178.64 192.973 178.76C193.117 178.856 193.237 178.976 193.333 179.12C193.453 179.264 193.537 179.432 193.585 179.624C193.657 179.792 193.693 179.984 193.693 180.2V180.236L193.657 180.272H191.821V178.436ZM191.965 178.436V180.272H190.129L190.093 180.236V180.2C190.093 179.984 190.117 179.792 190.165 179.624C190.237 179.432 190.321 179.264 190.417 179.12C190.537 178.976 190.669 178.856 190.813 178.76C190.957 178.64 191.113 178.556 191.281 178.508C191.473 178.436 191.677 178.4 191.893 178.4H191.929L191.965 178.436ZM195.565 196.364L195.529 196.4H195.493C195.277 196.4 195.073 196.376 194.881 196.328C194.713 196.256 194.557 196.172 194.413 196.076C194.269 195.956 194.137 195.824 194.017 195.68C193.921 195.536 193.837 195.38 193.765 195.212C193.717 195.02 193.693 194.816 193.693 194.6V194.564L193.729 194.528H195.565V196.364ZM195.421 196.364V194.528H197.257L197.293 194.564V194.6C197.293 194.816 197.257 195.02 197.185 195.212C197.137 195.38 197.053 195.536 196.933 195.68C196.837 195.824 196.717 195.956 196.573 196.076C196.429 196.172 196.261 196.256 196.069 196.328C195.901 196.376 195.709 196.4 195.493 196.4H195.457L195.421 196.364ZM195.421 192.836L195.457 192.8H195.493C195.709 192.8 195.901 192.836 196.069 192.908C196.261 192.956 196.429 193.04 196.573 193.16C196.717 193.256 196.837 193.376 196.933 193.52C197.053 193.664 197.137 193.832 197.185 194.024C197.257 194.192 197.293 194.384 197.293 194.6V194.636L197.257 194.672H195.421V192.836ZM195.565 192.836V194.672H193.729L193.693 194.636V194.6C193.693 194.384 193.717 194.192 193.765 194.024C193.837 193.832 193.921 193.664 194.017 193.52C194.137 193.376 194.269 193.256 194.413 193.16C194.557 193.04 194.713 192.956 194.881 192.908C195.073 192.836 195.277 192.8 195.493 192.8H195.529L195.565 192.836ZM195.565 192.764L195.529 192.8H195.493C195.277 192.8 195.073 192.776 194.881 192.728C194.713 192.656 194.557 192.572 194.413 192.476C194.269 192.356 194.137 192.224 194.017 192.08C193.921 191.936 193.837 191.78 193.765 191.612C193.717 191.42 193.693 191.216 193.693 191V190.964L193.729 190.928H195.565V192.764ZM195.421 192.764V190.928H197.257L197.293 190.964V191C197.293 191.216 197.257 191.42 197.185 191.612C197.137 191.78 197.053 191.936 196.933 192.08C196.837 192.224 196.717 192.356 196.573 192.476C196.429 192.572 196.261 192.656 196.069 192.728C195.901 192.776 195.709 192.8 195.493 192.8H195.457L195.421 192.764ZM195.421 189.236L195.457 189.2H195.493C195.709 189.2 195.901 189.236 196.069 189.308C196.261 189.356 196.429 189.44 196.573 189.56C196.717 189.656 196.837 189.776 196.933 189.92C197.053 190.064 197.137 190.232 197.185 190.424C197.257 190.592 197.293 190.784 197.293 191V191.036L197.257 191.072H195.421V189.236ZM195.565 189.236V191.072H193.729L193.693 191.036V191C193.693 190.784 193.717 190.592 193.765 190.424C193.837 190.232 193.921 190.064 194.017 189.92C194.137 189.776 194.269 189.656 194.413 189.56C194.557 189.44 194.713 189.356 194.881 189.308C195.073 189.236 195.277 189.2 195.493 189.2H195.529L195.565 189.236ZM195.565 189.164L195.529 189.2H195.493C195.277 189.2 195.073 189.176 194.881 189.128C194.713 189.056 194.557 188.972 194.413 188.876C194.269 188.756 194.137 188.624 194.017 188.48C193.921 188.336 193.837 188.18 193.765 188.012C193.717 187.82 193.693 187.616 193.693 187.4V187.364L193.729 187.328H195.565V189.164ZM195.421 189.164V187.328H197.257L197.293 187.364V187.4C197.293 187.616 197.257 187.82 197.185 188.012C197.137 188.18 197.053 188.336 196.933 188.48C196.837 188.624 196.717 188.756 196.573 188.876C196.429 188.972 196.261 189.056 196.069 189.128C195.901 189.176 195.709 189.2 195.493 189.2H195.457L195.421 189.164ZM195.421 185.636L195.457 185.6H195.493C195.709 185.6 195.901 185.636 196.069 185.708C196.261 185.756 196.429 185.84 196.573 185.96C196.717 186.056 196.837 186.176 196.933 186.32C197.053 186.464 197.137 186.632 197.185 186.824C197.257 186.992 197.293 187.184 197.293 187.4V187.436L197.257 187.472H195.421V185.636ZM195.565 185.636V187.472H193.729L193.693 187.436V187.4C193.693 187.184 193.717 186.992 193.765 186.824C193.837 186.632 193.921 186.464 194.017 186.32C194.137 186.176 194.269 186.056 194.413 185.96C194.557 185.84 194.713 185.756 194.881 185.708C195.073 185.636 195.277 185.6 195.493 185.6H195.529L195.565 185.636ZM195.565 185.564L195.529 185.6H195.493C195.277 185.6 195.073 185.576 194.881 185.528C194.713 185.456 194.557 185.372 194.413 185.276C194.269 185.156 194.137 185.024 194.017 184.88C193.921 184.736 193.837 184.58 193.765 184.412C193.717 184.22 193.693 184.016 193.693 183.8V183.764L193.729 183.728H195.565V185.564ZM195.421 185.564V183.728H197.257L197.293 183.764V183.8C197.293 184.016 197.257 184.22 197.185 184.412C197.137 184.58 197.053 184.736 196.933 184.88C196.837 185.024 196.717 185.156 196.573 185.276C196.429 185.372 196.261 185.456 196.069 185.528C195.901 185.576 195.709 185.6 195.493 185.6H195.457L195.421 185.564ZM195.421 182.036L195.457 182H195.493C195.709 182 195.901 182.036 196.069 182.108C196.261 182.156 196.429 182.24 196.573 182.36C196.717 182.456 196.837 182.576 196.933 182.72C197.053 182.864 197.137 183.032 197.185 183.224C197.257 183.392 197.293 183.584 197.293 183.8V183.836L197.257 183.872H195.421V182.036ZM195.565 182.036V183.872H193.729L193.693 183.836V183.8C193.693 183.584 193.717 183.392 193.765 183.224C193.837 183.032 193.921 182.864 194.017 182.72C194.137 182.576 194.269 182.456 194.413 182.36C194.557 182.24 194.713 182.156 194.881 182.108C195.073 182.036 195.277 182 195.493 182H195.529L195.565 182.036ZM206.372 199.964L206.336 200H206.3C206.084 200 205.88 199.976 205.688 199.928C205.52 199.856 205.364 199.772 205.22 199.676C205.076 199.556 204.944 199.424 204.824 199.28C204.728 199.136 204.644 198.98 204.572 198.812C204.524 198.62 204.5 198.416 204.5 198.2V198.164L204.536 198.128H206.372V199.964ZM206.228 199.964V198.128H208.064L208.1 198.164V198.2C208.1 198.416 208.064 198.62 207.992 198.812C207.944 198.98 207.86 199.136 207.74 199.28C207.644 199.424 207.524 199.556 207.38 199.676C207.236 199.772 207.068 199.856 206.876 199.928C206.708 199.976 206.516 200 206.3 200H206.264L206.228 199.964ZM206.228 196.436L206.264 196.4H206.3C206.516 196.4 206.708 196.436 206.876 196.508C207.068 196.556 207.236 196.64 207.38 196.76C207.524 196.856 207.644 196.976 207.74 197.12C207.86 197.264 207.944 197.432 207.992 197.624C208.064 197.792 208.1 197.984 208.1 198.2V198.236L208.064 198.272H206.228V196.436ZM206.372 196.436V198.272H204.536L204.5 198.236V198.2C204.5 197.984 204.524 197.792 204.572 197.624C204.644 197.432 204.728 197.264 204.824 197.12C204.944 196.976 205.076 196.856 205.22 196.76C205.364 196.64 205.52 196.556 205.688 196.508C205.88 196.436 206.084 196.4 206.3 196.4H206.336L206.372 196.436ZM206.372 196.364L206.336 196.4H206.3C206.084 196.4 205.88 196.376 205.688 196.328C205.52 196.256 205.364 196.172 205.22 196.076C205.076 195.956 204.944 195.824 204.824 195.68C204.728 195.536 204.644 195.38 204.572 195.212C204.524 195.02 204.5 194.816 204.5 194.6V194.564L204.536 194.528H206.372V196.364ZM206.228 196.364V194.528H208.064L208.1 194.564V194.6C208.1 194.816 208.064 195.02 207.992 195.212C207.944 195.38 207.86 195.536 207.74 195.68C207.644 195.824 207.524 195.956 207.38 196.076C207.236 196.172 207.068 196.256 206.876 196.328C206.708 196.376 206.516 196.4 206.3 196.4H206.264L206.228 196.364ZM206.228 192.836L206.264 192.8H206.3C206.516 192.8 206.708 192.836 206.876 192.908C207.068 192.956 207.236 193.04 207.38 193.16C207.524 193.256 207.644 193.376 207.74 193.52C207.86 193.664 207.944 193.832 207.992 194.024C208.064 194.192 208.1 194.384 208.1 194.6V194.636L208.064 194.672H206.228V192.836ZM206.372 192.836V194.672H204.536L204.5 194.636V194.6C204.5 194.384 204.524 194.192 204.572 194.024C204.644 193.832 204.728 193.664 204.824 193.52C204.944 193.376 205.076 193.256 205.22 193.16C205.364 193.04 205.52 192.956 205.688 192.908C205.88 192.836 206.084 192.8 206.3 192.8H206.336L206.372 192.836ZM206.372 192.764L206.336 192.8H206.3C206.084 192.8 205.88 192.776 205.688 192.728C205.52 192.656 205.364 192.572 205.22 192.476C205.076 192.356 204.944 192.224 204.824 192.08C204.728 191.936 204.644 191.78 204.572 191.612C204.524 191.42 204.5 191.216 204.5 191V190.964L204.536 190.928H206.372V192.764ZM206.228 192.764V190.928H208.064L208.1 190.964V191C208.1 191.216 208.064 191.42 207.992 191.612C207.944 191.78 207.86 191.936 207.74 192.08C207.644 192.224 207.524 192.356 207.38 192.476C207.236 192.572 207.068 192.656 206.876 192.728C206.708 192.776 206.516 192.8 206.3 192.8H206.264L206.228 192.764ZM206.228 189.236L206.264 189.2H206.3C206.516 189.2 206.708 189.236 206.876 189.308C207.068 189.356 207.236 189.44 207.38 189.56C207.524 189.656 207.644 189.776 207.74 189.92C207.86 190.064 207.944 190.232 207.992 190.424C208.064 190.592 208.1 190.784 208.1 191V191.036L208.064 191.072H206.228V189.236ZM206.372 189.236V191.072H204.536L204.5 191.036V191C204.5 190.784 204.524 190.592 204.572 190.424C204.644 190.232 204.728 190.064 204.824 189.92C204.944 189.776 205.076 189.656 205.22 189.56C205.364 189.44 205.52 189.356 205.688 189.308C205.88 189.236 206.084 189.2 206.3 189.2H206.336L206.372 189.236ZM206.372 189.164L206.336 189.2H206.3C206.084 189.2 205.88 189.176 205.688 189.128C205.52 189.056 205.364 188.972 205.22 188.876C205.076 188.756 204.944 188.624 204.824 188.48C204.728 188.336 204.644 188.18 204.572 188.012C204.524 187.82 204.5 187.616 204.5 187.4V187.364L204.536 187.328H206.372V189.164ZM206.228 189.164V187.328H208.064L208.1 187.364V187.4C208.1 187.616 208.064 187.82 207.992 188.012C207.944 188.18 207.86 188.336 207.74 188.48C207.644 188.624 207.524 188.756 207.38 188.876C207.236 188.972 207.068 189.056 206.876 189.128C206.708 189.176 206.516 189.2 206.3 189.2H206.264L206.228 189.164ZM206.228 185.636L206.264 185.6H206.3C206.516 185.6 206.708 185.636 206.876 185.708C207.068 185.756 207.236 185.84 207.38 185.96C207.524 186.056 207.644 186.176 207.74 186.32C207.86 186.464 207.944 186.632 207.992 186.824C208.064 186.992 208.1 187.184 208.1 187.4V187.436L208.064 187.472H206.228V185.636ZM206.372 185.636V187.472H204.536L204.5 187.436V187.4C204.5 187.184 204.524 186.992 204.572 186.824C204.644 186.632 204.728 186.464 204.824 186.32C204.944 186.176 205.076 186.056 205.22 185.96C205.364 185.84 205.52 185.756 205.688 185.708C205.88 185.636 206.084 185.6 206.3 185.6H206.336L206.372 185.636ZM206.372 185.564L206.336 185.6H206.3C206.084 185.6 205.88 185.576 205.688 185.528C205.52 185.456 205.364 185.372 205.22 185.276C205.076 185.156 204.944 185.024 204.824 184.88C204.728 184.736 204.644 184.58 204.572 184.412C204.524 184.22 204.5 184.016 204.5 183.8V183.764L204.536 183.728H206.372V185.564ZM206.228 185.564V183.728H208.064L208.1 183.764V183.8C208.1 184.016 208.064 184.22 207.992 184.412C207.944 184.58 207.86 184.736 207.74 184.88C207.644 185.024 207.524 185.156 207.38 185.276C207.236 185.372 207.068 185.456 206.876 185.528C206.708 185.576 206.516 185.6 206.3 185.6H206.264L206.228 185.564ZM206.228 182.036L206.264 182H206.3C206.516 182 206.708 182.036 206.876 182.108C207.068 182.156 207.236 182.24 207.38 182.36C207.524 182.456 207.644 182.576 207.74 182.72C207.86 182.864 207.944 183.032 207.992 183.224C208.064 183.392 208.1 183.584 208.1 183.8V183.836L208.064 183.872H206.228V182.036ZM206.372 182.036V183.872H204.536L204.5 183.836V183.8C204.5 183.584 204.524 183.392 204.572 183.224C204.644 183.032 204.728 182.864 204.824 182.72C204.944 182.576 205.076 182.456 205.22 182.36C205.364 182.24 205.52 182.156 205.688 182.108C205.88 182.036 206.084 182 206.3 182H206.336L206.372 182.036ZM206.372 181.964L206.336 182H206.3C206.084 182 205.88 181.976 205.688 181.928C205.52 181.856 205.364 181.772 205.22 181.676C205.076 181.556 204.944 181.424 204.824 181.28C204.728 181.136 204.644 180.98 204.572 180.812C204.524 180.62 204.5 180.416 204.5 180.2V180.164L204.536 180.128H206.372V181.964ZM206.228 181.964V180.128H208.064L208.1 180.164V180.2C208.1 180.416 208.064 180.62 207.992 180.812C207.944 180.98 207.86 181.136 207.74 181.28C207.644 181.424 207.524 181.556 207.38 181.676C207.236 181.772 207.068 181.856 206.876 181.928C206.708 181.976 206.516 182 206.3 182H206.264L206.228 181.964ZM206.228 178.436L206.264 178.4H206.3C206.516 178.4 206.708 178.436 206.876 178.508C207.068 178.556 207.236 178.64 207.38 178.76C207.524 178.856 207.644 178.976 207.74 179.12C207.86 179.264 207.944 179.432 207.992 179.624C208.064 179.792 208.1 179.984 208.1 180.2V180.236L208.064 180.272H206.228V178.436ZM206.372 178.436V180.272H204.536L204.5 180.236V180.2C204.5 179.984 204.524 179.792 204.572 179.624C204.644 179.432 204.728 179.264 204.824 179.12C204.944 178.976 205.076 178.856 205.22 178.76C205.364 178.64 205.52 178.556 205.688 178.508C205.88 178.436 206.084 178.4 206.3 178.4H206.336L206.372 178.436ZM217.165 192.764L217.129 192.8H217.093C216.877 192.8 216.673 192.776 216.481 192.728C216.313 192.656 216.157 192.572 216.013 192.476C215.869 192.356 215.737 192.224 215.617 192.08C215.521 191.936 215.437 191.78 215.365 191.612C215.317 191.42 215.293 191.216 215.293 191V190.964L215.329 190.928H217.165V192.764ZM217.021 192.764V190.928H218.857L218.893 190.964V191C218.893 191.216 218.857 191.42 218.785 191.612C218.737 191.78 218.653 191.936 218.533 192.08C218.437 192.224 218.317 192.356 218.173 192.476C218.029 192.572 217.861 192.656 217.669 192.728C217.501 192.776 217.309 192.8 217.093 192.8H217.057L217.021 192.764ZM217.021 189.236L217.057 189.2H217.093C217.309 189.2 217.501 189.236 217.669 189.308C217.861 189.356 218.029 189.44 218.173 189.56C218.317 189.656 218.437 189.776 218.533 189.92C218.653 190.064 218.737 190.232 218.785 190.424C218.857 190.592 218.893 190.784 218.893 191V191.036L218.857 191.072H217.021V189.236ZM217.165 189.236V191.072H215.329L215.293 191.036V191C215.293 190.784 215.317 190.592 215.365 190.424C215.437 190.232 215.521 190.064 215.617 189.92C215.737 189.776 215.869 189.656 216.013 189.56C216.157 189.44 216.313 189.356 216.481 189.308C216.673 189.236 216.877 189.2 217.093 189.2H217.129L217.165 189.236ZM217.165 189.164L217.129 189.2H217.093C216.877 189.2 216.673 189.176 216.481 189.128C216.313 189.056 216.157 188.972 216.013 188.876C215.869 188.756 215.737 188.624 215.617 188.48C215.521 188.336 215.437 188.18 215.365 188.012C215.317 187.82 215.293 187.616 215.293 187.4V187.364L215.329 187.328H217.165V189.164ZM217.021 189.164V187.328H218.857L218.893 187.364V187.4C218.893 187.616 218.857 187.82 218.785 188.012C218.737 188.18 218.653 188.336 218.533 188.48C218.437 188.624 218.317 188.756 218.173 188.876C218.029 188.972 217.861 189.056 217.669 189.128C217.501 189.176 217.309 189.2 217.093 189.2H217.057L217.021 189.164ZM217.021 185.636L217.057 185.6H217.093C217.309 185.6 217.501 185.636 217.669 185.708C217.861 185.756 218.029 185.84 218.173 185.96C218.317 186.056 218.437 186.176 218.533 186.32C218.653 186.464 218.737 186.632 218.785 186.824C218.857 186.992 218.893 187.184 218.893 187.4V187.436L218.857 187.472H217.021V185.636ZM217.165 185.636V187.472H215.329L215.293 187.436V187.4C215.293 187.184 215.317 186.992 215.365 186.824C215.437 186.632 215.521 186.464 215.617 186.32C215.737 186.176 215.869 186.056 216.013 185.96C216.157 185.84 216.313 185.756 216.481 185.708C216.673 185.636 216.877 185.6 217.093 185.6H217.129L217.165 185.636ZM217.165 185.564L217.129 185.6H217.093C216.877 185.6 216.673 185.576 216.481 185.528C216.313 185.456 216.157 185.372 216.013 185.276C215.869 185.156 215.737 185.024 215.617 184.88C215.521 184.736 215.437 184.58 215.365 184.412C215.317 184.22 215.293 184.016 215.293 183.8V183.764L215.329 183.728H217.165V185.564ZM217.021 185.564V183.728H218.857L218.893 183.764V183.8C218.893 184.016 218.857 184.22 218.785 184.412C218.737 184.58 218.653 184.736 218.533 184.88C218.437 185.024 218.317 185.156 218.173 185.276C218.029 185.372 217.861 185.456 217.669 185.528C217.501 185.576 217.309 185.6 217.093 185.6H217.057L217.021 185.564ZM217.021 182.036L217.057 182H217.093C217.309 182 217.501 182.036 217.669 182.108C217.861 182.156 218.029 182.24 218.173 182.36C218.317 182.456 218.437 182.576 218.533 182.72C218.653 182.864 218.737 183.032 218.785 183.224C218.857 183.392 218.893 183.584 218.893 183.8V183.836L218.857 183.872H217.021V182.036ZM217.165 182.036V183.872H215.329L215.293 183.836V183.8C215.293 183.584 215.317 183.392 215.365 183.224C215.437 183.032 215.521 182.864 215.617 182.72C215.737 182.576 215.869 182.456 216.013 182.36C216.157 182.24 216.313 182.156 216.481 182.108C216.673 182.036 216.877 182 217.093 182H217.129L217.165 182.036ZM217.165 181.964L217.129 182H217.093C216.877 182 216.673 181.976 216.481 181.928C216.313 181.856 216.157 181.772 216.013 181.676C215.869 181.556 215.737 181.424 215.617 181.28C215.521 181.136 215.437 180.98 215.365 180.812C215.317 180.62 215.293 180.416 215.293 180.2V180.164L215.329 180.128H217.165V181.964ZM217.021 181.964V180.128H218.857L218.893 180.164V180.2C218.893 180.416 218.857 180.62 218.785 180.812C218.737 180.98 218.653 181.136 218.533 181.28C218.437 181.424 218.317 181.556 218.173 181.676C218.029 181.772 217.861 181.856 217.669 181.928C217.501 181.976 217.309 182 217.093 182H217.057L217.021 181.964ZM217.021 178.436L217.057 178.4H217.093C217.309 178.4 217.501 178.436 217.669 178.508C217.861 178.556 218.029 178.64 218.173 178.76C218.317 178.856 218.437 178.976 218.533 179.12C218.653 179.264 218.737 179.432 218.785 179.624C218.857 179.792 218.893 179.984 218.893 180.2V180.236L218.857 180.272H217.021V178.436ZM217.165 178.436V180.272H215.329L215.293 180.236V180.2C215.293 179.984 215.317 179.792 215.365 179.624C215.437 179.432 215.521 179.264 215.617 179.12C215.737 178.976 215.869 178.856 216.013 178.76C216.157 178.64 216.313 178.556 216.481 178.508C216.673 178.436 216.877 178.4 217.093 178.4H217.129L217.165 178.436ZM220.765 196.364L220.729 196.4H220.693C220.477 196.4 220.273 196.376 220.081 196.328C219.913 196.256 219.757 196.172 219.613 196.076C219.469 195.956 219.337 195.824 219.217 195.68C219.121 195.536 219.037 195.38 218.965 195.212C218.917 195.02 218.893 194.816 218.893 194.6V194.564L218.929 194.528H220.765V196.364ZM220.621 196.364V194.528H222.457L222.493 194.564V194.6C222.493 194.816 222.457 195.02 222.385 195.212C222.337 195.38 222.253 195.536 222.133 195.68C222.037 195.824 221.917 195.956 221.773 196.076C221.629 196.172 221.461 196.256 221.269 196.328C221.101 196.376 220.909 196.4 220.693 196.4H220.657L220.621 196.364ZM220.621 192.836L220.657 192.8H220.693C220.909 192.8 221.101 192.836 221.269 192.908C221.461 192.956 221.629 193.04 221.773 193.16C221.917 193.256 222.037 193.376 222.133 193.52C222.253 193.664 222.337 193.832 222.385 194.024C222.457 194.192 222.493 194.384 222.493 194.6V194.636L222.457 194.672H220.621V192.836ZM220.765 192.836V194.672H218.929L218.893 194.636V194.6C218.893 194.384 218.917 194.192 218.965 194.024C219.037 193.832 219.121 193.664 219.217 193.52C219.337 193.376 219.469 193.256 219.613 193.16C219.757 193.04 219.913 192.956 220.081 192.908C220.273 192.836 220.477 192.8 220.693 192.8H220.729L220.765 192.836ZM224.365 199.964L224.329 200H224.293C224.077 200 223.873 199.976 223.681 199.928C223.513 199.856 223.357 199.772 223.213 199.676C223.069 199.556 222.937 199.424 222.817 199.28C222.721 199.136 222.637 198.98 222.565 198.812C222.517 198.62 222.493 198.416 222.493 198.2V198.164L222.529 198.128H224.365V199.964ZM224.221 199.964V198.128H226.057L226.093 198.164V198.2C226.093 198.416 226.057 198.62 225.985 198.812C225.937 198.98 225.853 199.136 225.733 199.28C225.637 199.424 225.517 199.556 225.373 199.676C225.229 199.772 225.061 199.856 224.869 199.928C224.701 199.976 224.509 200 224.293 200H224.257L224.221 199.964ZM224.221 196.436L224.257 196.4H224.293C224.509 196.4 224.701 196.436 224.869 196.508C225.061 196.556 225.229 196.64 225.373 196.76C225.517 196.856 225.637 196.976 225.733 197.12C225.853 197.264 225.937 197.432 225.985 197.624C226.057 197.792 226.093 197.984 226.093 198.2V198.236L226.057 198.272H224.221V196.436ZM224.365 196.436V198.272H222.529L222.493 198.236V198.2C222.493 197.984 222.517 197.792 222.565 197.624C222.637 197.432 222.721 197.264 222.817 197.12C222.937 196.976 223.069 196.856 223.213 196.76C223.357 196.64 223.513 196.556 223.681 196.508C223.873 196.436 224.077 196.4 224.293 196.4H224.329L224.365 196.436ZM227.965 196.364L227.929 196.4H227.893C227.677 196.4 227.473 196.376 227.281 196.328C227.113 196.256 226.957 196.172 226.813 196.076C226.669 195.956 226.537 195.824 226.417 195.68C226.321 195.536 226.237 195.38 226.165 195.212C226.117 195.02 226.093 194.816 226.093 194.6V194.564L226.129 194.528H227.965V196.364ZM227.821 196.364V194.528H229.657L229.693 194.564V194.6C229.693 194.816 229.657 195.02 229.585 195.212C229.537 195.38 229.453 195.536 229.333 195.68C229.237 195.824 229.117 195.956 228.973 196.076C228.829 196.172 228.661 196.256 228.469 196.328C228.301 196.376 228.109 196.4 227.893 196.4H227.857L227.821 196.364ZM227.821 192.836L227.857 192.8H227.893C228.109 192.8 228.301 192.836 228.469 192.908C228.661 192.956 228.829 193.04 228.973 193.16C229.117 193.256 229.237 193.376 229.333 193.52C229.453 193.664 229.537 193.832 229.585 194.024C229.657 194.192 229.693 194.384 229.693 194.6V194.636L229.657 194.672H227.821V192.836ZM227.965 192.836V194.672H226.129L226.093 194.636V194.6C226.093 194.384 226.117 194.192 226.165 194.024C226.237 193.832 226.321 193.664 226.417 193.52C226.537 193.376 226.669 193.256 226.813 193.16C226.957 193.04 227.113 192.956 227.281 192.908C227.473 192.836 227.677 192.8 227.893 192.8H227.929L227.965 192.836ZM231.565 192.764L231.529 192.8H231.493C231.277 192.8 231.073 192.776 230.881 192.728C230.713 192.656 230.557 192.572 230.413 192.476C230.269 192.356 230.137 192.224 230.017 192.08C229.921 191.936 229.837 191.78 229.765 191.612C229.717 191.42 229.693 191.216 229.693 191V190.964L229.729 190.928H231.565V192.764ZM231.421 192.764V190.928H233.257L233.293 190.964V191C233.293 191.216 233.257 191.42 233.185 191.612C233.137 191.78 233.053 191.936 232.933 192.08C232.837 192.224 232.717 192.356 232.573 192.476C232.429 192.572 232.261 192.656 232.069 192.728C231.901 192.776 231.709 192.8 231.493 192.8H231.457L231.421 192.764ZM231.421 189.236L231.457 189.2H231.493C231.709 189.2 231.901 189.236 232.069 189.308C232.261 189.356 232.429 189.44 232.573 189.56C232.717 189.656 232.837 189.776 232.933 189.92C233.053 190.064 233.137 190.232 233.185 190.424C233.257 190.592 233.293 190.784 233.293 191V191.036L233.257 191.072H231.421V189.236ZM231.565 189.236V191.072H229.729L229.693 191.036V191C229.693 190.784 229.717 190.592 229.765 190.424C229.837 190.232 229.921 190.064 230.017 189.92C230.137 189.776 230.269 189.656 230.413 189.56C230.557 189.44 230.713 189.356 230.881 189.308C231.073 189.236 231.277 189.2 231.493 189.2H231.529L231.565 189.236ZM231.565 189.164L231.529 189.2H231.493C231.277 189.2 231.073 189.176 230.881 189.128C230.713 189.056 230.557 188.972 230.413 188.876C230.269 188.756 230.137 188.624 230.017 188.48C229.921 188.336 229.837 188.18 229.765 188.012C229.717 187.82 229.693 187.616 229.693 187.4V187.364L229.729 187.328H231.565V189.164ZM231.421 189.164V187.328H233.257L233.293 187.364V187.4C233.293 187.616 233.257 187.82 233.185 188.012C233.137 188.18 233.053 188.336 232.933 188.48C232.837 188.624 232.717 188.756 232.573 188.876C232.429 188.972 232.261 189.056 232.069 189.128C231.901 189.176 231.709 189.2 231.493 189.2H231.457L231.421 189.164ZM231.421 185.636L231.457 185.6H231.493C231.709 185.6 231.901 185.636 232.069 185.708C232.261 185.756 232.429 185.84 232.573 185.96C232.717 186.056 232.837 186.176 232.933 186.32C233.053 186.464 233.137 186.632 233.185 186.824C233.257 186.992 233.293 187.184 233.293 187.4V187.436L233.257 187.472H231.421V185.636ZM231.565 185.636V187.472H229.729L229.693 187.436V187.4C229.693 187.184 229.717 186.992 229.765 186.824C229.837 186.632 229.921 186.464 230.017 186.32C230.137 186.176 230.269 186.056 230.413 185.96C230.557 185.84 230.713 185.756 230.881 185.708C231.073 185.636 231.277 185.6 231.493 185.6H231.529L231.565 185.636ZM231.565 185.564L231.529 185.6H231.493C231.277 185.6 231.073 185.576 230.881 185.528C230.713 185.456 230.557 185.372 230.413 185.276C230.269 185.156 230.137 185.024 230.017 184.88C229.921 184.736 229.837 184.58 229.765 184.412C229.717 184.22 229.693 184.016 229.693 183.8V183.764L229.729 183.728H231.565V185.564ZM231.421 185.564V183.728H233.257L233.293 183.764V183.8C233.293 184.016 233.257 184.22 233.185 184.412C233.137 184.58 233.053 184.736 232.933 184.88C232.837 185.024 232.717 185.156 232.573 185.276C232.429 185.372 232.261 185.456 232.069 185.528C231.901 185.576 231.709 185.6 231.493 185.6H231.457L231.421 185.564ZM231.421 182.036L231.457 182H231.493C231.709 182 231.901 182.036 232.069 182.108C232.261 182.156 232.429 182.24 232.573 182.36C232.717 182.456 232.837 182.576 232.933 182.72C233.053 182.864 233.137 183.032 233.185 183.224C233.257 183.392 233.293 183.584 233.293 183.8V183.836L233.257 183.872H231.421V182.036ZM231.565 182.036V183.872H229.729L229.693 183.836V183.8C229.693 183.584 229.717 183.392 229.765 183.224C229.837 183.032 229.921 182.864 230.017 182.72C230.137 182.576 230.269 182.456 230.413 182.36C230.557 182.24 230.713 182.156 230.881 182.108C231.073 182.036 231.277 182 231.493 182H231.529L231.565 182.036ZM231.565 181.964L231.529 182H231.493C231.277 182 231.073 181.976 230.881 181.928C230.713 181.856 230.557 181.772 230.413 181.676C230.269 181.556 230.137 181.424 230.017 181.28C229.921 181.136 229.837 180.98 229.765 180.812C229.717 180.62 229.693 180.416 229.693 180.2V180.164L229.729 180.128H231.565V181.964ZM231.421 181.964V180.128H233.257L233.293 180.164V180.2C233.293 180.416 233.257 180.62 233.185 180.812C233.137 180.98 233.053 181.136 232.933 181.28C232.837 181.424 232.717 181.556 232.573 181.676C232.429 181.772 232.261 181.856 232.069 181.928C231.901 181.976 231.709 182 231.493 182H231.457L231.421 181.964ZM231.421 178.436L231.457 178.4H231.493C231.709 178.4 231.901 178.436 232.069 178.508C232.261 178.556 232.429 178.64 232.573 178.76C232.717 178.856 232.837 178.976 232.933 179.12C233.053 179.264 233.137 179.432 233.185 179.624C233.257 179.792 233.293 179.984 233.293 180.2V180.236L233.257 180.272H231.421V178.436ZM231.565 178.436V180.272H229.729L229.693 180.236V180.2C229.693 179.984 229.717 179.792 229.765 179.624C229.837 179.432 229.921 179.264 230.017 179.12C230.137 178.976 230.269 178.856 230.413 178.76C230.557 178.64 230.713 178.556 230.881 178.508C231.073 178.436 231.277 178.4 231.493 178.4H231.529L231.565 178.436Z" fill="#CE954C"/>
<path d="M242.372 196.364L242.336 196.4H242.3C242.084 196.4 241.88 196.376 241.688 196.328C241.52 196.256 241.364 196.172 241.22 196.076C241.076 195.956 240.944 195.824 240.824 195.68C240.728 195.536 240.644 195.38 240.572 195.212C240.524 195.02 240.5 194.816 240.5 194.6V194.564L240.536 194.528H242.372V196.364ZM242.228 196.364V194.528H244.064L244.1 194.564V194.6C244.1 194.816 244.064 195.02 243.992 195.212C243.944 195.38 243.86 195.536 243.74 195.68C243.644 195.824 243.524 195.956 243.38 196.076C243.236 196.172 243.068 196.256 242.876 196.328C242.708 196.376 242.516 196.4 242.3 196.4H242.264L242.228 196.364ZM242.228 192.836L242.264 192.8H242.3C242.516 192.8 242.708 192.836 242.876 192.908C243.068 192.956 243.236 193.04 243.38 193.16C243.524 193.256 243.644 193.376 243.74 193.52C243.86 193.664 243.944 193.832 243.992 194.024C244.064 194.192 244.1 194.384 244.1 194.6V194.636L244.064 194.672H242.228V192.836ZM242.372 192.836V194.672H240.536L240.5 194.636V194.6C240.5 194.384 240.524 194.192 240.572 194.024C240.644 193.832 240.728 193.664 240.824 193.52C240.944 193.376 241.076 193.256 241.22 193.16C241.364 193.04 241.52 192.956 241.688 192.908C241.88 192.836 242.084 192.8 242.3 192.8H242.336L242.372 192.836ZM242.372 192.764L242.336 192.8H242.3C242.084 192.8 241.88 192.776 241.688 192.728C241.52 192.656 241.364 192.572 241.22 192.476C241.076 192.356 240.944 192.224 240.824 192.08C240.728 191.936 240.644 191.78 240.572 191.612C240.524 191.42 240.5 191.216 240.5 191V190.964L240.536 190.928H242.372V192.764ZM242.228 192.764V190.928H244.064L244.1 190.964V191C244.1 191.216 244.064 191.42 243.992 191.612C243.944 191.78 243.86 191.936 243.74 192.08C243.644 192.224 243.524 192.356 243.38 192.476C243.236 192.572 243.068 192.656 242.876 192.728C242.708 192.776 242.516 192.8 242.3 192.8H242.264L242.228 192.764ZM242.228 189.236L242.264 189.2H242.3C242.516 189.2 242.708 189.236 242.876 189.308C243.068 189.356 243.236 189.44 243.38 189.56C243.524 189.656 243.644 189.776 243.74 189.92C243.86 190.064 243.944 190.232 243.992 190.424C244.064 190.592 244.1 190.784 244.1 191V191.036L244.064 191.072H242.228V189.236ZM242.372 189.236V191.072H240.536L240.5 191.036V191C240.5 190.784 240.524 190.592 240.572 190.424C240.644 190.232 240.728 190.064 240.824 189.92C240.944 189.776 241.076 189.656 241.22 189.56C241.364 189.44 241.52 189.356 241.688 189.308C241.88 189.236 242.084 189.2 242.3 189.2H242.336L242.372 189.236ZM242.372 189.164L242.336 189.2H242.3C242.084 189.2 241.88 189.176 241.688 189.128C241.52 189.056 241.364 188.972 241.22 188.876C241.076 188.756 240.944 188.624 240.824 188.48C240.728 188.336 240.644 188.18 240.572 188.012C240.524 187.82 240.5 187.616 240.5 187.4V187.364L240.536 187.328H242.372V189.164ZM242.228 189.164V187.328H244.064L244.1 187.364V187.4C244.1 187.616 244.064 187.82 243.992 188.012C243.944 188.18 243.86 188.336 243.74 188.48C243.644 188.624 243.524 188.756 243.38 188.876C243.236 188.972 243.068 189.056 242.876 189.128C242.708 189.176 242.516 189.2 242.3 189.2H242.264L242.228 189.164ZM242.228 185.636L242.264 185.6H242.3C242.516 185.6 242.708 185.636 242.876 185.708C243.068 185.756 243.236 185.84 243.38 185.96C243.524 186.056 243.644 186.176 243.74 186.32C243.86 186.464 243.944 186.632 243.992 186.824C244.064 186.992 244.1 187.184 244.1 187.4V187.436L244.064 187.472H242.228V185.636ZM242.372 185.636V187.472H240.536L240.5 187.436V187.4C240.5 187.184 240.524 186.992 240.572 186.824C240.644 186.632 240.728 186.464 240.824 186.32C240.944 186.176 241.076 186.056 241.22 185.96C241.364 185.84 241.52 185.756 241.688 185.708C241.88 185.636 242.084 185.6 242.3 185.6H242.336L242.372 185.636ZM242.372 185.564L242.336 185.6H242.3C242.084 185.6 241.88 185.576 241.688 185.528C241.52 185.456 241.364 185.372 241.22 185.276C241.076 185.156 240.944 185.024 240.824 184.88C240.728 184.736 240.644 184.58 240.572 184.412C240.524 184.22 240.5 184.016 240.5 183.8V183.764L240.536 183.728H242.372V185.564ZM242.228 185.564V183.728H244.064L244.1 183.764V183.8C244.1 184.016 244.064 184.22 243.992 184.412C243.944 184.58 243.86 184.736 243.74 184.88C243.644 185.024 243.524 185.156 243.38 185.276C243.236 185.372 243.068 185.456 242.876 185.528C242.708 185.576 242.516 185.6 242.3 185.6H242.264L242.228 185.564ZM242.228 182.036L242.264 182H242.3C242.516 182 242.708 182.036 242.876 182.108C243.068 182.156 243.236 182.24 243.38 182.36C243.524 182.456 243.644 182.576 243.74 182.72C243.86 182.864 243.944 183.032 243.992 183.224C244.064 183.392 244.1 183.584 244.1 183.8V183.836L244.064 183.872H242.228V182.036ZM242.372 182.036V183.872H240.536L240.5 183.836V183.8C240.5 183.584 240.524 183.392 240.572 183.224C240.644 183.032 240.728 182.864 240.824 182.72C240.944 182.576 241.076 182.456 241.22 182.36C241.364 182.24 241.52 182.156 241.688 182.108C241.88 182.036 242.084 182 242.3 182H242.336L242.372 182.036ZM245.972 199.964L245.936 200H245.9C245.684 200 245.48 199.976 245.288 199.928C245.12 199.856 244.964 199.772 244.82 199.676C244.676 199.556 244.544 199.424 244.424 199.28C244.328 199.136 244.244 198.98 244.172 198.812C244.124 198.62 244.1 198.416 244.1 198.2V198.164L244.136 198.128H245.972V199.964ZM245.828 199.964V198.128H247.664L247.7 198.164V198.2C247.7 198.416 247.664 198.62 247.592 198.812C247.544 198.98 247.46 199.136 247.34 199.28C247.244 199.424 247.124 199.556 246.98 199.676C246.836 199.772 246.668 199.856 246.476 199.928C246.308 199.976 246.116 200 245.9 200H245.864L245.828 199.964ZM245.828 196.436L245.864 196.4H245.9C246.116 196.4 246.308 196.436 246.476 196.508C246.668 196.556 246.836 196.64 246.98 196.76C247.124 196.856 247.244 196.976 247.34 197.12C247.46 197.264 247.544 197.432 247.592 197.624C247.664 197.792 247.7 197.984 247.7 198.2V198.236L247.664 198.272H245.828V196.436ZM245.972 196.436V198.272H244.136L244.1 198.236V198.2C244.1 197.984 244.124 197.792 244.172 197.624C244.244 197.432 244.328 197.264 244.424 197.12C244.544 196.976 244.676 196.856 244.82 196.76C244.964 196.64 245.12 196.556 245.288 196.508C245.48 196.436 245.684 196.4 245.9 196.4H245.936L245.972 196.436ZM245.972 181.964L245.936 182H245.9C245.684 182 245.48 181.976 245.288 181.928C245.12 181.856 244.964 181.772 244.82 181.676C244.676 181.556 244.544 181.424 244.424 181.28C244.328 181.136 244.244 180.98 244.172 180.812C244.124 180.62 244.1 180.416 244.1 180.2V180.164L244.136 180.128H245.972V181.964ZM245.828 181.964V180.128H247.664L247.7 180.164V180.2C247.7 180.416 247.664 180.62 247.592 180.812C247.544 180.98 247.46 181.136 247.34 181.28C247.244 181.424 247.124 181.556 246.98 181.676C246.836 181.772 246.668 181.856 246.476 181.928C246.308 181.976 246.116 182 245.9 182H245.864L245.828 181.964ZM245.828 178.436L245.864 178.4H245.9C246.116 178.4 246.308 178.436 246.476 178.508C246.668 178.556 246.836 178.64 246.98 178.76C247.124 178.856 247.244 178.976 247.34 179.12C247.46 179.264 247.544 179.432 247.592 179.624C247.664 179.792 247.7 179.984 247.7 180.2V180.236L247.664 180.272H245.828V178.436ZM245.972 178.436V180.272H244.136L244.1 180.236V180.2C244.1 179.984 244.124 179.792 244.172 179.624C244.244 179.432 244.328 179.264 244.424 179.12C244.544 178.976 244.676 178.856 244.82 178.76C244.964 178.64 245.12 178.556 245.288 178.508C245.48 178.436 245.684 178.4 245.9 178.4H245.936L245.972 178.436ZM249.572 199.964L249.536 200H249.5C249.284 200 249.08 199.976 248.888 199.928C248.72 199.856 248.564 199.772 248.42 199.676C248.276 199.556 248.144 199.424 248.024 199.28C247.928 199.136 247.844 198.98 247.772 198.812C247.724 198.62 247.7 198.416 247.7 198.2V198.164L247.736 198.128H249.572V199.964ZM249.428 199.964V198.128H251.264L251.3 198.164V198.2C251.3 198.416 251.264 198.62 251.192 198.812C251.144 198.98 251.06 199.136 250.94 199.28C250.844 199.424 250.724 199.556 250.58 199.676C250.436 199.772 250.268 199.856 250.076 199.928C249.908 199.976 249.716 200 249.5 200H249.464L249.428 199.964ZM249.428 196.436L249.464 196.4H249.5C249.716 196.4 249.908 196.436 250.076 196.508C250.268 196.556 250.436 196.64 250.58 196.76C250.724 196.856 250.844 196.976 250.94 197.12C251.06 197.264 251.144 197.432 251.192 197.624C251.264 197.792 251.3 197.984 251.3 198.2V198.236L251.264 198.272H249.428V196.436ZM249.572 196.436V198.272H247.736L247.7 198.236V198.2C247.7 197.984 247.724 197.792 247.772 197.624C247.844 197.432 247.928 197.264 248.024 197.12C248.144 196.976 248.276 196.856 248.42 196.76C248.564 196.64 248.72 196.556 248.888 196.508C249.08 196.436 249.284 196.4 249.5 196.4H249.536L249.572 196.436ZM249.572 181.964L249.536 182H249.5C249.284 182 249.08 181.976 248.888 181.928C248.72 181.856 248.564 181.772 248.42 181.676C248.276 181.556 248.144 181.424 248.024 181.28C247.928 181.136 247.844 180.98 247.772 180.812C247.724 180.62 247.7 180.416 247.7 180.2V180.164L247.736 180.128H249.572V181.964ZM249.428 181.964V180.128H251.264L251.3 180.164V180.2C251.3 180.416 251.264 180.62 251.192 180.812C251.144 180.98 251.06 181.136 250.94 181.28C250.844 181.424 250.724 181.556 250.58 181.676C250.436 181.772 250.268 181.856 250.076 181.928C249.908 181.976 249.716 182 249.5 182H249.464L249.428 181.964ZM249.428 178.436L249.464 178.4H249.5C249.716 178.4 249.908 178.436 250.076 178.508C250.268 178.556 250.436 178.64 250.58 178.76C250.724 178.856 250.844 178.976 250.94 179.12C251.06 179.264 251.144 179.432 251.192 179.624C251.264 179.792 251.3 179.984 251.3 180.2V180.236L251.264 180.272H249.428V178.436ZM249.572 178.436V180.272H247.736L247.7 180.236V180.2C247.7 179.984 247.724 179.792 247.772 179.624C247.844 179.432 247.928 179.264 248.024 179.12C248.144 178.976 248.276 178.856 248.42 178.76C248.564 178.64 248.72 178.556 248.888 178.508C249.08 178.436 249.284 178.4 249.5 178.4H249.536L249.572 178.436ZM253.172 199.964L253.136 200H253.1C252.884 200 252.68 199.976 252.488 199.928C252.32 199.856 252.164 199.772 252.02 199.676C251.876 199.556 251.744 199.424 251.624 199.28C251.528 199.136 251.444 198.98 251.372 198.812C251.324 198.62 251.3 198.416 251.3 198.2V198.164L251.336 198.128H253.172V199.964ZM253.028 199.964V198.128H254.864L254.9 198.164V198.2C254.9 198.416 254.864 198.62 254.792 198.812C254.744 198.98 254.66 199.136 254.54 199.28C254.444 199.424 254.324 199.556 254.18 199.676C254.036 199.772 253.868 199.856 253.676 199.928C253.508 199.976 253.316 200 253.1 200H253.064L253.028 199.964ZM253.028 196.436L253.064 196.4H253.1C253.316 196.4 253.508 196.436 253.676 196.508C253.868 196.556 254.036 196.64 254.18 196.76C254.324 196.856 254.444 196.976 254.54 197.12C254.66 197.264 254.744 197.432 254.792 197.624C254.864 197.792 254.9 197.984 254.9 198.2V198.236L254.864 198.272H253.028V196.436ZM253.172 196.436V198.272H251.336L251.3 198.236V198.2C251.3 197.984 251.324 197.792 251.372 197.624C251.444 197.432 251.528 197.264 251.624 197.12C251.744 196.976 251.876 196.856 252.02 196.76C252.164 196.64 252.32 196.556 252.488 196.508C252.68 196.436 252.884 196.4 253.1 196.4H253.136L253.172 196.436ZM253.172 181.964L253.136 182H253.1C252.884 182 252.68 181.976 252.488 181.928C252.32 181.856 252.164 181.772 252.02 181.676C251.876 181.556 251.744 181.424 251.624 181.28C251.528 181.136 251.444 180.98 251.372 180.812C251.324 180.62 251.3 180.416 251.3 180.2V180.164L251.336 180.128H253.172V181.964ZM253.028 181.964V180.128H254.864L254.9 180.164V180.2C254.9 180.416 254.864 180.62 254.792 180.812C254.744 180.98 254.66 181.136 254.54 181.28C254.444 181.424 254.324 181.556 254.18 181.676C254.036 181.772 253.868 181.856 253.676 181.928C253.508 181.976 253.316 182 253.1 182H253.064L253.028 181.964ZM253.028 178.436L253.064 178.4H253.1C253.316 178.4 253.508 178.436 253.676 178.508C253.868 178.556 254.036 178.64 254.18 178.76C254.324 178.856 254.444 178.976 254.54 179.12C254.66 179.264 254.744 179.432 254.792 179.624C254.864 179.792 254.9 179.984 254.9 180.2V180.236L254.864 180.272H253.028V178.436ZM253.172 178.436V180.272H251.336L251.3 180.236V180.2C251.3 179.984 251.324 179.792 251.372 179.624C251.444 179.432 251.528 179.264 251.624 179.12C251.744 178.976 251.876 178.856 252.02 178.76C252.164 178.64 252.32 178.556 252.488 178.508C252.68 178.436 252.884 178.4 253.1 178.4H253.136L253.172 178.436ZM256.772 196.364L256.736 196.4H256.7C256.484 196.4 256.28 196.376 256.088 196.328C255.92 196.256 255.764 196.172 255.62 196.076C255.476 195.956 255.344 195.824 255.224 195.68C255.128 195.536 255.044 195.38 254.972 195.212C254.924 195.02 254.9 194.816 254.9 194.6V194.564L254.936 194.528H256.772V196.364ZM256.628 196.364V194.528H258.464L258.5 194.564V194.6C258.5 194.816 258.464 195.02 258.392 195.212C258.344 195.38 258.26 195.536 258.14 195.68C258.044 195.824 257.924 195.956 257.78 196.076C257.636 196.172 257.468 196.256 257.276 196.328C257.108 196.376 256.916 196.4 256.7 196.4H256.664L256.628 196.364ZM256.628 192.836L256.664 192.8H256.7C256.916 192.8 257.108 192.836 257.276 192.908C257.468 192.956 257.636 193.04 257.78 193.16C257.924 193.256 258.044 193.376 258.14 193.52C258.26 193.664 258.344 193.832 258.392 194.024C258.464 194.192 258.5 194.384 258.5 194.6V194.636L258.464 194.672H256.628V192.836ZM256.772 192.836V194.672H254.936L254.9 194.636V194.6C254.9 194.384 254.924 194.192 254.972 194.024C255.044 193.832 255.128 193.664 255.224 193.52C255.344 193.376 255.476 193.256 255.62 193.16C255.764 193.04 255.92 192.956 256.088 192.908C256.28 192.836 256.484 192.8 256.7 192.8H256.736L256.772 192.836ZM256.772 192.764L256.736 192.8H256.7C256.484 192.8 256.28 192.776 256.088 192.728C255.92 192.656 255.764 192.572 255.62 192.476C255.476 192.356 255.344 192.224 255.224 192.08C255.128 191.936 255.044 191.78 254.972 191.612C254.924 191.42 254.9 191.216 254.9 191V190.964L254.936 190.928H256.772V192.764ZM256.628 192.764V190.928H258.464L258.5 190.964V191C258.5 191.216 258.464 191.42 258.392 191.612C258.344 191.78 258.26 191.936 258.14 192.08C258.044 192.224 257.924 192.356 257.78 192.476C257.636 192.572 257.468 192.656 257.276 192.728C257.108 192.776 256.916 192.8 256.7 192.8H256.664L256.628 192.764ZM256.628 189.236L256.664 189.2H256.7C256.916 189.2 257.108 189.236 257.276 189.308C257.468 189.356 257.636 189.44 257.78 189.56C257.924 189.656 258.044 189.776 258.14 189.92C258.26 190.064 258.344 190.232 258.392 190.424C258.464 190.592 258.5 190.784 258.5 191V191.036L258.464 191.072H256.628V189.236ZM256.772 189.236V191.072H254.936L254.9 191.036V191C254.9 190.784 254.924 190.592 254.972 190.424C255.044 190.232 255.128 190.064 255.224 189.92C255.344 189.776 255.476 189.656 255.62 189.56C255.764 189.44 255.92 189.356 256.088 189.308C256.28 189.236 256.484 189.2 256.7 189.2H256.736L256.772 189.236ZM256.772 189.164L256.736 189.2H256.7C256.484 189.2 256.28 189.176 256.088 189.128C255.92 189.056 255.764 188.972 255.62 188.876C255.476 188.756 255.344 188.624 255.224 188.48C255.128 188.336 255.044 188.18 254.972 188.012C254.924 187.82 254.9 187.616 254.9 187.4V187.364L254.936 187.328H256.772V189.164ZM256.628 189.164V187.328H258.464L258.5 187.364V187.4C258.5 187.616 258.464 187.82 258.392 188.012C258.344 188.18 258.26 188.336 258.14 188.48C258.044 188.624 257.924 188.756 257.78 188.876C257.636 188.972 257.468 189.056 257.276 189.128C257.108 189.176 256.916 189.2 256.7 189.2H256.664L256.628 189.164ZM256.628 185.636L256.664 185.6H256.7C256.916 185.6 257.108 185.636 257.276 185.708C257.468 185.756 257.636 185.84 257.78 185.96C257.924 186.056 258.044 186.176 258.14 186.32C258.26 186.464 258.344 186.632 258.392 186.824C258.464 186.992 258.5 187.184 258.5 187.4V187.436L258.464 187.472H256.628V185.636ZM256.772 185.636V187.472H254.936L254.9 187.436V187.4C254.9 187.184 254.924 186.992 254.972 186.824C255.044 186.632 255.128 186.464 255.224 186.32C255.344 186.176 255.476 186.056 255.62 185.96C255.764 185.84 255.92 185.756 256.088 185.708C256.28 185.636 256.484 185.6 256.7 185.6H256.736L256.772 185.636ZM256.772 185.564L256.736 185.6H256.7C256.484 185.6 256.28 185.576 256.088 185.528C255.92 185.456 255.764 185.372 255.62 185.276C255.476 185.156 255.344 185.024 255.224 184.88C255.128 184.736 255.044 184.58 254.972 184.412C254.924 184.22 254.9 184.016 254.9 183.8V183.764L254.936 183.728H256.772V185.564ZM256.628 185.564V183.728H258.464L258.5 183.764V183.8C258.5 184.016 258.464 184.22 258.392 184.412C258.344 184.58 258.26 184.736 258.14 184.88C258.044 185.024 257.924 185.156 257.78 185.276C257.636 185.372 257.468 185.456 257.276 185.528C257.108 185.576 256.916 185.6 256.7 185.6H256.664L256.628 185.564ZM256.628 182.036L256.664 182H256.7C256.916 182 257.108 182.036 257.276 182.108C257.468 182.156 257.636 182.24 257.78 182.36C257.924 182.456 258.044 182.576 258.14 182.72C258.26 182.864 258.344 183.032 258.392 183.224C258.464 183.392 258.5 183.584 258.5 183.8V183.836L258.464 183.872H256.628V182.036ZM256.772 182.036V183.872H254.936L254.9 183.836V183.8C254.9 183.584 254.924 183.392 254.972 183.224C255.044 183.032 255.128 182.864 255.224 182.72C255.344 182.576 255.476 182.456 255.62 182.36C255.764 182.24 255.92 182.156 256.088 182.108C256.28 182.036 256.484 182 256.7 182H256.736L256.772 182.036Z" fill="#A7C7A2"/>
</svg>
