<svg xmlns="http://www.w3.org/2000/svg" width="450" height="450" fill="none"><rect width="450" height="450" fill="#F5F8FA" rx="90" style="fill:#f5f8fa;fill:color(display-p3 .9608 .9725 .9804);fill-opacity:1"/><path fill="#2C3E4D" d="m295.23 239.824-18.938-6.325-6.312-18.937c-2.05-6.125-12.188-6.125-14.238 0l-6.312 18.937-18.938 6.325a7.49 7.49 0 0 0-5.125 7.113c0 3.225 2.063 6.1 5.125 7.112l18.938 6.325 6.312 18.938a7.517 7.517 0 0 0 7.125 5.125 7.529 7.529 0 0 0 7.125-5.125l6.313-18.938 18.937-6.325a7.487 7.487 0 0 0 5.125-7.112 7.513 7.513 0 0 0-5.137-7.113Zm-87.463 107.262 4.257-8.353-4.257 8.353Zm-10.925-10.925 8.353-4.256-8.353 4.256Zm132.05 0-8.353-4.256 8.353 4.256Zm-10.925 10.925-4.256-8.353 4.256 8.353Zm0-169.55-4.256 8.353 4.256-8.353Zm10.925 10.925-8.353 4.257 8.353-4.257Zm-121.125-10.925 4.257 8.353-4.257-8.353Zm-10.925 10.925 8.353 4.257-8.353-4.257Zm8.917 148.595a9.374 9.374 0 0 0 6.432 11.594 9.375 9.375 0 0 0 11.593-6.433l-18.025-5.161Zm96.15 5.161a9.375 9.375 0 0 0 11.593 6.433 9.374 9.374 0 0 0 6.432-11.594l-18.025 5.161Zm-142.567-43.556-8.353 4.256 8.353-4.256Zm10.925 10.925 4.257-8.353-4.257 8.353Zm108.417-170.372 3.588-8.661-3.588 8.661Zm6.058 35.597a9.375 9.375 0 0 0 18.75 0h-18.75Zm7.472-22.067-8.661 3.588 8.661-3.588Zm-121.947-12.708-4.256-8.353 4.256 8.353Zm-10.925 10.925-8.353-4.256 8.353 4.256Zm-37.5 110.2-8.353 4.256 8.353-4.256Zm10.925 10.925 4.257-8.353-4.257 8.353Zm108.417-170.372 3.588-8.661-3.588 8.661Zm13.53 13.53-8.661 3.588 8.661-3.588Zm-121.947-12.708-4.256-8.353 4.256 8.353Zm-10.925 10.925-8.353-4.256 8.353 4.256Zm112.275 70.725h57.5v-18.75h-57.5v18.75Zm88.125 30.625v95h18.75v-95h-18.75Zm-30.625 125.625h-57.5v18.75h57.5v-18.75Zm-88.125-30.625v-95h-18.75v95h18.75Zm30.625 30.625c-7.155 0-11.958-.007-15.656-.309-3.589-.294-5.305-.817-6.437-1.394l-8.513 16.706c4.216 2.149 8.674 2.987 13.423 3.375 4.639.379 10.337.372 17.183.372v-18.75Zm-49.375-30.625c0 6.846-.007 12.544.372 17.184.388 4.748 1.227 9.206 3.375 13.422l16.706-8.512c-.577-1.132-1.1-2.848-1.393-6.437-.303-3.699-.31-8.502-.31-15.657h-18.75Zm27.282 28.922a15.626 15.626 0 0 1-6.829-6.828l-16.706 8.512a34.367 34.367 0 0 0 15.022 15.022l8.513-16.706Zm110.218-28.922c0 7.155-.007 11.958-.309 15.657-.294 3.589-.817 5.305-1.394 6.437l16.707 8.512c2.148-4.216 2.986-8.674 3.374-13.422.379-4.64.372-10.338.372-17.184h-18.75Zm-30.625 49.375c6.846 0 12.544.007 17.184-.372 4.748-.388 9.206-1.226 13.422-3.375l-8.512-16.706c-1.132.577-2.848 1.1-6.437 1.394-3.699.302-8.501.309-15.657.309v18.75Zm28.922-27.281a15.623 15.623 0 0 1-6.828 6.828l8.512 16.706a34.375 34.375 0 0 0 15.023-15.022l-16.707-8.512Zm-28.922-147.719c7.156 0 11.958.007 15.657.31 3.589.293 5.305.816 6.437 1.393l8.512-16.706c-4.216-2.148-8.674-2.987-13.422-3.375-4.64-.379-10.338-.372-17.184-.372v18.75Zm49.375 30.625c0-6.846.007-12.544-.372-17.183-.388-4.749-1.226-9.207-3.374-13.423l-16.707 8.513c.577 1.132 1.1 2.848 1.394 6.437.302 3.698.309 8.501.309 15.656h18.75Zm-27.281-28.922a15.626 15.626 0 0 1 6.828 6.829l16.707-8.513a34.375 34.375 0 0 0-15.023-15.022l-8.512 16.706Zm-79.594-20.453c-6.846 0-12.544-.007-17.183.372-4.749.388-9.207 1.227-13.423 3.375l8.513 16.706c1.132-.577 2.848-1.1 6.437-1.393 3.698-.303 8.501-.31 15.656-.31v-18.75Zm-30.625 49.375c0-7.155.007-11.958.31-15.656.293-3.589.816-5.305 1.393-6.437l-16.706-8.513c-2.148 4.216-2.987 8.674-3.375 13.423-.379 4.639-.372 10.337-.372 17.183h18.75Zm.019-45.628a34.367 34.367 0 0 0-15.022 15.022l16.706 8.513a15.628 15.628 0 0 1 6.829-6.829l-8.513-16.706Zm20.273 173.034c4.867-16.998 20.52-29.418 39.062-29.418v-18.75c-27.132 0-49.979 18.181-57.087 43.007l18.025 5.161Zm39.062-29.418c18.543 0 34.196 12.42 39.063 29.418l18.025-5.161c-7.108-24.826-29.955-43.007-57.088-43.007v18.75Zm-66.229-166.113h60v-18.75h-60v18.75Zm-30.625 125.625v-95h-18.75v95h18.75Zm31.438 30.625h-.813v18.75h.813v-18.75Zm-50.188-30.625c0 6.846-.007 12.544.372 17.184.388 4.748 1.227 9.206 3.375 13.422l16.706-8.512c-.577-1.132-1.1-2.848-1.393-6.437-.303-3.699-.31-8.502-.31-15.657h-18.75Zm49.375 30.625c-7.155 0-11.958-.007-15.656-.309-3.589-.294-5.305-.817-6.437-1.394l-8.513 16.706c4.216 2.149 8.674 2.987 13.423 3.375 4.639.379 10.337.372 17.183.372v-18.75Zm-45.628-.019a34.367 34.367 0 0 0 15.022 15.022l8.513-16.706a15.626 15.626 0 0 1-6.829-6.828l-16.706 8.512Zm105.628-156.231c5.953 0 9.948.005 13.041.216 3.009.206 4.474.574 5.439.974l7.175-17.323c-3.63-1.504-7.374-2.087-11.338-2.357-3.879-.265-8.621-.26-14.317-.26v18.75Zm46.875 28.125c0-5.696.005-10.437-.259-14.317-.271-3.964-.854-7.708-2.357-11.338l-17.323 7.176c.399.964.768 2.429.973 5.438.211 3.094.216 7.089.216 13.041h18.75Zm-28.395-26.935a15.623 15.623 0 0 1 8.456 8.456l17.323-7.176a34.378 34.378 0 0 0-18.604-18.603l-7.175 17.323Zm-78.48-19.94c-6.846 0-12.544-.007-17.183.372-4.749.388-9.207 1.227-13.423 3.375l8.513 16.706c1.132-.577 2.848-1.1 6.437-1.393 3.698-.303 8.501-.31 15.656-.31v-18.75Zm-30.625 49.375c0-7.155.007-11.958.31-15.656.293-3.589.816-5.305 1.393-6.437l-16.706-8.513c-2.148 4.216-2.987 8.674-3.375 13.423-.379 4.639-.372 10.337-.372 17.183h18.75Zm.019-45.628a34.367 34.367 0 0 0-15.022 15.022l16.706 8.513a15.628 15.628 0 0 1 6.829-6.829l-8.513-16.706Zm-6.894-22.497h60v-18.75h-60v18.75Zm-30.625 125.625v-95h-18.75v95h18.75Zm31.438 30.625h-.813v18.75h.813v-18.75Zm-50.188-30.625c0 6.846-.007 12.544.372 17.184.388 4.748 1.227 9.206 3.375 13.422l16.706-8.512c-.577-1.132-1.1-2.848-1.393-6.437-.303-3.699-.31-8.502-.31-15.657h-18.75Zm49.375 30.625c-7.155 0-11.958-.007-15.656-.309-3.589-.294-5.305-.817-6.437-1.394l-8.513 16.706c4.216 2.149 8.674 2.987 13.423 3.375 4.639.379 10.337.372 17.183.372v-18.75Zm-45.628-.019a34.367 34.367 0 0 0 15.022 15.022l8.513-16.706a15.626 15.626 0 0 1-6.829-6.828l-16.706 8.512Zm105.628-156.231c5.953 0 9.948.005 13.041.216 3.009.206 4.474.574 5.439.974l7.175-17.323c-3.63-1.504-7.374-2.087-11.338-2.357-3.879-.265-8.621-.26-14.317-.26v18.75Zm46.875 28.125c0-5.696.005-10.437-.259-14.317-.271-3.964-.854-7.708-2.357-11.338l-17.323 7.176c.399.964.768 2.429.973 5.438.211 3.094.216 7.089.216 13.041h18.75Zm-28.395-26.935a15.623 15.623 0 0 1 8.456 8.456l17.323-7.176a34.378 34.378 0 0 0-18.604-18.603l-7.175 17.323Zm-78.48-19.94c-6.846 0-12.544-.007-17.183.372-4.749.388-9.207 1.227-13.423 3.375l8.513 16.706c1.132-.577 2.848-1.1 6.437-1.393 3.698-.303 8.501-.31 15.656-.31v-18.75Zm-30.625 49.375c0-7.155.007-11.958.31-15.656.293-3.589.816-5.305 1.393-6.437l-16.706-8.513c-2.148 4.216-2.987 8.674-3.375 13.423-.379 4.639-.372 10.337-.372 17.183h18.75Zm.019-45.628a34.371 34.371 0 0 0-15.022 15.022l16.706 8.513a15.628 15.628 0 0 1 6.829-6.829l-8.513-16.706Z" style="fill:#2c3e4d;fill:color(display-p3 .1725 .2431 .302);fill-opacity:1"/></svg>