<svg preserveAspectRatio="xMidYMid meet" data-bbox="0 0 200 174.001" xmlns="http://www.w3.org/2000/svg" viewBox="0 0 200 174.001" height="174" width="200" data-type="shape" role="presentation" aria-hidden="true" aria-label="">
    <g>
        <path d="M199.913 22.781C198.941 10.458 188.758.608 176.425.028c-10.112-.473-18.967 5.135-23.229 13.493 0 .009-.018.009-.018.018-6.786 11.243-7.16 32.835-7.232 54.231-.035 12.038-9.487 22.164-21.508 22.316-11.708.134-21.312-8.984-21.998-20.503.089-1.233 0-17.646 0-18.905C102.44 22.862 80.12.305 52.361.206V.153H20.43C9.15.153 0 9.315 0 20.61v31.31c0 27.192 22.007 49.24 49.16 49.24h14.285c11.21 0 17.37 6.358 17.433 17.199v1.491c0 2.706-.026 8.707 0 10.019v.295c0 24.209 19.6 43.837 43.774 43.837h.036c23.434 0 42.57-18.44 43.73-41.631h.026v-1.072c0-.375.027-.75.027-1.134v-19.458l-.018-18.789c0-22.387 18.164-41.765 25.592-51.016.509-.59.981-1.206 1.436-1.849 0-.017.027-.035.045-.062.009-.009.017-.018.017-.036 3.157-4.518 4.851-10.135 4.379-16.172zM48.652 81.05c-15.507-.983-28.08-13.592-29.061-29.12-1.186-18.825 14.32-34.345 33.118-33.166 15.507.982 28.089 13.591 29.061 29.12 1.186 18.824-14.303 34.345-33.118 33.166m74.199 73.966c-10.558-.83-19.109-9.403-19.947-19.967-1.053-13.44 10.058-24.566 23.478-23.513 10.558.84 19.11 9.404 19.939 19.968 1.061 13.439-10.059 24.575-23.47 23.512m50.417-121.312c-3.736-.617-6.759-3.644-7.374-7.386-1.008-6.188 4.262-11.466 10.442-10.447 3.736.616 6.759 3.634 7.366 7.385 1.016 6.188-4.254 11.466-10.434 10.448"/>
    </g>
</svg>