<svg xmlns="http://www.w3.org/2000/svg" version="1.1" width="200" height="200" viewBox="0 0 200 200" class="h-8 w-auto fill-violet-600" preserveAspectRatio="xMidYMid meet"><g transform="translate(100, 100) scale(2.5)"><path transform="translate(219, -181.01)" d="M -216.3 143.1 C -238.5 141.6 -257 159.2 -257 181 C -257 182.6 -256.9 184.1 -256.7 185.6 C -256.59999999999997 186.4 -255.6 186.79999999999998 -255 186.2 L -251.3 182.5 C -251.10000000000002 182.3 -251 182 -251 181.7 C -251 181.5 -251 181.2 -251 181 C -251 162.6 -235.4 147.8 -216.7 149.1 C -200.89999999999998 150.2 -188.2 163 -187.1 178.7 C -185.79999999999998 197.39999999999998 -200.6 213 -219 213 C -231.4 213 -242.1 205.9 -247.4 195.6 L -235.20000000000002 183.4 L -222.00000000000003 196.6 C -221.60000000000002 197 -221.00000000000003 197 -220.60000000000002 196.6 L -201.8 177.79999999999998 L -201.8 183.49999999999997 C -201.8 184.09999999999997 -201.4 184.49999999999997 -200.8 184.49999999999997 L -196.8 184.49999999999997 C -196.20000000000002 184.49999999999997 -195.8 184.09999999999997 -195.8 183.49999999999997 L -195.8 168.59999999999997 C -195.8 167.99999999999997 -196.20000000000002 167.59999999999997 -196.8 167.59999999999997 L -211.70000000000002 167.59999999999997 C -212.3 167.59999999999997 -212.70000000000002 167.99999999999997 -212.70000000000002 168.59999999999997 L -212.70000000000002 172.59999999999997 C -212.70000000000002 173.19999999999996 -212.3 173.59999999999997 -211.70000000000002 173.59999999999997 L -206.00000000000003 173.59999999999997 L -221.20000000000002 188.79999999999995 L -234.4 175.59999999999997 C -234.8 175.19999999999996 -235.4 175.19999999999996 -235.8 175.59999999999997 L -254 193.79999999999995 C -254.3 194.09999999999997 -254.4 194.49999999999994 -254.2 194.89999999999995 C -248.8 209 -235 219 -219 219 C -197.1 219 -179.5 200.5 -181.1 178.3 C -182.4 159.6 -197.6 144.4 -216.3 143.1 z" stroke-linecap="round"/></g></svg>