<?xml version="1.0" encoding="UTF-8"?>
<svg version="1.1" xmlns="http://www.w3.org/2000/svg" width="2000" height="2000">
<path d="M0 0 C1.78252394 -0.00165254 3.56504753 -0.00374013 5.34757051 -0.0062201 C10.23643044 -0.01175919 15.12527277 -0.01111942 20.01413483 -0.00944251 C25.33681118 -0.00870903 30.65948267 -0.01373995 35.98215693 -0.01801753 C46.53507772 -0.02558507 57.08799344 -0.02778996 67.64091665 -0.02834659 C80.28351241 -0.02926148 92.92610352 -0.0359328 105.56869727 -0.04269341 C135.40075891 -0.0583631 165.23281949 -0.06444083 195.06488447 -0.06910044 C210.25223869 -0.07148591 225.43959246 -0.07518987 240.62694634 -0.07913754 C289.37736805 -0.09180184 338.12778975 -0.1025847 386.87821308 -0.10597799 C389.20733957 -0.10614023 391.53646606 -0.10630579 393.86559256 -0.10647238 C398.53646627 -0.10680617 403.20733999 -0.10713665 407.8782137 -0.10746694 C413.34633327 -0.10785383 418.81445284 -0.10824344 424.2825724 -0.108638 C425.84757566 -0.10875042 427.41257892 -0.10886184 428.97758218 -0.10897225 C479.20804102 -0.11251941 529.43848554 -0.12758854 579.66893892 -0.15091 C615.771563 -0.16766527 651.87418436 -0.18313247 687.97681236 -0.18764496 C689.09193815 -0.18778519 689.09193815 -0.18778519 690.22959173 -0.18792825 C706.55446776 -0.1899479 722.87934374 -0.19110344 739.20421989 -0.19145683 C745.04666468 -0.19159299 750.88910947 -0.19180198 756.73155426 -0.19205009 C758.18489867 -0.19211165 759.63824309 -0.19216997 761.09158751 -0.19222504 C784.19456634 -0.19314266 807.29753016 -0.20308448 830.40050406 -0.21768252 C854.34268073 -0.23275019 878.28483317 -0.23686151 902.22701398 -0.22858956 C916.01099439 -0.22414692 929.79491337 -0.22793904 943.57888566 -0.24382807 C952.80728202 -0.25362847 962.03563567 -0.25235188 971.2640317 -0.24239184 C976.50842986 -0.23703603 981.75271067 -0.23617102 986.99709878 -0.24890056 C1015.6573478 -0.3141454 1043.86866435 0.71718605 1072.21646404 5.38142776 C1073.51728924 5.59194778 1074.81811443 5.8024678 1076.15835857 6.01936722 C1123.0403819 13.76182814 1168.22123379 27.86297944 1211.21646404 48.13142776 C1212.29347576 48.63899612 1213.37048748 49.14656448 1214.48013592 49.6695137 C1252.56459188 67.7967998 1287.8878851 91.08634952 1320.21646404 118.13142776 C1320.81265545 118.62852249 1321.40884686 119.12561722 1322.02310467 119.63777542 C1334.99859121 130.49240653 1347.23274994 142.07143266 1359.21646404 154.00642776 C1360.00561199 154.79090286 1360.79475994 155.57537796 1361.60782146 156.38362503 C1366.35005793 161.13897134 1370.84332374 166.03689044 1375.21646404 171.13142776 C1376.23804438 172.28801872 1377.26143703 173.44301183 1378.28677654 174.59627151 C1385.77270728 183.07878878 1392.782835 191.83570356 1399.54849529 200.9014473 C1401.23951454 203.16224499 1402.9460937 205.41068598 1404.65396404 207.65877151 C1423.1520788 232.18145415 1438.38688192 258.75169686 1452.21646404 286.13142776 C1452.65345623 286.99461624 1453.09044842 287.85780472 1453.54068279 288.74715042 C1477.43777612 336.34832209 1492.14487555 388.68353838 1499.52896404 441.31892776 C1499.74975628 442.88864334 1499.74975628 442.88864334 1499.97500896 444.49007034 C1500.34569076 447.31909473 1500.67471815 450.14939053 1500.98263863 452.98582917 C1501.13954937 454.42565327 1501.30077587 455.86501309 1501.46614768 457.30388993 C1503.73066603 477.58732619 1503.50425469 497.89699842 1503.47960051 518.27402667 C1503.47539099 523.59882372 1503.48285415 528.92360747 1503.48875302 534.24840117 C1503.49747837 543.56123188 1503.49884024 552.8740406 1503.49524975 562.18687439 C1503.48992444 576.03621844 1503.49605641 589.88554134 1503.50433268 603.73488309 C1503.51913014 629.19519603 1503.5214252 654.6554978 1503.5190123 680.11581399 C1503.51867381 683.71760481 1503.51835172 687.31939563 1503.51804662 690.92118645 C1503.51795505 691.99445785 1503.51795505 691.99445785 1503.51786164 693.0894115 C1503.51658715 708.97989138 1503.51919585 724.87036993 1503.52257268 740.76084941 C1503.52334344 744.39445367 1503.52408819 748.02805793 1503.5248377 751.66166219 C1503.5251394 753.12009975 1503.52544128 754.57853731 1503.52574334 756.03697487 C1503.52589302 756.75992338 1503.5260427 757.48287189 1503.52619692 758.22772792 C1503.52650045 759.69012285 1503.52680514 761.15251777 1503.52711096 762.61491269 C1503.53577849 804.08473516 1503.54043192 845.55455646 1503.53616333 887.02437973 C1503.53608527 887.79152306 1503.53600722 888.55866639 1503.53592679 889.34905648 C1503.53505408 897.90254548 1503.53412481 906.45603447 1503.53317616 915.00952345 C1503.53309065 915.78170319 1503.53300514 916.55388293 1503.53291704 917.34946206 C1503.53220646 923.76369638 1503.53220646 923.76369638 1503.53187481 926.71766418 C1503.52634077 976.09354846 1503.53387853 1025.46941405 1503.55264568 1074.84529495 C1503.55736837 1087.28583904 1503.56204908 1099.72638314 1503.56648254 1112.16692734 C1503.56675587 1112.9330671 1503.56702919 1113.69920687 1503.56731079 1114.48856299 C1503.57568977 1138.12369631 1503.58036247 1161.75882807 1503.58119011 1185.39396286 C1503.58121648 1186.13664174 1503.58124284 1186.87932062 1503.58127001 1187.64450491 C1503.58181094 1203.95263059 1503.581438 1220.26075614 1503.58023029 1236.56888177 C1503.57980472 1242.40501002 1503.57943958 1248.24113827 1503.57910085 1254.07726652 C1503.57901555 1255.52899112 1503.57892661 1256.98071571 1503.57883403 1258.43244031 C1503.577389 1281.50442151 1503.58448722 1304.57638994 1503.59583799 1327.64836808 C1503.60752131 1351.55112855 1503.60801455 1375.45386136 1503.59599457 1399.35662287 C1503.5893842 1413.11621837 1503.59095483 1426.87575399 1503.60458308 1440.63534465 C1503.61286699 1449.84709956 1503.6100792 1459.05880992 1503.59860782 1468.27056125 C1503.59239022 1473.50525829 1503.59064869 1478.73983906 1503.60247115 1483.97452909 C1503.74635599 1552.43522844 1492.66190593 1619.70106291 1466.21646404 1683.13142776 C1465.78897869 1684.15703812 1465.36149334 1685.18264847 1464.92105389 1686.23933792 C1444.90897049 1733.77452379 1418.31094516 1777.57164036 1385.21646404 1817.13142776 C1384.71936932 1817.72761917 1384.22227459 1818.32381058 1383.71011639 1818.93806839 C1372.85548528 1831.91355494 1361.27645914 1844.14771366 1349.34146404 1856.13142776 C1348.55698895 1856.92057571 1347.77251385 1857.70972366 1346.96426678 1858.52278519 C1342.20892047 1863.26502165 1337.31100136 1867.75828746 1332.21646404 1872.13142776 C1331.05987309 1873.1530081 1329.90487997 1874.17640075 1328.75162029 1875.20174026 C1320.26910302 1882.687671 1311.51218825 1889.69779872 1302.44644451 1896.46345901 C1300.18564682 1898.15447827 1297.93720583 1899.86105742 1295.68912029 1901.56892776 C1271.16643766 1920.06704252 1244.59619495 1935.30184564 1217.21646404 1949.13142776 C1215.92168133 1949.78691605 1215.92168133 1949.78691605 1214.60074139 1950.45564651 C1160.09563836 1977.81870268 1098.91628098 1993.76592426 1038.21646404 1999.13142776 C1037.28315079 1999.21400237 1036.34983753 1999.29657697 1035.38824206 1999.38165383 C1025.67991329 2000.15895266 1016.0435587 2000.27395777 1006.30988026 2000.26285553 C1004.52619082 2000.26450846 1002.74250173 2000.26659623 1000.95881325 2000.26907563 C996.07137935 2000.27460965 991.18396309 2000.27397589 986.29652707 2000.27229804 C980.97365822 2000.27156406 975.65079422 2000.27659664 970.32792747 2000.28087306 C959.77675358 2000.28843767 949.22558475 2000.29064534 938.67440843 2000.29120212 C926.03309785 2000.29211729 913.39179192 2000.29878944 900.75048335 2000.30554894 C870.92271441 2000.32121549 841.09494652 2000.3272959 811.26717422 2000.33195597 C796.08174929 2000.3343417 780.89632479 2000.33804571 765.71090019 2000.34199307 C716.96466144 2000.35465688 668.2184227 2000.36543993 619.47218233 2000.36883352 C617.1434583 2000.36899576 614.81473428 2000.36916132 612.48601025 2000.36932791 C607.815962 2000.3696617 603.14591374 2000.36999218 598.47586548 2000.37032247 C593.0087394 2000.37070936 587.54161332 2000.37109896 582.07448724 2000.37149353 C580.50976988 2000.37160595 578.94505252 2000.37171737 577.38033516 2000.37182778 C527.15663575 2000.3753751 476.93295066 2000.39044522 426.70925672 2000.41376553 C390.60965901 2000.43052082 354.51006402 2000.44598797 318.41046238 2000.45050049 C317.66711231 2000.45059397 316.92376224 2000.45068746 316.15788641 2000.45078378 C299.83453314 2000.45280342 283.51117993 2000.45395897 267.18782655 2000.45431236 C261.34595598 2000.45444852 255.50408543 2000.45465751 249.66221487 2000.45490562 C248.20901771 2000.45496718 246.75582055 2000.4550255 245.30262339 2000.45508057 C222.2024624 2000.45599817 199.10231642 2000.46593974 176.00216036 2000.48053805 C152.06356718 2000.49560559 128.12499823 2000.4997171 104.18640091 2000.49144509 C90.40463715 2000.48700246 76.62293485 2000.49079452 62.84117922 2000.5066836 C53.61429587 2000.51648401 44.38745524 2000.5152074 35.16057222 2000.50524737 C29.91705584 2000.49989158 24.67365684 2000.49902648 19.43015052 2000.51175609 C-9.22816238 2000.57700783 -37.43765608 1999.5453536 -65.78353596 1994.88142776 C-67.08436115 1994.67090775 -68.38518635 1994.46038773 -69.72543049 1994.24348831 C-116.60745381 1986.50102739 -161.78830571 1972.39987609 -204.78353596 1952.13142776 C-206.39905354 1951.37007523 -206.39905354 1951.37007523 -208.04720783 1950.59334183 C-246.13166379 1932.46605573 -281.45495701 1909.17650601 -313.78353596 1882.13142776 C-314.37972736 1881.63433304 -314.97591877 1881.13723831 -315.59017658 1880.62508011 C-328.56566313 1869.770449 -340.79982186 1858.19142287 -352.78353596 1846.25642776 C-353.57268391 1845.47195267 -354.36183186 1844.68747757 -355.17489338 1843.8792305 C-359.91712984 1839.12388419 -364.41039565 1834.22596509 -368.78353596 1829.13142776 C-369.80511629 1827.97483681 -370.82850895 1826.8198437 -371.85384846 1825.66658401 C-379.3397792 1817.18406675 -386.34990691 1808.42715197 -393.11556721 1799.36140823 C-394.80658646 1797.10061054 -396.51316562 1794.85216955 -398.22103596 1792.60408401 C-416.71915072 1768.08140138 -431.95395383 1741.51115867 -445.78353596 1714.13142776 C-446.43902424 1712.83664505 -446.43902424 1712.83664505 -447.10775471 1711.51570511 C-474.47081087 1657.01060208 -490.41803245 1595.8312447 -495.78353596 1535.13142776 C-495.90739786 1533.73145788 -495.90739786 1533.73145788 -496.03376202 1532.30320578 C-496.81106085 1522.59487701 -496.92606596 1512.95852242 -496.91496372 1503.22484398 C-496.91661666 1501.44115454 -496.91870443 1499.65746546 -496.92118382 1497.87377697 C-496.92671784 1492.98634307 -496.92608408 1488.09892681 -496.92440623 1483.21149079 C-496.92367225 1477.88862194 -496.92870483 1472.56575795 -496.93298125 1467.24289119 C-496.94054586 1456.6917173 -496.94275353 1446.14054847 -496.94331031 1435.58937215 C-496.94422548 1422.94806157 -496.95089763 1410.30675564 -496.95765713 1397.66544707 C-496.97332368 1367.83767813 -496.9794041 1338.00991024 -496.98406416 1308.18213795 C-496.98644989 1292.99671301 -496.9901539 1277.81128851 -496.99410126 1262.62586391 C-497.00676507 1213.87962516 -497.01754813 1165.13338642 -497.02094172 1116.38714605 C-497.02110395 1114.05842202 -497.02126951 1111.729698 -497.0214361 1109.40097397 C-497.02176989 1104.73092572 -497.02210037 1100.06087746 -497.02243066 1095.39082921 C-497.02281755 1089.92370312 -497.02320716 1084.45657704 -497.02360172 1078.98945096 C-497.02371414 1077.4247336 -497.02382556 1075.86001624 -497.02393598 1074.29529888 C-497.0274833 1024.07159947 -497.04255341 973.84791439 -497.06587372 923.62422044 C-497.08262902 887.52462273 -497.09809616 851.42502774 -497.10260868 815.3254261 C-497.10270217 814.58207603 -497.10279565 813.83872596 -497.10289197 813.07285013 C-497.10491161 796.74949687 -497.10606717 780.42614365 -497.10642056 764.10279027 C-497.10655672 758.26091971 -497.1067657 752.41904915 -497.10701381 746.57717859 C-497.10707537 745.12398143 -497.10713369 743.67078427 -497.10718876 742.21758711 C-497.10810637 719.11742612 -497.11804793 696.01728014 -497.13264625 672.91712408 C-497.14771378 648.9785309 -497.15182529 625.03996195 -497.14355329 601.10136463 C-497.13911066 587.31960088 -497.14290271 573.53789857 -497.15879179 559.75614294 C-497.1685922 550.52925959 -497.1673156 541.30241896 -497.15735556 532.07553594 C-497.15199978 526.83201957 -497.15113468 521.58862056 -497.16386428 516.34511425 C-497.22911602 487.68680134 -496.1974618 459.47730764 -491.53353596 431.13142776 C-491.32301594 429.83060257 -491.11249592 428.52977737 -490.8955965 427.18953323 C-483.15313558 380.30750991 -469.05198429 335.12665801 -448.78353596 292.13142776 C-448.02218342 290.51591019 -448.02218342 290.51591019 -447.24545002 288.86775589 C-429.11816393 250.78329993 -405.8286142 215.46000671 -378.78353596 183.13142776 C-378.28644123 182.53523636 -377.7893465 181.93904495 -377.2771883 181.32478714 C-366.42255719 168.34930059 -354.84353106 156.11514187 -342.90853596 144.13142776 C-342.12406086 143.34227982 -341.33958576 142.55313187 -340.53133869 141.74007034 C-335.77599238 136.99783388 -330.87807328 132.50456807 -325.78353596 128.13142776 C-324.62694501 127.10984743 -323.47195189 126.08645478 -322.31869221 125.06111526 C-313.83617494 117.57518453 -305.07926016 110.56505681 -296.01351643 103.79939651 C-293.75271873 102.10837726 -291.50427774 100.4017981 -289.25619221 98.69392776 C-264.73350957 80.19581301 -238.16326687 64.96100989 -210.78353596 51.13142776 C-209.92034748 50.69443558 -209.057159 50.25744339 -208.1678133 49.80720901 C-153.1610398 22.19230052 -91.94399671 6.66488819 -30.78353596 1.13142776 C-29.49075636 1.00756586 -29.49075636 1.00756586 -28.17186 0.8812017 C-18.7735604 0.05986939 -9.42373873 -0.01073082 0 0 Z " fill="#E44545" transform="translate(496.7835359573364,-0.13142776489257813)"/>
<path d="M0 0 C5.22314448 3.08109818 10.5860776 5.90458127 15.9296875 8.76953125 C23.16015172 12.65685345 30.32109029 16.61927673 37.3671875 20.83203125 C41.75975606 23.45815133 46.13178077 25.97448472 50.7421875 28.20703125 C62.23584754 33.77923384 73.23964304 40.41409604 84.29296875 46.8046875 C89.3170045 49.70720782 94.33333333 52.54594494 99.5546875 55.08203125 C105.41851952 57.95585117 111.07027934 61.16045652 116.7421875 64.39453125 C125.28432754 69.2645928 133.88618821 74.00310029 142.5546875 78.64453125 C153.91361935 84.73100417 165.16707447 90.96401866 176.33203125 97.3984375 C184.49745276 102.0978774 192.61367828 106.74140822 201.1015625 110.83984375 C205.03663237 112.86854558 208.81703591 115.12541786 212.6171875 117.39453125 C218.32972938 120.80548191 224.07612222 123.94730234 230.0625 126.859375 C238.35478258 131.02672418 246.34859764 135.7971799 254.38671875 140.4296875 C262.56862456 145.13921881 270.70808365 149.8018153 279.203125 153.9296875 C287.44749022 158.07397296 295.3947181 162.82375991 303.38671875 167.4296875 C311.5338005 172.11886495 319.63259696 176.75054325 328.1015625 180.83984375 C332.03663237 182.86854558 335.81703591 185.12541786 339.6171875 187.39453125 C345.32972938 190.80548191 351.07612222 193.94730234 357.0625 196.859375 C365.35478258 201.02672418 373.34859764 205.7971799 381.38671875 210.4296875 C392.04978505 216.6399713 392.04978505 216.6399713 402.9921875 222.33203125 C408.71940269 225.10665669 414.21646526 228.2437745 419.7421875 231.39453125 C428.28432431 236.26459739 436.88618858 241.00310049 445.5546875 245.64453125 C456.91361935 251.73100417 468.16707447 257.96401866 479.33203125 264.3984375 C487.49745276 269.0978774 495.61367828 273.74140822 504.1015625 277.83984375 C508.03663237 279.86854558 511.81703591 282.12541786 515.6171875 284.39453125 C521.32972938 287.80548191 527.07612222 290.94730234 533.0625 293.859375 C541.35478258 298.02672418 549.34859764 302.7971799 557.38671875 307.4296875 C565.57208721 312.14121192 573.71394837 316.80833456 582.21484375 320.93359375 C586.34037038 323.01023838 590.33851166 325.30160497 594.35058594 327.58666992 C599.54245084 330.53361706 604.78208881 333.38280196 610.04125977 336.20776367 C637.47910935 350.95440722 662.71714487 365.97390776 673.1171875 397.39453125 C675.63863308 405.79003806 676.54940931 413.4827804 676.49750423 422.22709274 C676.50216415 423.46865812 676.50682407 424.7102235 676.5116252 425.98941207 C676.52147203 429.41582482 676.51802 432.84174281 676.50879152 436.26812499 C676.50205403 440.00333894 676.51276168 443.7385111 676.52118737 447.47371602 C676.53353874 454.01373725 676.53477332 460.55368672 676.52863693 467.09371567 C676.51953608 476.81926985 676.52758581 486.54475781 676.53892817 496.27030691 C676.55858864 513.64254832 676.56094364 531.01475988 676.55573297 548.38700977 C676.55117457 563.59231284 676.5517765 578.7976041 676.55757332 594.0029068 C676.55833019 596.04307676 676.55908617 598.08324672 676.55984126 600.12341668 C676.56098647 603.19783969 676.56213635 606.2722627 676.56330051 609.3466857 C676.57400482 637.92834329 676.57873152 666.50999694 676.57083035 695.09165573 C676.57038459 696.70759419 676.57038459 696.70759419 676.56992982 698.35617786 C676.56748092 707.10434977 676.56486932 715.85252164 676.56224569 724.6006935 C676.55214462 758.71949144 676.56049629 792.83824017 676.58374023 826.95703125 C676.60981912 865.29906167 676.62265899 903.64106246 676.61555248 941.98310208 C676.61483644 946.0723656 676.61416205 950.16162911 676.61351204 954.25089264 C676.61334223 955.25775572 676.61317242 956.2646188 676.61299747 957.30199288 C676.61069556 972.49354309 676.61866636 987.68506577 676.63180351 1002.8766098 C676.64672016 1020.15663354 676.64755072 1037.43659281 676.6297326 1054.71661517 C676.62017562 1064.38257398 676.62159215 1074.04838237 676.63896729 1083.71433111 C676.64947126 1090.17739061 676.64533605 1096.64033575 676.62948725 1103.10338403 C676.62087159 1106.78153374 676.61839076 1110.45938913 676.63375657 1114.1375235 C676.70295274 1131.92038444 676.42277668 1148.11215428 668.3046875 1164.33203125 C667.95921875 1165.04166016 667.61375 1165.75128906 667.2578125 1166.48242188 C664.48383859 1172.01512807 661.24933988 1176.77678225 657.1171875 1181.39453125 C656.52550781 1182.12671875 655.93382812 1182.85890625 655.32421875 1183.61328125 C645.52675357 1195.41064139 632.78796669 1201.95073675 619.46484375 1209.0078125 C613.49273869 1212.17325526 607.61036912 1215.47878461 601.7421875 1218.83203125 C592.50878839 1224.0919144 583.17922149 1229.15234967 573.80908203 1234.16381836 C566.69025726 1237.98136616 559.63477377 1241.89421508 552.6171875 1245.89453125 C543.42537149 1251.13424884 534.1381258 1256.17436 524.80859375 1261.1640625 C517.68994572 1264.98155389 510.63461553 1268.89430528 503.6171875 1272.89453125 C494.42537149 1278.13424884 485.1381258 1283.17436 475.80859375 1288.1640625 C468.68994572 1291.98155389 461.63461553 1295.89430528 454.6171875 1299.89453125 C445.42537149 1305.13424884 436.1381258 1310.17436 426.80859375 1315.1640625 C419.68994572 1318.98155389 412.63461553 1322.89430528 405.6171875 1326.89453125 C396.42537149 1332.13424884 387.1381258 1337.17436 377.80859375 1342.1640625 C370.68994353 1345.98155507 363.63465599 1349.89437338 356.6171875 1353.89453125 C347.30447402 1359.20207285 337.8982533 1364.31681316 328.45043945 1369.37939453 C320.93675031 1373.40740942 313.46660714 1377.50372137 306.0234375 1381.66015625 C299.79665864 1385.13642384 293.54975285 1388.57627064 287.3046875 1392.01953125 C286.05362381 1392.70946223 284.8025659 1393.3994037 283.55151367 1394.08935547 C281.00754489 1395.49229254 278.46350769 1396.89510546 275.91943359 1398.29785156 C270.41857213 1401.33102865 264.91861179 1404.36583888 259.41860962 1407.40057373 C256.40150832 1409.06529767 253.38434466 1410.72990857 250.3671875 1412.39453125 C249.15885387 1413.06119738 247.95052054 1413.72786405 246.7421875 1414.39453125 C210.49218743 1434.39453129 210.49218743 1434.39453129 208.67976379 1435.39448547 C207.47117199 1436.0612972 206.26258435 1436.72811646 205.05400085 1437.39494324 C202.03715606 1439.05945223 199.02023968 1440.72383119 196.00317383 1442.38793945 C190.5180165 1445.41352906 185.03343016 1448.4401332 179.55145264 1451.47148132 C176.46954725 1453.17563089 173.38721564 1454.87900842 170.3046875 1456.58203125 C169.70049988 1456.91586823 169.09631226 1457.2497052 168.47381592 1457.59365845 C160.25352048 1462.13385616 152.00873755 1466.626494 143.7421875 1471.08203125 C135.06317459 1475.76036557 126.46858579 1480.57126123 117.90087891 1485.44995117 C109.60766201 1490.15536749 101.21679384 1494.66708866 92.80908203 1499.16381836 C85.69025726 1502.98136616 78.63477377 1506.89421508 71.6171875 1510.89453125 C62.42537149 1516.13424884 53.1381258 1521.17436 43.80859375 1526.1640625 C36.68992356 1529.98156578 29.63504291 1533.89502969 22.6171875 1537.89453125 C14.22557038 1542.66758959 5.79033069 1547.35301599 -2.6953125 1551.95703125 C-4.29632812 1552.83294922 -4.29632812 1552.83294922 -5.9296875 1553.7265625 C-27.52823852 1565.38378802 -52.13545284 1569.91401655 -76.140625 1562.77734375 C-88.80381242 1558.09804485 -100.49938433 1551.54119438 -112.21679688 1544.90039062 C-117.46617105 1541.9353595 -122.73815794 1539.0108161 -128.0078125 1536.08203125 C-129.16039551 1535.44080322 -130.31297852 1534.7995752 -131.50048828 1534.13891602 C-139.01614433 1529.96236476 -146.56324337 1525.84745962 -154.1328125 1521.76953125 C-162.85396072 1517.07121658 -171.49050552 1512.24116463 -180.09863281 1507.33935547 C-188.3920488 1502.63392125 -196.78304494 1498.12206007 -205.19091797 1493.62524414 C-213.26264683 1489.29669107 -221.24249926 1484.82472368 -229.19921875 1480.2890625 C-236.37019179 1476.21531853 -243.61045536 1472.28399735 -250.8828125 1468.39453125 C-260.06316359 1463.48461503 -269.1549218 1458.44468808 -278.19921875 1453.2890625 C-285.37019179 1449.21531853 -292.61045536 1445.28399735 -299.8828125 1441.39453125 C-309.06316359 1436.48461503 -318.1549218 1431.44468808 -327.19921875 1426.2890625 C-334.37019179 1422.21531853 -341.61045536 1418.28399735 -348.8828125 1414.39453125 C-358.06316359 1409.48461503 -367.1549218 1404.44468808 -376.19921875 1399.2890625 C-383.37019179 1395.21531853 -390.61045536 1391.28399735 -397.8828125 1387.39453125 C-407.06316359 1382.48461503 -416.1549218 1377.44468808 -425.19921875 1372.2890625 C-432.37019179 1368.21531853 -439.61045536 1364.28399735 -446.8828125 1360.39453125 C-456.06316359 1355.48461503 -465.1549218 1350.44468808 -474.19921875 1345.2890625 C-481.37019179 1341.21531853 -488.61045536 1337.28399735 -495.8828125 1333.39453125 C-505.06316359 1328.48461503 -514.1549218 1323.44468808 -523.19921875 1318.2890625 C-530.37019179 1314.21531853 -537.61045536 1310.28399735 -544.8828125 1306.39453125 C-554.06316359 1301.48461503 -563.1549218 1296.44468808 -572.19921875 1291.2890625 C-579.37019262 1287.21531806 -586.61047038 1283.2840267 -593.8828125 1279.39453125 C-603.10889525 1274.45972904 -612.24876081 1269.39753242 -621.33984375 1264.21875 C-628.14043742 1260.35413677 -634.99485992 1256.6009481 -641.8828125 1252.89453125 C-649.72831539 1248.67285525 -657.51653906 1244.36688771 -665.2578125 1239.95703125 C-673.4048439 1235.31759384 -681.61581882 1230.81655375 -689.8828125 1226.39453125 C-700.22859107 1220.85884795 -710.47598049 1215.17204717 -720.6640625 1209.3515625 C-723.89112735 1207.51046555 -727.13258932 1205.71093783 -730.4140625 1203.96875 C-752.09357798 1192.39437203 -766.7679832 1175.47655505 -775.09375 1152.25 C-777.45684354 1143.69840902 -778.17201753 1135.66686755 -778.14008141 1126.8052721 C-778.14358748 1125.56571482 -778.14709355 1124.32615753 -778.15070587 1123.0490379 C-778.15838776 1119.61903989 -778.15717819 1116.1892573 -778.15215033 1112.75926853 C-778.14887332 1109.02355805 -778.15717485 1105.28786991 -778.16396868 1101.55216664 C-778.174262 1095.00820351 -778.17711364 1088.46426996 -778.17505646 1081.92029953 C-778.17200475 1072.18889531 -778.18033421 1062.4575238 -778.19080571 1052.72612595 C-778.2101441 1034.33370345 -778.21577387 1015.94129211 -778.21691982 997.54886065 C-778.21783903 983.34489572 -778.22195634 969.14093517 -778.22832108 954.93697166 C-778.23011617 950.84786247 -778.2318958 946.75875326 -778.23367083 942.66964406 C-778.23411293 941.65306939 -778.23455502 940.63649473 -778.23501052 939.58911477 C-778.24731833 910.99602939 -778.2552117 882.40294552 -778.25432396 853.80985737 C-778.2542928 852.73190782 -778.25426164 851.65395826 -778.25422954 850.54334357 C-778.25406333 845.0798903 -778.25386525 839.61643703 -778.25366013 834.15298376 C-778.25362024 833.06792916 -778.25358035 831.98287457 -778.25353925 830.86493953 C-778.25345837 828.67069487 -778.25337478 826.47645022 -778.25328846 824.28220557 C-778.25206297 790.14360504 -778.2670762 756.00504424 -778.29443359 721.86645508 C-778.32515943 683.50870324 -778.34236579 645.15097751 -778.34050715 606.79321259 C-778.34035789 602.70253162 -778.34026048 598.61185064 -778.34019852 594.52116966 C-778.34017521 593.51394616 -778.3401519 592.50672266 -778.34012788 591.46897723 C-778.34006636 575.26548283 -778.35283393 559.06202295 -778.37006305 542.85853881 C-778.38702257 526.57166782 -778.38899084 510.28484728 -778.3758444 493.99797235 C-778.36845748 484.32514511 -778.37210554 474.65247123 -778.39172908 464.97966026 C-778.4037381 458.51323317 -778.40112777 452.04691701 -778.38678809 445.58049499 C-778.37903288 441.89956194 -778.37745042 438.2189254 -778.39370279 434.53801338 C-778.46470352 417.34909572 -778.43057379 401.73050937 -770.1953125 386.20703125 C-769.8557251 385.54904541 -769.5161377 384.89105957 -769.16625977 384.21313477 C-759.29857145 365.68398363 -744.70565822 354.24532494 -726.5078125 344.39453125 C-725.33447767 343.75219842 -724.16155488 343.10911243 -722.98901367 342.46533203 C-720.53576665 341.11951327 -718.08044034 339.77760463 -715.62353516 338.43847656 C-711.91424129 336.41469763 -708.21566161 334.37191861 -704.51953125 332.32421875 C-693.21220222 326.06242898 -681.88561866 319.84021234 -670.5078125 313.70703125 C-661.78316029 309.00353175 -653.14031264 304.17082534 -644.52587891 299.26879883 C-636.69523756 294.82439882 -628.78752822 290.53379576 -620.85888672 286.26733398 C-614.02601332 282.58090196 -607.25378239 278.79990789 -600.5078125 274.95703125 C-591.27362092 269.69849574 -581.94488818 264.63673512 -572.57470703 259.62524414 C-565.45588226 255.80769634 -558.40039877 251.89484742 -551.3828125 247.89453125 C-542.19099649 242.65481366 -532.9037508 237.6147025 -523.57421875 232.625 C-516.45556853 228.80750743 -509.40028099 224.89468912 -502.3828125 220.89453125 C-493.07009902 215.58698965 -483.6638783 210.47224934 -474.21606445 205.40966797 C-466.70237531 201.38165308 -459.23223214 197.28534113 -451.7890625 193.12890625 C-445.56228364 189.65263866 -439.31537785 186.21279186 -433.0703125 182.76953125 C-431.81924881 182.07960027 -430.5681909 181.3896588 -429.31713867 180.69970703 C-426.77316989 179.29676996 -424.22913269 177.89395704 -421.68505859 176.49121094 C-416.18419713 173.45803385 -410.68423679 170.42322362 -405.18423462 167.38848877 C-402.16713332 165.72376483 -399.14996966 164.05915393 -396.1328125 162.39453125 C-394.92447887 161.72786512 -393.71614554 161.06119845 -392.5078125 160.39453125 C-269.25781252 92.39453126 -269.25781252 92.39453126 -267.44538879 91.39457703 C-266.23679699 90.7277653 -265.02820935 90.06094604 -263.81962585 89.39411926 C-260.80278106 87.72961027 -257.78586468 86.06523131 -254.76879883 84.40112305 C-249.2836415 81.37553344 -243.79905516 78.3489293 -238.31707764 75.31758118 C-235.23517225 73.61343161 -232.15284064 71.91005408 -229.0703125 70.20703125 C-228.46612488 69.87319427 -227.86193726 69.5393573 -227.23944092 69.19540405 C-219.01914548 64.65520634 -210.77436255 60.1625685 -202.5078125 55.70703125 C-193.82879959 51.02869693 -185.23421079 46.21780127 -176.66650391 41.33911133 C-168.37470866 36.63450162 -159.98520798 32.12370199 -151.57910156 27.62744141 C-144.41810722 23.7870093 -137.31908163 19.85263515 -130.2578125 15.83203125 C-119.4100292 9.65993543 -108.48116758 3.64932771 -97.46923828 -2.22509766 C-95.8769162 -3.07491728 -94.2863448 -3.92803869 -92.69873047 -4.78662109 C-61.48244924 -21.62914892 -29.63945418 -17.58914197 0 0 Z " fill="#FEFEFE" transform="translate(1050.8828125,224.60546875)"/>
<path d="M0 0 C0.33 207.9 0.66 415.8 1 630 C-2.66163308 628.53534677 -5.92045674 627.05405549 -9.3671875 625.19921875 C-10.40552734 624.64105469 -11.44386719 624.08289062 -12.51367188 623.5078125 C-14.1775293 622.60675781 -14.1775293 622.60675781 -15.875 621.6875 C-17.03322266 621.06230469 -18.19144531 620.43710938 -19.38476562 619.79296875 C-27.75335146 615.26489085 -36.04554393 610.60891684 -44.31201172 605.8972168 C-51.48427577 601.82226266 -58.72612895 597.89027578 -66 594 C-75.18035109 589.09008378 -84.2721093 584.05015683 -93.31640625 578.89453125 C-100.48737929 574.82078728 -107.72764286 570.8894661 -115 567 C-124.18035109 562.09008378 -133.2721093 557.05015683 -142.31640625 551.89453125 C-149.48737929 547.82078728 -156.72764286 543.8894661 -164 540 C-172.22641389 535.60027687 -180.39519734 531.11996946 -188.5 526.5 C-197.81271348 521.1924584 -207.2189342 516.07771809 -216.66674805 511.01513672 C-224.18043719 506.98712183 -231.65058036 502.89080988 -239.09375 498.734375 C-245.32052886 495.25810741 -251.56743465 491.81826061 -257.8125 488.375 C-259.06356369 487.68506902 -260.3146216 486.99512755 -261.56567383 486.30517578 C-264.10964261 484.90223871 -266.65367981 483.49942579 -269.19775391 482.09667969 C-274.69861537 479.0635026 -280.19857571 476.02869237 -285.69857788 472.99395752 C-288.71567918 471.32923358 -291.73284284 469.66462268 -294.75 468 C-295.95833363 467.33333387 -297.16666696 466.6666672 -298.375 466 C-298.973125 465.67 -299.57125 465.34 -300.1875 465 C-321.33333333 453.33333333 -342.47916667 441.66666667 -363.625 430 C-364.52214973 429.50502266 -364.52214973 429.50502266 -365.43742371 429.00004578 C-366.64601551 428.33323405 -367.85460315 427.66641479 -369.06318665 426.99958801 C-372.08003144 425.33507902 -375.09694782 423.67070006 -378.11401367 422.0065918 C-383.599171 418.98100219 -389.08375734 415.95439805 -394.56573486 412.92304993 C-397.64764025 411.21890036 -400.72997186 409.51552283 -403.8125 407.8125 C-404.41668762 407.47866302 -405.02087524 407.14482605 -405.64337158 406.8008728 C-413.86366738 402.26067489 -422.10847179 397.76807821 -430.375 393.3125 C-439.0996752 388.60904457 -447.742501 383.77629344 -456.35693359 378.87426758 C-464.18757494 374.42986757 -472.09528428 370.13926451 -480.02392578 365.87280273 C-486.85679918 362.18637071 -493.62903011 358.40537664 -500.375 354.5625 C-509.59836757 349.31012837 -518.91600702 344.25401786 -528.27514648 339.24829102 C-536.64322577 334.76062414 -544.92915684 330.14089417 -553.17773438 325.4375 C-559.41189391 321.88305715 -565.68906684 318.41630839 -572 315 C-568.86893193 312.52194044 -565.60722349 310.58511856 -562.109375 308.6640625 C-561.53669891 308.34857956 -560.96402283 308.03309662 -560.37399292 307.70805359 C-558.50097069 306.67734866 -556.62552967 305.65113405 -554.75 304.625 C-553.4378756 303.90409504 -552.12586519 303.18298254 -550.81396484 302.46166992 C-541.79117054 297.50586957 -532.73767082 292.60771441 -523.67626953 287.72290039 C-515.98650273 283.56493454 -508.38008143 279.27017526 -500.78369141 274.94458008 C-492.49047451 270.23916376 -484.09960634 265.72744259 -475.69189453 261.23071289 C-468.57306976 257.41316509 -461.51758627 253.50031617 -454.5 249.5 C-446.39524306 244.87995132 -438.22639423 240.39975491 -430 236 C-420.77391725 231.06519779 -411.63405169 226.00300117 -402.54296875 220.82421875 C-394.74682742 216.39385981 -386.87171806 212.12147825 -378.97558594 207.87255859 C-372.14289131 204.18617929 -365.37081169 200.40528652 -358.625 196.5625 C-349.39080842 191.30396449 -340.06207568 186.24220387 -330.69189453 181.23071289 C-323.57306976 177.41316509 -316.51758627 173.50031617 -309.5 169.5 C-300.30818399 164.26028241 -291.0209383 159.22017125 -281.69140625 154.23046875 C-274.57275822 150.41297736 -267.51742803 146.50022597 -260.5 142.5 C-251.30818399 137.26028241 -242.0209383 132.22017125 -232.69140625 127.23046875 C-225.57275822 123.41297736 -218.51742803 119.50022597 -211.5 115.5 C-202.30818399 110.26028241 -193.0209383 105.22017125 -183.69140625 100.23046875 C-176.57275822 96.41297736 -169.51742803 92.50022597 -162.5 88.5 C-153.30818399 83.26028241 -144.0209383 78.22017125 -134.69140625 73.23046875 C-127.57275603 69.41297618 -120.51746849 65.50015787 -113.5 61.5 C-104.18728652 56.1924584 -94.7810658 51.07771809 -85.33325195 46.01513672 C-77.82882495 41.99208717 -70.36781398 37.90090517 -62.93359375 33.75 C-56.55095754 30.18684508 -50.15016127 26.65653947 -43.75 23.125 C-42.81901993 22.61113235 -42.81901993 22.61113235 -41.86923218 22.08688354 C-32.52659212 16.93100694 -23.16913333 11.80304923 -13.78808594 6.71728516 C-10.49204136 4.92673815 -7.22790331 3.14004059 -4.03125 1.17578125 C-2 0 -2 0 0 0 Z " fill="#DF3A3A" transform="translate(962,1065)"/>
<path d="M0 0 C0.93700318 2.81100953 1.12300157 4.48812393 1.11778647 7.39293784 C1.11860034 8.2984323 1.11941422 9.20392677 1.12025276 10.13686046 C1.1160214 11.13490401 1.11179004 12.13294756 1.10743046 13.16123486 C1.10689593 14.22330669 1.1063614 15.28537852 1.10581067 16.37963435 C1.10275816 19.97448215 1.09247792 23.56927411 1.08229065 27.16410828 C1.07859947 29.75294669 1.07534954 32.34178577 1.07250541 34.93062526 C1.06558589 40.57775931 1.05491847 46.22487676 1.04183006 51.87199974 C1.02238477 60.26912353 1.00867782 68.66624975 0.99616829 77.06338638 C0.97496379 91.18727727 0.94907329 105.31115598 0.92053413 119.4350338 C0.89228227 133.4242691 0.86609968 147.41350573 0.84269524 161.40275002 C0.84051261 162.70629983 0.84051261 162.70629983 0.83828588 164.03618399 C0.83090738 168.44936523 0.82356598 172.86254652 0.81623887 177.27572785 C0.76424195 208.55369936 0.70758351 239.83166087 0.64819336 271.10961914 C0.59049871 301.50024024 0.53490954 331.890864 0.48217773 362.28149414 C0.48055215 363.21787262 0.47892657 364.1542511 0.47725173 365.11900468 C0.46092965 374.52229751 0.44465045 383.92559041 0.42840267 393.32888336 C0.39530157 412.48535403 0.36191424 431.6418242 0.32835388 450.79829407 C0.3268111 451.67912375 0.32526832 452.55995344 0.32367879 453.46747493 C0.22058001 512.31165867 0.11080821 571.15583034 0 630 C-3.82139295 628.76012302 -7.22627555 627.47142222 -10.703125 625.453125 C-11.58742188 624.94523438 -12.47171875 624.43734375 -13.3828125 623.9140625 C-14.32898438 623.36492188 -15.27515625 622.81578125 -16.25 622.25 C-24.76612343 617.36800636 -33.34089332 612.62354335 -42 608 C-50.22673584 603.60089709 -58.39521419 599.11995986 -66.5 594.5 C-75.81271348 589.1924584 -85.2189342 584.07771809 -94.66674805 579.01513672 C-102.18043719 574.98712183 -109.65058036 570.89080988 -117.09375 566.734375 C-123.32052886 563.25810741 -129.56743465 559.81826061 -135.8125 556.375 C-137.06356369 555.68506902 -138.3146216 554.99512755 -139.56567383 554.30517578 C-142.10964261 552.90223871 -144.65367981 551.49942579 -147.19775391 550.09667969 C-152.69861537 547.0635026 -158.19857571 544.02869237 -163.69857788 540.99395752 C-166.71567918 539.32923358 -169.73284284 537.66462268 -172.75 536 C-173.95833363 535.33333387 -175.16666696 534.6666672 -176.375 534 C-176.973125 533.67 -177.57125 533.34 -178.1875 533 C-209.90625 515.5 -209.90625 515.5 -241.625 498 C-242.52214973 497.50502266 -242.52214973 497.50502266 -243.43742371 497.00004578 C-244.64601551 496.33323405 -245.85460315 495.66641479 -247.06318665 494.99958801 C-250.08003144 493.33507902 -253.09694782 491.67070006 -256.11401367 490.0065918 C-261.599171 486.98100219 -267.08375734 483.95439805 -272.56573486 480.92304993 C-275.64764025 479.21890036 -278.72997186 477.51552283 -281.8125 475.8125 C-282.71878143 475.31174454 -282.71878143 475.31174454 -283.64337158 474.8008728 C-291.86366702 470.26067509 -300.10844995 465.76803725 -308.375 461.3125 C-317.05401291 456.63416568 -325.64860171 451.82327002 -334.21630859 446.94458008 C-342.50952549 442.23916376 -350.90039366 437.72744259 -359.30810547 433.23071289 C-367.37983433 428.90215982 -375.35968676 424.43019243 -383.31640625 419.89453125 C-390.48738012 415.82078681 -397.72765788 411.88949545 -405 408 C-414.22608275 403.06519779 -423.36594831 398.00300117 -432.45703125 392.82421875 C-439.25762492 388.95960552 -446.11204742 385.20641685 -453 381.5 C-460.84550507 377.27832283 -468.63368185 372.97228063 -476.375 368.5625 C-485.73013313 363.23620214 -495.17780657 358.09978823 -504.66625977 353.01538086 C-511.43048503 349.38918263 -518.1673116 345.72173375 -524.86645508 341.97680664 C-529.63388024 339.3122598 -534.41274075 336.66921984 -539.19921875 334.0390625 C-540.49699574 333.32537046 -541.79476587 332.61166592 -543.0925293 331.89794922 C-545.02209914 330.83685519 -546.95196801 329.7763292 -548.88296509 328.71783447 C-556.34700565 324.62581919 -563.74312842 320.45194022 -571 316 C-568.04990807 312.77028266 -565.16253763 310.80410218 -561.29296875 308.78515625 C-559.59503174 307.88978149 -559.59503174 307.88978149 -557.86279297 306.97631836 C-556.96485016 306.50885696 -556.96485016 306.50885696 -556.04876709 306.0319519 C-552.86396177 304.37312733 -549.69218766 302.68972407 -546.51953125 301.0078125 C-545.87834351 300.66852219 -545.23715576 300.32923187 -544.57653809 299.97966003 C-538.78192146 296.90462396 -533.06944276 293.6941307 -527.375 290.4375 C-519.31309332 285.83583906 -511.18570303 281.37761359 -503 277 C-493.77389804 272.06523506 -484.63405063 267.00300057 -475.54296875 261.82421875 C-467.74682742 257.39385981 -459.87171806 253.12147825 -451.97558594 248.87255859 C-445.14289131 245.18617929 -438.37081169 241.40528652 -431.625 237.5625 C-422.38938792 232.30315557 -413.05930573 227.24044239 -403.6875 222.22851562 C-396.61082241 218.43383637 -389.59917646 214.54208036 -382.625 210.5625 C-374.05182239 205.67308034 -365.39640996 200.9540787 -356.6875 196.3125 C-346.90239626 191.09638636 -337.16277809 185.81262574 -327.48876953 180.39306641 C-312.47298896 171.98811801 -297.41968801 163.6579565 -282.27563477 155.48632812 C-276.3093473 152.26297288 -270.37645245 148.99022625 -264.4765625 145.6472168 C-257.78272494 141.86093092 -251.04767449 138.14955264 -244.3125 134.4375 C-243.69178619 134.09536469 -243.07107239 133.75322937 -242.43154907 133.40072632 C-239.23273492 131.63769816 -236.03366366 129.87513717 -232.83447266 128.11279297 C-227.32086347 125.07522291 -221.80949882 122.03358617 -216.29803467 118.99212646 C-214.49517567 117.99733801 -212.69218813 117.00278292 -210.88916016 116.00830078 C-205.40292735 112.98217324 -199.91729414 109.95497948 -194.43426514 106.92304993 C-191.35235975 105.21890036 -188.27002814 103.51552283 -185.1875 101.8125 C-184.58331238 101.47866302 -183.97912476 101.14482605 -183.35662842 100.8008728 C-175.13633262 96.26067489 -166.89152821 91.76807821 -158.625 87.3125 C-149.90407874 82.61106831 -141.26521453 77.77999509 -132.65405273 72.88085938 C-124.69862746 68.36640909 -116.66904147 63.99840389 -108.61791992 59.6574707 C-102.11741101 56.151501 -95.64361638 52.60304544 -89.19335938 49.00561523 C-82.20296179 45.1077757 -75.19630878 41.23960037 -68.1875 37.375 C-67.26523621 36.86644974 -67.26523621 36.86644974 -66.32434082 36.34762573 C-63.80007471 34.955728 -61.27580372 33.56383912 -58.75146484 32.17207336 C-54.32017462 29.72870995 -49.89024382 27.28289517 -45.4609375 24.8359375 C-34.09058715 18.55528856 -22.71574823 12.28331409 -11.3125 6.0625 C-10.39154541 5.56008789 -9.47059082 5.05767578 -8.52172852 4.54003906 C-2.27146541 1.13573271 -2.27146541 1.13573271 0 0 Z " fill="#EB6060" transform="translate(962,305)"/>
<path d="M0 0 C18.6234375 9.31171875 18.6234375 9.31171875 27.5625 14.1875 C28.57715332 14.73865479 29.59180664 15.28980957 30.63720703 15.85766602 C38.54212474 20.16727108 46.37795675 24.59289645 54.20214844 29.046875 C62.61961335 33.82241595 71.13208831 38.41132195 79.66186523 42.98242188 C87.98630781 47.44534305 96.25744872 51.99378707 104.50097656 56.60400391 C119.20672661 64.81888069 133.94188507 72.9818919 148.6875 81.125 C149.29423553 81.46006561 149.90097107 81.79513123 150.52609253 82.14035034 C158.7858709 86.69935196 167.07023225 91.21088656 175.375 95.6875 C184.0539901 100.36587802 192.64860059 105.17672934 201.21630859 110.05541992 C209.50952549 114.76083624 217.90039366 119.27255741 226.30810547 123.76928711 C234.37983433 128.09784018 242.35968676 132.56980757 250.31640625 137.10546875 C257.48737929 141.17921272 264.72764286 145.1105339 272 149 C281.18035109 153.90991622 290.2721093 158.94984317 299.31640625 164.10546875 C306.48737929 168.17921272 313.72764286 172.1105339 321 176 C330.18035109 180.90991622 339.2721093 185.94984317 348.31640625 191.10546875 C355.48737929 195.17921272 362.72764286 199.1105339 370 203 C379.18035109 207.90991622 388.2721093 212.94984317 397.31640625 218.10546875 C404.48737929 222.17921272 411.72764286 226.1105339 419 230 C427.22641389 234.39972313 435.39519734 238.88003054 443.5 243.5 C452.81129334 248.80673224 462.21616833 253.92051314 471.66235352 258.98266602 C479.97906071 263.44148498 488.24295819 267.9851485 496.47900391 272.59082031 C501.69092765 275.50416758 506.90740789 278.40931905 512.125 281.3125 C513.27685791 281.95348633 514.42871582 282.59447266 515.61547852 283.25488281 C523.17372977 287.45256159 530.76267553 291.58884267 538.375 295.6875 C549.35947293 301.60291927 560.20242434 307.75083492 571 314 C571 314.99 571 315.98 571 317 C570.33282959 317.35602295 569.66565918 317.7120459 568.97827148 318.07885742 C557.08320152 324.43448183 545.21680602 330.81990025 533.5 337.5 C524.30822175 342.73978465 515.02093701 347.77982944 505.69140625 352.76953125 C498.57275822 356.58702264 491.51742803 360.49977403 484.5 364.5 C476.39524306 369.12004868 468.22639423 373.60024509 460 378 C450.77391725 382.93480221 441.63405169 387.99699883 432.54296875 393.17578125 C424.74682742 397.60614019 416.87171806 401.87852175 408.97558594 406.12744141 C402.14289131 409.81382071 395.37081169 413.59471348 388.625 417.4375 C379.39080842 422.69603551 370.06207568 427.75779613 360.69189453 432.76928711 C353.57306976 436.58683491 346.51758627 440.49968383 339.5 444.5 C330.30818399 449.73971759 321.0209383 454.77982875 311.69140625 459.76953125 C304.57275822 463.58702264 297.51742803 467.49977403 290.5 471.5 C281.30818399 476.73971759 272.0209383 481.77982875 262.69140625 486.76953125 C255.57275603 490.58702382 248.51746849 494.49984213 241.5 498.5 C232.18728652 503.8075416 222.7810658 508.92228191 213.33325195 513.98486328 C205.81956281 518.01287817 198.34941964 522.10919012 190.90625 526.265625 C184.67947114 529.74189259 178.43256535 533.18173939 172.1875 536.625 C170.93643631 537.31493098 169.6853784 538.00487245 168.43432617 538.69482422 C165.89035739 540.09776129 163.34632019 541.50057421 160.80224609 542.90332031 C155.30138463 545.9364974 149.80142429 548.97130763 144.30142212 552.00604248 C141.28432082 553.67076642 138.26715716 555.33537732 135.25 557 C134.04166637 557.66666613 132.83333304 558.3333328 131.625 559 C109.875 571 88.125 583 66.375 595 C65.47796356 595.49491692 65.47796356 595.49491692 64.56280518 595.99983215 C63.35345518 596.66705938 62.1441046 597.33428554 60.93475342 598.00151062 C57.92947012 599.65959186 54.92419687 601.3176913 51.91894531 602.97583008 C46.29624114 606.07811562 40.67343729 609.18022008 35.05029297 612.28170776 C32.41687289 613.73420453 29.78350769 615.1868008 27.15014648 616.6394043 C25.90424281 617.32662831 24.65831275 618.01380447 23.41235352 618.70092773 C21.67587541 619.65856703 19.93949873 620.61639023 18.203125 621.57421875 C17.14158203 622.15864746 16.08003906 622.74307617 14.98632812 623.34521484 C13.06788393 624.40826379 11.15461692 625.48074038 9.24804688 626.56494141 C8.43916016 627.02433105 7.63027344 627.4837207 6.796875 627.95703125 C6.10432617 628.35510986 5.41177734 628.75318848 4.69824219 629.16333008 C3 630 3 630 1 630 C0.67 422.1 0.34 214.2 0 0 Z " fill="#EB5F5F" transform="translate(1037,305)"/>
<path d="M0 0 C3.803355 1.521342 7.21296295 3.09814083 10.8046875 5.01953125 C11.93342285 5.62289307 13.0621582 6.22625488 14.22509766 6.84790039 C15.44185813 7.50253212 16.65848907 8.15740466 17.875 8.8125 C18.49703308 9.14635712 19.11906616 9.48021423 19.75994873 9.82418823 C29.04902342 14.81136877 38.25586332 19.92848987 47.41357422 25.15356445 C54.55077692 29.2140022 61.75919267 33.12774217 69 37 C77.2264309 41.39968995 85.39519832 45.8800311 93.5 50.5 C102.81271348 55.8075416 112.2189342 60.92228191 121.66674805 65.98486328 C129.18043719 70.01287817 136.65058036 74.10919012 144.09375 78.265625 C150.32052886 81.74189259 156.56743465 85.18173939 162.8125 88.625 C164.06356369 89.31493098 165.3146216 90.00487245 166.56567383 90.69482422 C169.10964261 92.09776129 171.65367981 93.50057421 174.19775391 94.90332031 C179.69861537 97.9364974 185.19857571 100.97130763 190.69857788 104.00604248 C193.71567918 105.67076642 196.73284284 107.33537732 199.75 109 C200.95833363 109.66666613 202.16666696 110.3333328 203.375 111 C203.973125 111.33 204.57125 111.66 205.1875 112 C207 113 208.8125 114 210.625 115 C211.22309982 115.32998489 211.82119965 115.65996979 212.43742371 115.99995422 C213.64601551 116.66676595 214.85460315 117.33358521 216.06318665 118.00041199 C219.08003144 119.66492098 222.09694782 121.32929994 225.11401367 122.9934082 C230.599171 126.01899781 236.08375734 129.04560195 241.56573486 132.07695007 C244.64764025 133.78109964 247.72997186 135.48447717 250.8125 137.1875 C251.41668762 137.52133698 252.02087524 137.85517395 252.64337158 138.1991272 C260.86366702 142.73932491 269.10844995 147.23196275 277.375 151.6875 C286.05401291 156.36583432 294.64860171 161.17672998 303.21630859 166.05541992 C311.50952549 170.76083624 319.90039366 175.27255741 328.30810547 179.76928711 C336.37983433 184.09784018 344.35968676 188.56980757 352.31640625 193.10546875 C359.48737929 197.17921272 366.72764286 201.1105339 374 205 C383.18035109 209.90991622 392.2721093 214.94984317 401.31640625 220.10546875 C408.48737929 224.17921272 415.72764286 228.1105339 423 232 C432.18035109 236.90991622 441.2721093 241.94984317 450.31640625 247.10546875 C457.48737929 251.17921272 464.72764286 255.1105339 472 259 C481.18035109 263.90991622 490.2721093 268.94984317 499.31640625 274.10546875 C506.48738431 278.17921557 513.72773308 282.11035768 521 286 C533.10872569 292.47948324 545.0761388 299.18736253 557 306 C558.51427447 306.86336622 560.02859396 307.72665349 561.54296875 308.58984375 C564.69756088 310.38931562 567.84979175 312.19286147 571 314 C568.00834772 317.28517963 565.04350207 319.26233585 561.1171875 321.3203125 C559.38094116 322.23864868 559.38094116 322.23864868 557.60961914 323.17553711 C557.00054718 323.49344208 556.39147522 323.81134705 555.76394653 324.1388855 C553.20140021 325.47664919 550.64752649 326.83058729 548.09309387 328.1837616 C546.81746135 328.85936877 545.54141071 329.5341871 544.26493835 330.20820618 C539.49763063 332.72704041 534.76617882 335.30211761 530.0625 337.9375 C528.65368559 338.72533151 527.24482974 339.51308893 525.8359375 340.30078125 C525.08538086 340.72053223 524.33482422 341.1402832 523.56152344 341.57275391 C518.11355949 344.60828548 512.64906495 347.61403073 507.1875 350.625 C505.9362691 351.31500429 504.68504845 352.00502718 503.43383789 352.69506836 C500.89003457 354.09792896 498.34616184 355.5006636 495.80224609 356.90332031 C490.30138463 359.9364974 484.80142429 362.97130763 479.30142212 366.00604248 C476.28432082 367.67076642 473.26715716 369.33537732 470.25 371 C469.04166637 371.66666613 467.83333304 372.3333328 466.625 373 C314.37499999 457.00000001 314.37499999 457.00000001 312.56257629 457.99995422 C311.35398449 458.66676595 310.14539685 459.33358521 308.93681335 460.00041199 C305.91996856 461.66492098 302.90305218 463.32929994 299.88598633 464.9934082 C294.400829 468.01899781 288.91624266 471.04560195 283.43426514 474.07695007 C280.35235975 475.78109964 277.27002814 477.48447717 274.1875 479.1875 C273.58331238 479.52133698 272.97912476 479.85517395 272.35662842 480.1991272 C264.13633262 484.73932511 255.89152821 489.23192179 247.625 493.6875 C238.9003248 498.39095543 230.257499 503.22370656 221.64306641 508.12573242 C213.81242506 512.57013243 205.90471572 516.86073549 197.97607422 521.12719727 C191.14320082 524.81362929 184.37096989 528.59462336 177.625 532.4375 C168.39080842 537.69603551 159.06207568 542.75779613 149.69189453 547.76928711 C142.57306976 551.58683491 135.51758627 555.49968383 128.5 559.5 C119.30818399 564.73971759 110.0209383 569.77982875 100.69140625 574.76953125 C93.57275822 578.58702264 86.51742803 582.49977403 79.5 586.5 C71.39524012 591.12005036 63.22634315 595.60014547 55 600 C43.79739698 605.99355883 32.72585431 612.19576305 21.68212891 618.47607422 C17.35718646 620.93340999 13.02625348 623.3796362 8.6875 625.8125 C7.55731445 626.45300293 7.55731445 626.45300293 6.40429688 627.10644531 C1.22942577 630 1.22942577 630 -1 630 C-0.67 422.1 -0.34 214.2 0 0 Z " fill="#DE3838" transform="translate(1038,1065)"/>
<path d="M0 0 C0 207.24 0 414.48 0 628 C-4.2161616 626.5946128 -7.41057846 625.38865971 -11.203125 623.3125 C-12.65851685 622.52008911 -12.65851685 622.52008911 -14.14331055 621.71166992 C-15.16851807 621.14681885 -16.19372559 620.58196777 -17.25 620 C-18.32483643 619.41259033 -19.39967285 618.82518066 -20.50708008 618.2199707 C-28.03046381 614.10219703 -35.53323817 609.94731199 -43.0234375 605.76953125 C-49.27557586 602.2850096 -55.54466084 598.83116546 -61.8125 595.375 C-63.06339648 594.68514232 -64.31429165 593.99528228 -65.56518555 593.30541992 C-68.10931979 591.90240637 -70.65352147 590.49951517 -73.19775391 589.09667969 C-78.69861537 586.0635026 -84.19857571 583.02869237 -89.69857788 579.99395752 C-92.71567918 578.32923358 -95.73284284 576.66462268 -98.75 575 C-99.95833363 574.33333387 -101.16666696 573.6666672 -102.375 573 C-102.973125 572.67 -103.57125 572.34 -104.1875 572 C-135 555 -165.8125 538 -196.625 521 C-197.52214973 520.50502266 -197.52214973 520.50502266 -198.43742371 520.00004578 C-199.64601551 519.33323405 -200.85460315 518.66641479 -202.06318665 517.99958801 C-205.08003144 516.33507902 -208.09694782 514.67070006 -211.11401367 513.0065918 C-216.599171 509.98100219 -222.08375734 506.95439805 -227.56573486 503.92304993 C-230.64764025 502.21890036 -233.72997186 500.51552283 -236.8125 498.8125 C-237.71878143 498.31174454 -237.71878143 498.31174454 -238.64337158 497.8008728 C-246.86366702 493.26067509 -255.10844995 488.76803725 -263.375 484.3125 C-272.05401291 479.63416568 -280.64860171 474.82327002 -289.21630859 469.94458008 C-296.42173949 465.85635321 -303.69507298 461.90726144 -311 458 C-320.22606354 453.06516052 -329.36594725 448.00300177 -338.45703125 442.82421875 C-345.25762492 438.95960552 -352.11204742 435.20641685 -359 431.5 C-366.84550289 427.278324 -374.63372656 422.97235646 -382.375 418.5625 C-391.60919158 413.30396449 -400.93792432 408.24220387 -410.30810547 403.23071289 C-418.37983433 398.90215982 -426.35968676 394.43019243 -434.31640625 389.89453125 C-441.48737929 385.82078728 -448.72764286 381.8894661 -456 378 C-465.18035109 373.09008378 -474.2721093 368.05015683 -483.31640625 362.89453125 C-490.48737929 358.82078728 -497.72764286 354.8894661 -505 351 C-514.16557405 346.09798696 -523.24392697 341.06820932 -532.27246094 335.91870117 C-540.99113283 330.9638068 -549.81485945 326.21207126 -558.66210938 321.4921875 C-559.70689453 320.93402344 -560.75167969 320.37585938 -561.828125 319.80078125 C-562.7552832 319.30747314 -563.68244141 318.81416504 -564.63769531 318.3059082 C-567 317 -567 317 -570 315 C-570 314.34 -570 313.68 -570 313 C-566.42220052 311.02604167 -562.84440104 309.05208333 -559.26660156 307.078125 C-558.62174805 306.72234375 -557.97689453 306.3665625 -557.3125 306 C-552.54819743 303.37141927 -547.78389486 300.74283854 -543.01959229 298.11425781 C-542.35312683 297.74655273 -541.68666138 297.37884766 -541 297 C-539.14369202 295.97583008 -537.28738403 294.95166016 -535.43107605 293.92749023 C-534.83893814 293.60079346 -534.24680023 293.27409668 -533.63671875 292.9375 C-532.4449056 292.27994792 -531.25309245 291.62239583 -530.0612793 290.96484375 C-529.18117691 290.47927002 -529.18117691 290.47927002 -528.28329468 289.98388672 C-527.69480743 289.6592041 -527.10632019 289.33452148 -526.5 289 C-525.60675522 288.50717529 -525.60675522 288.50717529 -524.69546509 288.00439453 C-521.67197673 286.33626302 -518.64848836 284.66813151 -515.625 283 C-515.026875 282.67 -514.42875 282.34 -513.8125 282 C-479.37500001 263 -479.37500001 263 -477.56260681 262.00006104 C-476.35391507 261.33319522 -475.1452257 260.6663251 -473.9365387 259.99945068 C-470.9212085 258.33579573 -467.90583747 256.67221488 -464.89038086 255.00878906 C-459.38718418 251.9729467 -453.88432245 248.93650389 -448.38293457 245.89738464 C-445.27631965 244.18123369 -442.16944002 242.46556231 -439.0625 240.75 C-438.45508972 240.4145517 -437.84767944 240.07910339 -437.22186279 239.73348999 C-429.3711926 235.39876009 -421.50569515 231.09240371 -413.625 226.8125 C-406.28823057 222.82721031 -399.00688131 218.75382981 -391.75 214.625 C-382.47330202 209.34786015 -373.10322772 204.26424476 -363.69238281 199.23095703 C-356.57338131 195.41335281 -349.5177445 191.50040636 -342.5 187.5 C-333.30818399 182.26028241 -324.0209383 177.22017125 -314.69140625 172.23046875 C-307.57275822 168.41297736 -300.51742803 164.50022597 -293.5 160.5 C-284.30676374 155.25947281 -275.01816767 150.21841141 -265.68701172 145.22827148 C-258.61051077 141.43364889 -251.59901824 137.54199008 -244.625 133.5625 C-236.05182994 128.67308465 -227.39651736 123.95386926 -218.6875 119.3125 C-208.75058384 114.01657613 -198.86218912 108.64960698 -189.04052734 103.14306641 C-185.59397201 101.21236862 -182.14080567 99.29359046 -178.6875 97.375 C-177.96457764 96.97321533 -177.24165527 96.57143066 -176.49682617 96.1574707 C-165.61217786 90.1127453 -154.70517357 84.10834804 -143.80224609 78.09667969 C-138.30138463 75.0635026 -132.80142429 72.02869237 -127.30142212 68.99395752 C-124.28432082 67.32923358 -121.26715716 65.66462268 -118.25 64 C-117.04166637 63.33333387 -115.83333304 62.6666672 -114.625 62 C-107.37499999 57.99999999 -107.37499999 57.99999999 -105.56257629 57.00004578 C-104.35398449 56.33323405 -103.14539685 55.66641479 -101.93681335 54.99958801 C-98.91996856 53.33507902 -95.90305218 51.67070006 -92.88598633 50.0065918 C-87.40085495 46.9810165 -81.9162975 43.95442138 -76.43434143 40.9230957 C-63.43759397 33.736477 -50.4241057 26.58493309 -37.35595703 19.52856445 C-29.86428399 15.47954511 -22.40850231 11.36928588 -14.97265625 7.21875 C-14.33344238 6.86296875 -13.69422852 6.5071875 -13.03564453 6.140625 C-11.54290688 5.30420496 -10.05496087 4.45921811 -8.56982422 3.609375 C-7.76174316 3.15046875 -6.95366211 2.6915625 -6.12109375 2.21875 C-5.38173584 1.79529297 -4.64237793 1.37183594 -3.88061523 0.93554688 C-2 0 -2 0 0 0 Z " fill="#E54E4E" transform="translate(1650,686)"/>
<path d="M0 0 C4.4976605 1.49922017 7.86048607 2.87069333 11.91015625 5.1328125 C13.0496875 5.76574219 14.18921875 6.39867187 15.36328125 7.05078125 C16.59637678 7.74214716 17.82944905 8.43355457 19.0625 9.125 C20.35647186 9.84558921 21.65074844 10.56563148 22.9453125 11.28515625 C25.6328575 12.77946149 28.3190799 14.27610475 31.00439453 15.77441406 C36.56262453 18.87339153 42.13664205 21.94364698 47.71066284 25.01409912 C50.72452929 26.67469929 53.73719963 28.33746672 56.75 30 C57.9583277 30.66667688 59.16666103 31.33334355 60.375 32 C78.5 42 78.5 42 96.625 52 C97.22309982 52.32998489 97.82119965 52.65996979 98.43742371 52.99995422 C99.64601551 53.66676595 100.85460315 54.33358521 102.06318665 55.00041199 C105.08003144 56.66492098 108.09694782 58.32929994 111.11401367 59.9934082 C116.59914505 63.0189835 122.0837025 66.04557862 127.56565857 69.0769043 C140.575617 76.27082807 153.60329528 83.4277874 166.68359375 90.4934082 C174.64604987 94.79814453 182.56547247 99.17567234 190.46875 103.58789062 C205.18970854 111.80027722 219.93132271 119.97605895 234.6875 128.125 C235.29423553 128.46006561 235.90097107 128.79513123 236.52609253 129.14035034 C244.7858709 133.69935196 253.07023225 138.21088656 261.375 142.6875 C270.0539901 147.36587802 278.64860059 152.17672934 287.21630859 157.05541992 C295.50952549 161.76083624 303.90039366 166.27255741 312.30810547 170.76928711 C320.37983433 175.09784018 328.35968676 179.56980757 336.31640625 184.10546875 C343.48737929 188.17921272 350.72764286 192.1105339 358 196 C366.22641389 200.39972313 374.39519734 204.88003054 382.5 209.5 C391.81129334 214.80673224 401.21616833 219.92051314 410.66235352 224.98266602 C418.98661681 229.44553601 427.2576075 233.99387587 435.50097656 238.60400391 C450.20672661 246.81888069 464.94188507 254.9818919 479.6875 263.125 C480.29423553 263.46006561 480.90097107 263.79513123 481.52609253 264.14035034 C489.7858709 268.69935196 498.07023225 273.21088656 506.375 277.6875 C515.03925143 282.35793319 523.62030712 287.15886192 532.17236328 292.03125 C540.92585651 296.99965256 549.78176043 301.77024467 558.66162109 306.50756836 C559.70656738 307.06581299 560.75151367 307.62405762 561.828125 308.19921875 C563.2188623 308.93918091 563.2188623 308.93918091 564.63769531 309.6940918 C567 311 567 311 570 313 C570 313.66 570 314.32 570 315 C537.24755863 333.07031248 537.24755863 333.07031248 535.43115234 334.07246399 C534.23583569 334.73195149 533.04052318 335.39144652 531.84521484 336.0509491 C528.861263 337.69731045 525.87723708 339.34353728 522.89306641 340.98950195 C517.40554944 344.01639434 511.91860145 347.04429762 506.43426514 350.07695007 C503.35235975 351.78109964 500.27002814 353.48447717 497.1875 355.1875 C496.58331238 355.52133698 495.97912476 355.85517395 495.35662842 356.1991272 C487.13633262 360.73932511 478.89152821 365.23192179 470.625 369.6875 C461.9003248 374.39095543 453.257499 379.22370656 444.64306641 384.12573242 C436.81242506 388.57013243 428.90471572 392.86073549 420.97607422 397.12719727 C414.14320082 400.81362929 407.37096989 404.59462336 400.625 408.4375 C391.39080842 413.69603551 382.06207568 418.75779613 372.69189453 423.76928711 C365.57306976 427.58683491 358.51758627 431.49968383 351.5 435.5 C342.30818399 440.73971759 333.0209383 445.77982875 323.69140625 450.76953125 C316.57275603 454.58702382 309.51746849 458.49984213 302.5 462.5 C293.18870666 467.80673224 283.78383167 472.92051314 274.33764648 477.98266602 C266.02093929 482.44148498 257.75704181 486.9851485 249.52099609 491.59082031 C235.64080886 499.34953044 221.74938138 507.08307166 207.75 514.625 C198.98318607 519.34841815 190.29841127 524.20035708 181.64355469 529.12548828 C173.81271652 533.56990974 165.9048764 537.86064902 157.97607422 542.12719727 C151.14320082 545.81362929 144.37096989 549.59462336 137.625 553.4375 C128.39080842 558.69603551 119.06207568 563.75779613 109.69189453 568.76928711 C102.57306976 572.58683491 95.51758627 576.49968383 88.5 580.5 C79.30818399 585.73971759 70.0209383 590.77982875 60.69140625 595.76953125 C53.57274351 599.58703053 46.51770561 603.50024299 39.5 607.5 C31.52942414 612.0370538 23.51771446 616.49262616 15.45166016 620.85742188 C13.71636117 621.79687519 11.98316131 622.74020254 10.25 623.68359375 C9.20199219 624.24820313 8.15398437 624.8128125 7.07421875 625.39453125 C6.14182373 625.89831299 5.20942871 626.40209473 4.2487793 626.92114258 C2 628 2 628 0 628 C0 420.76 0 213.52 0 0 Z " fill="#E55050" transform="translate(350,686)"/>
</svg>
