<svg xmlns="http://www.w3.org/2000/svg" width="512" height="512" viewBox="0 0 512 512"><g fill="none" fill-rule="evenodd"><path fill="#000" fill-rule="nonzero" d="M5.90428975e-15,146.141456 L-3.93619317e-15,365.858544 C2.28704159e-15,416.675112 5.29105984,435.102427 15.2265641,453.680205 C25.1620684,472.257983 39.7420171,486.837932 58.3197949,496.773436 C76.8975727,506.70894 95.3248882,512 146.141456,512 L365.858544,512 C416.675112,512 435.102427,506.70894 453.680205,496.773436 C472.257983,486.837932 486.837932,472.257983 496.773436,453.680205 C506.70894,435.102427 512,416.675112 512,365.858544 L512,146.141456 C512,95.3248882 506.70894,76.8975727 496.773436,58.3197949 C486.837932,39.7420171 472.257983,25.1620684 453.680205,15.2265641 C435.102427,5.29105984 416.675112,-4.57408317e-15 365.858544,7.87238634e-15 L146.141456,-5.90428975e-15 C95.3248882,3.43056238e-15 76.8975727,5.29105984 58.3197949,15.2265641 C39.7420171,25.1620684 25.1620684,39.7420171 15.2265641,58.3197949 C5.29105984,76.8975727 -3.43056238e-15,95.3248882 5.90428975e-15,146.141456 Z"/><path fill="#D7FF37" d="M167.170213,126 C210.34243,126 245.340426,161.099419 245.340426,204.396733 L245.340426,307.73788 C245.340426,351.035201 210.34243,386.134613 167.170213,386.134613 C123.997999,386.134613 89,351.035201 89,307.73788 L89,204.396726 C89,161.099409 123.997999,126 167.170213,126 Z M167.170213,147.380927 C135.772236,147.380927 110.319149,172.907771 110.319149,204.396726 L110.319149,307.73788 C110.319149,339.226838 135.772239,364.753686 167.170213,364.753686 C198.568186,364.753686 224.021277,339.226838 224.021277,307.73788 L224.021277,204.396733 C224.021277,172.907775 198.568186,147.380927 167.170213,147.380927 Z M167.170213,216.86894 C188.756321,216.86894 206.255319,234.418646 206.255319,256.067307 C206.255319,277.715967 188.756321,295.265673 167.170213,295.265673 C145.584104,295.265673 128.085106,277.715967 128.085106,256.067307 C128.085106,234.418646 145.584104,216.86894 167.170213,216.86894 Z M344.829787,126 C388.002005,126 423,161.099419 423,204.396733 L423,307.73788 C423,351.035201 388.002005,386.134613 344.829787,386.134613 C324.057292,386.134613 305.177201,378.008778 291.177469,364.753686 L306.242071,349.608863 C316.378458,359.009209 329.93521,364.753686 344.829787,364.753686 C376.227761,364.753686 401.680851,339.226838 401.680851,307.73788 L401.680851,204.396733 C401.680851,172.907775 376.227761,147.380927 344.829787,147.380927 C313.43181,147.380927 287.978723,172.907771 287.978723,204.396726 L287.978723,256.067307 L266.659574,256.067307 L266.659574,204.396726 C266.659574,161.099409 301.657573,126 344.829787,126 Z M344.829787,165.198366 C366.415896,165.198366 383.914894,182.748072 383.914894,204.396733 C383.914894,226.045393 366.415896,243.595099 344.829787,243.595099 C323.243679,243.595099 305.744681,226.045393 305.744681,204.396733 C305.744681,182.748072 323.243679,165.198366 344.829787,165.198366 Z"/></g></svg>