<svg xmlns="http://www.w3.org/2000/svg" width="512" height="512" fill="none">
  <style>
    .icon { fill: #0f0f0f; }
    @media (prefers-color-scheme: dark) {
      .icon { fill: #f3f3f3; }
    }
  </style>
  <path class='icon' d="M279.472 77.024c-6.611-.43-11.998 4.96-11.998 11.557v167.241h168.635c6.624 0 12.036-5.365 11.6-11.948-5.937-89.458-78.053-160.983-168.237-166.85ZM447.709 423.06c-6.198-93.391-84.523-167.238-180.235-167.238v167.24c0 6.598 5.371 11.946 11.995 11.946h156.64c6.624 0 12.036-5.365 11.6-11.948ZM76.264 77.024c-6.61-.43-11.997 4.96-11.997 11.557v167.241c0 94.963 74.466 172.672 168.631 178.797 6.611.43 11.998-4.959 11.998-11.557v-167.24c0-94.963-74.467-172.672-168.632-178.798Z"/>
</svg>