<svg id="Слой_1" data-name="Слой 1" xmlns="http://www.w3.org/2000/svg" viewBox="0 0 433.22 268.26"><defs><style>.cls-1{fill:#3d3de6;}.cls-2{fill:#7878ee;}.cls-3{fill:#3131ad;}</style></defs><path class="cls-1" d="M432.3,107.58,343,261.31a10.07,10.07,0,0,1-8.7,5H158.38a6.71,6.71,0,0,1-5.8-10.08l26.61-45.81H297.76a10.06,10.06,0,0,0,8.71-5L368.85,97.5H426.5A6.71,6.71,0,0,1,432.3,107.58Z"/><path class="cls-2" d="M48.72,152.92v8.38h13.4v-8.38Zm-26.81,0v8.38H35.32v-8.38ZM1.07,149.49h0A7.87,7.87,0,0,0,7.88,161.3h.63v-8.38Zm13.47-23.17L7.81,137.89l7.25,4.23,6.72-11.6ZM28,103.13l-6.73,11.59,7.24,4.21,6.73-11.58ZM41.48,80l-6.73,11.6L42,95.76l6.74-11.59ZM55,56.79,48.22,68.37l7.23,4.2L62.19,61ZM68.42,33.61,61.69,45.2l7.23,4.2,6.74-11.59Zm290.36-8.9L352.05,36.3l7.24,4.21L366,28.92ZM83.73,7.24,75.16,22l7.23,4.21,7-12ZM363.93,0l1.42,8.86,8.27,7,2.34-4A7.87,7.87,0,0,0,369.16,0ZM335.35,0V8.38h13.4V0ZM308.54,0V8.38h13.4V0Zm-26.8,0V8.38h13.4V0ZM254.93,0V8.38h13.4V0Zm-26.8,0V8.38h13.4V0ZM201.32,0V8.38h13.4V0Zm-26.8,0V8.38h13.4V0ZM147.71,0V8.38h13.41V0Zm-26.8,0V8.38h13.4V0ZM90.31,0l6.07,8.38h11.13V0Z"/><path class="cls-2" d="M130.53,48.85l-88,151.5a6.71,6.71,0,0,0,5.8,10.08H179.19l30.36-52.23,3.06-5.28,29.29-50.41a10.07,10.07,0,0,1,8.71-5H368.85l25.21-43.59a6.72,6.72,0,0,0-5.81-10.07h-249A10.07,10.07,0,0,0,130.53,48.85ZM88.93,161.3H75.52v-8.38H88.93Zm26.8,0h-13.4v-8.38h13.4Zm26.81,0H129.13v-8.38h13.41Zm26.8,0h-13.4v-8.38h13.4Zm26.81,0H182.74v-8.38h13.41Zm136.2-74.44-7.24-4.22,6.73-11.57,7.24,4.2Zm13.47-23.18-7.24-4.21,6.73-11.59,7.24,4.21Z"/><rect class="cls-1" x="338.86" y="51.59" width="13.41" height="8.37" transform="translate(123.75 326.56) rotate(-59.85)"/><polygon class="cls-1" points="339.08 75.27 332.35 86.86 325.11 82.64 331.85 71.07 339.08 75.27"/><rect class="cls-1" x="182.74" y="152.92" width="13.4" height="8.38"/><rect class="cls-1" x="155.94" y="152.92" width="13.4" height="8.38"/><rect class="cls-1" x="129.13" y="152.92" width="13.4" height="8.38"/><rect class="cls-1" x="102.33" y="152.92" width="13.4" height="8.38"/><rect class="cls-1" x="75.52" y="152.92" width="13.4" height="8.38"/><path class="cls-3" d="M368.85,97.5,306.47,205.41a10.06,10.06,0,0,1-8.71,5H179.19l30.36-52.23,3.06-5.28,29.29-50.41a10.07,10.07,0,0,1,8.71-5Z"/></svg>