<svg width="30" height="22" viewBox="0 0 30 22" fill="none" xmlns="http://www.w3.org/2000/svg">
<path d="M2.99601 10.2855C2.99601 10.2855 8.29521 4.9497 10.7122 2.5352C13.174 0.076004 16.8738 0.0766063 19.3372 2.53771C21.8434 5.04191 27.0078 10.2855 27.0078 10.2855C27.0078 10.2855 25.075 9.274 24.0588 9.1928C22.1775 9.0422 20.5424 9.63361 19.1941 10.9603C17.8646 12.2688 16.2349 13.8866 15.0019 15.3164C13.6359 13.7264 12.0136 12.0736 10.4568 10.6704C8.54471 9.1928 6.55831 8.78061 4.30551 9.59921C3.96091 9.72451 3.33271 10.1384 2.99601 10.2855Z" fill="#52B5F9"/>
<path d="M23.5019 9.1416C26.8337 9.1416 29.668 11.9987 29.668 15.3171C29.668 18.6356 26.8337 21.3257 23.5019 21.3257C19.868 21.5927 15.0013 15.3171 15.0013 15.3171C15.0013 15.3171 18.768 9.1416 23.5019 9.1416Z" fill="#86CBFB"/>
<path d="M6.4994 9.1416C3.1676 9.1416 0.333302 11.9987 0.333302 15.3171C0.333302 18.6356 3.1676 21.3257 6.4994 21.3257C10.1333 21.5927 15 15.3171 15 15.3171C15 15.3171 11.2333 9.1416 6.4994 9.1416Z" fill="#A9DAFC"/>
</svg>
