<svg width="32" height="32" viewBox="0 0 32 32" fill="none" xmlns="http://www.w3.org/2000/svg">
<path d="M0.872681 28.3067C0.872681 30.189 2.63328 31.5758 4.46325 31.1348L22.7905 26.7186C24.0973 26.4037 25.0181 25.2346 25.0181 23.8904V3.69334C25.0181 1.81099 23.2575 0.424239 21.4276 0.865196L3.10029 5.28141C1.79356 5.59628 0.872681 6.76541 0.872681 8.10955V28.3067Z" fill="#1E88E5"/>
<path d="M6.98181 3.69334C6.98181 1.81099 8.74241 0.424241 10.5724 0.865198L28.8997 5.28141C30.2064 5.59628 31.1273 6.76541 31.1273 8.10955V28.3067C31.1273 30.189 29.3667 31.5758 27.5367 31.1348L9.20942 26.7186C7.90269 26.4037 6.98181 25.2346 6.98181 23.8905V3.69334Z" fill="#42A5F5"/>
</svg>
