<svg width="113" height="104" viewBox="0 0 113 104" fill="none" xmlns="http://www.w3.org/2000/svg">
<rect x="1" y="1" width="102" height="102.168" rx="42.08" fill="#0033FF"/>
<rect x="1" y="1" width="102" height="102.168" rx="42.08" stroke="#0033FF" stroke-width="1.00159"/>
<path d="M53.003 77.7492L34.2724 29.2635C33.868 28.1932 33.4042 27.3726 32.8809 26.8018C32.3577 26.2309 31.6203 25.8147 30.6689 25.553C29.7413 25.2676 28.4569 25.0655 26.8158 24.9465V22.6632H54.1091V24.9465C51.7068 25.113 49.9705 25.3271 48.9001 25.5887C47.8298 25.8266 47.2233 26.2666 47.0806 26.9088C46.9617 27.5272 47.1163 28.4905 47.5444 29.7987L57.7838 60.517H58.1763L67.0243 35.8638L64.5269 29.2635C64.0987 28.1932 63.6112 27.3726 63.0641 26.8018C62.5408 26.2309 61.8154 25.8147 60.8878 25.553C59.9602 25.2676 58.6639 25.0655 56.9989 24.9465V22.6632H84.2922V24.9465C82.0089 25.0655 80.3201 25.2676 79.226 25.553C78.1319 25.8385 77.5016 26.3142 77.3351 26.9801C77.1924 27.6461 77.3589 28.6213 77.8346 29.9057L88.0027 60.517H88.4308L98.3848 32.6885C99.027 30.9522 99.253 29.5846 99.0627 28.5856C98.8724 27.5629 98.1708 26.778 96.9577 26.2309C95.7447 25.6839 93.9132 25.2557 91.4634 24.9465V22.6632H112.727V24.9465C110.563 25.2795 108.874 25.7076 107.661 26.2309C106.448 26.7304 105.485 27.4915 104.771 28.5143C104.081 29.5132 103.392 30.9403 102.702 32.7956L86.1474 77.7492H83.2219L69.272 41.6079L55.8572 77.7492H53.003Z" fill="white"/>
</svg>
