<svg width="48" height="48" viewBox="0 0 48 48" fill="none" xmlns="http://www.w3.org/2000/svg">
<g clip-path="url(#clip0_498_5283)">
<rect width="48" height="48" rx="11.25" fill="url(#paint0_linear_498_5283)"/>
<path d="M36.5688 29.8721C36.4286 29.5321 36.2881 29.1638 36.1478 28.8518C35.9228 28.3419 35.6982 27.8597 35.5021 27.4065L35.474 27.3781C33.5363 23.1268 31.4588 18.8194 29.2683 14.5687L29.1842 14.3983C28.9538 13.9573 28.7293 13.5132 28.5107 13.0662C28.2296 12.5557 27.9491 12.0178 27.4997 11.5073C26.6013 10.3737 25.3095 9.75 23.9339 9.75C22.5297 9.75 21.2663 10.3737 20.34 11.4504C19.9187 11.9603 19.6096 12.4988 19.3291 13.0093C19.1099 13.456 18.8854 13.9001 18.6556 14.3413L18.5711 14.5118C16.409 18.7625 14.3032 23.0702 12.3657 27.3212L12.3374 27.3776C12.141 27.8317 11.9161 28.3133 11.6914 28.8229C11.5511 29.1349 11.4109 29.4749 11.2706 29.8433C10.9054 30.8917 10.7929 31.8837 10.9337 32.9044C11.2426 35.03 12.6462 36.8148 14.584 37.6089C15.3141 37.9209 16.0724 38.0625 16.8583 38.0625C17.083 38.0625 17.3636 38.0342 17.5885 38.0056C18.5153 37.8923 19.4699 37.5809 20.3967 37.0424C21.5479 36.3904 22.643 35.4555 23.8784 34.0951C25.1137 35.4555 26.2369 36.3904 27.36 37.0424C28.2871 37.5809 29.2414 37.8923 30.1679 38.0056C30.3926 38.0345 30.6737 38.0625 30.8984 38.0625C31.6846 38.0625 32.4706 37.9209 33.1725 37.6089C35.1383 36.8148 36.5139 35.0017 36.823 32.9044C37.046 31.9126 36.9338 30.9211 36.5688 29.8721ZM23.9056 31.3458C22.3891 29.4186 21.4062 27.6049 21.0696 26.0749C20.9294 25.4229 20.901 24.8561 20.9855 24.3459C21.0413 23.8924 21.2102 23.4954 21.4348 23.1554C21.9684 22.3907 22.8669 21.9086 23.9059 21.9086C24.9451 21.9086 25.8717 22.3621 26.3771 23.1554C26.6018 23.4954 26.7701 23.8927 26.8268 24.3459C26.9107 24.8564 26.8826 25.4512 26.7424 26.0749C26.4043 27.5766 25.4214 29.3906 23.9056 31.3458ZM35.1085 32.6779C34.9122 34.1515 33.9293 35.4272 32.5536 35.994C31.8799 36.2771 31.1494 36.3624 30.4198 36.2771C29.718 36.1919 29.0156 35.9651 28.286 35.5405C27.275 34.9731 26.2644 34.0951 25.0848 32.7911C26.9379 30.4958 28.061 28.3982 28.4824 26.5282C28.679 25.6494 28.7073 24.8561 28.6226 24.1189C28.5107 23.4105 28.2577 22.7585 27.8647 22.1917C26.9937 20.9159 25.5334 20.1796 23.9053 20.1796C22.2772 20.1796 20.8169 20.9448 19.9465 22.1917C19.5535 22.7585 19.3005 23.4105 19.1883 24.1189C19.076 24.8561 19.1038 25.6777 19.3285 26.5282C19.7496 28.3982 20.9008 30.5239 22.7258 32.8194C21.5745 34.1232 20.5355 35.002 19.5246 35.5688C18.7944 35.994 18.0929 36.2208 17.391 36.3055C16.6331 36.3907 15.9027 36.2772 15.2569 36.0223C13.8813 35.4555 12.8984 34.1798 12.7021 32.7062C12.6179 31.9978 12.6737 31.2894 12.9548 30.4958C13.0387 30.2122 13.1795 29.9291 13.3197 29.589C13.5164 29.1355 13.7405 28.6533 13.9655 28.1717L13.9938 28.1154C15.931 23.8924 18.0087 19.5847 20.1709 15.3906L20.255 15.2202C20.48 14.7955 20.7047 14.3419 20.9291 13.9167C21.1538 13.4631 21.4062 13.0379 21.7154 12.6692C22.305 11.9898 23.091 11.6209 23.9617 11.6209C24.8324 11.6209 25.6184 11.9898 26.208 12.6692C26.5171 13.0387 26.7696 13.464 26.9942 13.9167C27.2192 14.3419 27.4439 14.7955 27.668 15.2202L27.7525 15.3906C29.8817 19.6021 31.9318 23.8539 33.9018 28.1437V28.172C34.1267 28.6261 34.3231 29.1357 34.5478 29.5899C34.688 29.9293 34.8286 30.2125 34.9127 30.4961C35.1369 31.2323 35.221 31.9412 35.1085 32.6779Z" fill="white"/>
<rect width="48" height="48" fill="url(#paint1_linear_498_5283)"/>
<path d="M14.0066 33.9346C14.0066 33.9346 11.9605 27.9755 10.5846 24.1501C9.20876 20.3246 4.90203 11.069 14.5891 14.7055C20.4447 16.9037 26.4138 22.8278 28.0382 33.9346" stroke="white" stroke-width="3.28125" stroke-linecap="round" stroke-linejoin="round"/>
<path d="M33.97 33.9621C33.97 33.9621 36.016 28.003 37.3919 24.1775C38.7678 20.3521 43.0745 11.0964 33.3874 14.733C27.5319 16.9311 21.5628 22.8553 19.9383 33.9621" stroke="white" stroke-width="3.28125" stroke-linecap="round" stroke-linejoin="round"/>
</g>
<defs>
<linearGradient id="paint0_linear_498_5283" x1="24" y1="0" x2="24" y2="48" gradientUnits="userSpaceOnUse">
<stop stop-color="#EF786F"/>
<stop offset="1" stop-color="#D8595E"/>
</linearGradient>
<linearGradient id="paint1_linear_498_5283" x1="24" y1="0" x2="24" y2="48" gradientUnits="userSpaceOnUse">
<stop stop-color="#FF5D2B"/>
<stop offset="1" stop-color="#FE3C01"/>
</linearGradient>
<clipPath id="clip0_498_5283">
<rect width="48" height="48" rx="11.25" fill="white"/>
</clipPath>
</defs>
</svg>
