<svg width="48" height="48" viewBox="0 0 48 48" fill="none" xmlns="http://www.w3.org/2000/svg"><path opacity="0.5" d="M38 4H10C8.41032 4.00527 6.88726 4.63911 5.76318 5.76318C4.63911 6.88726 4.00527 8.41032 4 10V27.72L11.76 19.96C12.9034 18.8717 14.4215 18.2648 16 18.2648C17.5785 18.2648 19.0966 18.8717 20.24 19.96L25.982 25.734L27.758 23.958C28.8857 22.838 30.4106 22.2095 32 22.2095C33.5894 22.2095 35.1143 22.838 36.242 23.958L44 31.72V10C43.9947 8.41032 43.3609 6.88726 42.2368 5.76318C41.1127 4.63911 39.5897 4.00527 38 4Z" fill="black"></path><path d="M20.24 19.96C19.0966 18.8717 17.5785 18.2648 16 18.2648C14.4215 18.2648 12.9034 18.8717 11.76 19.96L4 27.72V38C4.00527 39.5897 4.63911 41.1127 5.76318 42.2368C6.88726 43.3609 8.41032 43.9947 10 44H38C38.8068 43.9995 39.6052 43.8363 40.3475 43.5202C41.0897 43.204 41.7606 42.7414 42.32 42.16L20.24 19.96Z" fill="white"></path><path opacity="0.5" d="M44.0001 31.716L36.2421 23.958C35.1143 22.838 33.5894 22.2095 32.0001 22.2095C30.4107 22.2095 28.8858 22.838 27.7581 23.958L25.9821 25.734L42.3121 42.152C43.3961 41.042 44.0021 39.552 44.0001 38V31.716Z" fill="white"></path></svg>