<svg xmlns="http://www.w3.org/2000/svg" xmlns:xlink="http://www.w3.org/1999/xlink" width="400" zoomAndPan="disable" viewBox="0 0 300 299.999988" height="400" preserveAspectRatio="xMidYMid meet" version="1.2"><defs><clipPath id="6264e5a1f1"><path d="M 0 0 L 299.894531 0 L 299.894531 300 L 0 300 Z M 0 0 "/></clipPath><clipPath id="458726e830"><path d="M 299.894531 67.476562 L 299.894531 232.523438 C 299.894531 250.417969 292.785156 267.582031 280.128906 280.238281 C 267.476562 292.890625 250.3125 300 232.417969 300 L 67.476562 300 C 49.582031 300 32.417969 292.890625 19.761719 280.238281 C 7.109375 267.582031 0 250.417969 0 232.523438 L 0 67.476562 C 0 49.582031 7.109375 32.417969 19.761719 19.761719 C 32.417969 7.109375 49.582031 0 67.476562 0 L 232.417969 0 C 250.3125 0 267.476562 7.109375 280.128906 19.761719 C 292.785156 32.417969 299.894531 49.582031 299.894531 67.476562 Z M 299.894531 67.476562 "/></clipPath><clipPath id="379aaf355d"><path d="M 0.0546875 0 L 300 0 L 300 300 L 0.0546875 300 Z M 0.0546875 0 "/></clipPath><clipPath id="866c5bf4ba"><path d="M 299.945312 67.476562 L 299.945312 232.523438 C 299.945312 250.417969 292.835938 267.582031 280.183594 280.238281 C 267.53125 292.890625 250.367188 300 232.472656 300 L 67.527344 300 C 49.632812 300 32.46875 292.890625 19.816406 280.238281 C 7.164062 267.582031 0.0546875 250.417969 0.0546875 232.523438 L 0.0546875 67.476562 C 0.0546875 49.582031 7.164062 32.417969 19.816406 19.761719 C 32.46875 7.109375 49.632812 0 67.527344 0 L 232.472656 0 C 250.367188 0 267.53125 7.109375 280.183594 19.761719 C 292.835938 32.417969 299.945312 49.582031 299.945312 67.476562 Z M 299.945312 67.476562 "/></clipPath></defs><g id="d0ac974f37"><g clip-rule="nonzero" clip-path="url(#6264e5a1f1)"><g clip-rule="nonzero" clip-path="url(#458726e830)"><path style=" stroke:none;fill-rule:nonzero;fill:#f73d5f;fill-opacity:1;" d="M 0 0 L 299.894531 0 L 299.894531 299.894531 L 0 299.894531 Z M 0 0 "/></g></g><g clip-rule="nonzero" clip-path="url(#379aaf355d)"><g clip-rule="nonzero" clip-path="url(#866c5bf4ba)"><path style="fill:none;stroke-width:10;stroke-linecap:butt;stroke-linejoin:miter;stroke:#545454;stroke-opacity:1;stroke-miterlimit:4;" d="M 399.856324 89.968757 L 399.856324 310.031275 C 399.856324 333.890652 390.377157 356.776071 373.507364 373.651072 C 356.637571 390.520865 333.752152 400.000033 309.892775 400.000033 L 89.965674 400.000033 C 66.106297 400.000033 43.220879 390.520865 26.351085 373.651072 C 9.481292 356.776071 0.00212498 333.890652 0.00212498 310.031275 L 0.00212498 89.968757 C 0.00212498 66.10938 9.481292 43.223962 26.351085 26.34896 C 43.220879 9.479167 66.106297 0 89.965674 0 L 309.892775 0 C 333.752152 0 356.637571 9.479167 373.507364 26.34896 C 390.377157 43.223962 399.856324 66.10938 399.856324 89.968757 Z M 399.856324 89.968757 " transform="matrix(0.75,0,0,0.75,0.0530938,0)"/></g></g><g style="fill:#000000;fill-opacity:0.3686;"><g transform="translate(49.751548, 251.638307)"><path style="stroke:none" d="M 123.875 -140.203125 C 123.101562 -147.953125 119.785156 -153.972656 113.921875 -158.265625 C 108.054688 -162.554688 100.160156 -164.703125 90.234375 -164.703125 C 80.046875 -164.703125 72.226562 -162.617188 66.78125 -158.453125 C 61.34375 -154.296875 58.625 -149.046875 58.625 -142.703125 C 58.488281 -135.660156 61.507812 -130.328125 67.6875 -126.703125 C 73.875 -123.085938 81.226562 -120.285156 89.75 -118.296875 L 107.4375 -114.0625 C 118.84375 -111.5 128.976562 -107.78125 137.84375 -102.90625 C 146.71875 -98.039062 153.703125 -91.78125 158.796875 -84.125 C 163.890625 -76.476562 166.4375 -67.175781 166.4375 -56.21875 C 166.375 -38.21875 159.628906 -23.882812 146.203125 -13.21875 C 132.785156 -2.550781 114.066406 2.78125 90.046875 2.78125 C 66.148438 2.78125 47.085938 -2.660156 32.859375 -13.546875 C 18.640625 -24.441406 11.273438 -40.523438 10.765625 -61.796875 L 51.03125 -61.796875 C 51.726562 -51.921875 55.617188 -44.5 62.703125 -39.53125 C 69.785156 -34.570312 78.738281 -32.09375 89.5625 -32.09375 C 100.132812 -32.09375 108.570312 -34.332031 114.875 -38.8125 C 121.1875 -43.300781 124.378906 -49.132812 124.453125 -56.3125 C 124.378906 -62.976562 121.457031 -68.101562 115.6875 -71.6875 C 109.925781 -75.269531 101.695312 -78.34375 91 -80.90625 L 69.578125 -86.296875 C 52.984375 -90.265625 39.878906 -96.570312 30.265625 -105.21875 C 20.660156 -113.875 15.890625 -125.441406 15.953125 -139.921875 C 15.890625 -151.835938 19.078125 -162.265625 25.515625 -171.203125 C 31.953125 -180.140625 40.804688 -187.085938 52.078125 -192.046875 C 63.359375 -197.015625 76.171875 -199.5 90.515625 -199.5 C 105.128906 -199.5 117.894531 -197 128.8125 -192 C 139.738281 -187 148.242188 -180.046875 154.328125 -171.140625 C 160.421875 -162.242188 163.5625 -151.929688 163.75 -140.203125 Z M 123.875 -140.203125 "/></g></g><g style="fill:#ffffff;fill-opacity:1;"><g transform="translate(61.389923, 243.489031)"><path style="stroke:none" d="M 123.875 -140.203125 C 123.101562 -147.953125 119.785156 -153.972656 113.921875 -158.265625 C 108.054688 -162.554688 100.160156 -164.703125 90.234375 -164.703125 C 80.046875 -164.703125 72.226562 -162.617188 66.78125 -158.453125 C 61.34375 -154.296875 58.625 -149.046875 58.625 -142.703125 C 58.488281 -135.660156 61.507812 -130.328125 67.6875 -126.703125 C 73.875 -123.085938 81.226562 -120.285156 89.75 -118.296875 L 107.4375 -114.0625 C 118.84375 -111.5 128.976562 -107.78125 137.84375 -102.90625 C 146.71875 -98.039062 153.703125 -91.78125 158.796875 -84.125 C 163.890625 -76.476562 166.4375 -67.175781 166.4375 -56.21875 C 166.375 -38.21875 159.628906 -23.882812 146.203125 -13.21875 C 132.785156 -2.550781 114.066406 2.78125 90.046875 2.78125 C 66.148438 2.78125 47.085938 -2.660156 32.859375 -13.546875 C 18.640625 -24.441406 11.273438 -40.523438 10.765625 -61.796875 L 51.03125 -61.796875 C 51.726562 -51.921875 55.617188 -44.5 62.703125 -39.53125 C 69.785156 -34.570312 78.738281 -32.09375 89.5625 -32.09375 C 100.132812 -32.09375 108.570312 -34.332031 114.875 -38.8125 C 121.1875 -43.300781 124.378906 -49.132812 124.453125 -56.3125 C 124.378906 -62.976562 121.457031 -68.101562 115.6875 -71.6875 C 109.925781 -75.269531 101.695312 -78.34375 91 -80.90625 L 69.578125 -86.296875 C 52.984375 -90.265625 39.878906 -96.570312 30.265625 -105.21875 C 20.660156 -113.875 15.890625 -125.441406 15.953125 -139.921875 C 15.890625 -151.835938 19.078125 -162.265625 25.515625 -171.203125 C 31.953125 -180.140625 40.804688 -187.085938 52.078125 -192.046875 C 63.359375 -197.015625 76.171875 -199.5 90.515625 -199.5 C 105.128906 -199.5 117.894531 -197 128.8125 -192 C 139.738281 -187 148.242188 -180.046875 154.328125 -171.140625 C 160.421875 -162.242188 163.5625 -151.929688 163.75 -140.203125 Z M 123.875 -140.203125 "/></g></g><g style="fill:#000000;fill-opacity:0.3686;"><g transform="translate(226.971699, 251.638307)"><path style="stroke:none" d=""/></g></g><g style="fill:#ffffff;fill-opacity:1;"><g transform="translate(238.610073, 243.489031)"><path style="stroke:none" d=""/></g></g></g></svg>